<svg width="74" height="18" viewBox="0 0 74 18" fill="none" xmlns="http://www.w3.org/2000/svg">
<path d="M74 9.00001L59 0.339751L59 17.6603L74 9.00001ZM3.08333 10.5C3.91176 10.5 4.58333 9.82843 4.58333 9C4.58333 8.17157 3.91176 7.5 3.08333 7.5L3.08333 10.5ZM9.25 7.5C8.42157 7.5 7.75 8.17157 7.75 9C7.75 9.82843 8.42157 10.5 9.25 10.5L9.25 7.5ZM15.4167 10.5C16.2451 10.5 16.9167 9.82843 16.9167 9C16.9167 8.17157 16.2451 7.5 15.4167 7.5L15.4167 10.5ZM21.5833 7.5C20.7549 7.5 20.0833 8.17157 20.0833 9C20.0833 9.82843 20.7549 10.5 21.5833 10.5L21.5833 7.5ZM27.75 10.5C28.5784 10.5 29.25 9.82843 29.25 9C29.25 8.17158 28.5784 7.5 27.75 7.5L27.75 10.5ZM33.9167 7.5C33.0882 7.5 32.4167 8.17158 32.4167 9C32.4167 9.82843 33.0882 10.5 33.9167 10.5L33.9167 7.5ZM40.0833 10.5C40.9118 10.5 41.5833 9.82843 41.5833 9C41.5833 8.17158 40.9118 7.5 40.0833 7.5L40.0833 10.5ZM46.25 7.5C45.4216 7.5 44.75 8.17158 44.75 9C44.75 9.82843 45.4216 10.5 46.25 10.5L46.25 7.5ZM52.4167 10.5C53.2451 10.5 53.9167 9.82843 53.9167 9C53.9167 8.17158 53.2451 7.5 52.4167 7.5L52.4167 10.5ZM58.5833 7.50001C57.7549 7.50001 57.0833 8.17158 57.0833 9C57.0833 9.82843 57.7549 10.5 58.5833 10.5L58.5833 7.50001ZM64.75 10.5C65.5784 10.5 66.25 9.82843 66.25 9.00001C66.25 8.17158 65.5784 7.50001 64.75 7.50001L64.75 10.5ZM70.9167 7.50001C70.0882 7.50001 69.4167 8.17158 69.4167 9.00001C69.4167 9.82843 70.0882 10.5 70.9167 10.5L70.9167 7.50001ZM-1.31134e-07 10.5L3.08333 10.5L3.08333 7.5L1.31134e-07 7.5L-1.31134e-07 10.5ZM9.25 10.5L15.4167 10.5L15.4167 7.5L9.25 7.5L9.25 10.5ZM21.5833 10.5L27.75 10.5L27.75 7.5L21.5833 7.5L21.5833 10.5ZM33.9167 10.5L40.0833 10.5L40.0833 7.5L33.9167 7.5L33.9167 10.5ZM46.25 10.5L52.4167 10.5L52.4167 7.5L46.25 7.5L46.25 10.5ZM58.5833 10.5L64.75 10.5L64.75 7.50001L58.5833 7.50001L58.5833 10.5Z" fill="#68AE29"/>
</svg>
