<svg width="22" height="22" viewBox="0 0 22 22" fill="none" xmlns="http://www.w3.org/2000/svg">
<path fill-rule="evenodd" clip-rule="evenodd" d="M18.4346 11.0004C18.1983 11.4506 17.9286 11.8825 17.6279 12.2924L19.4424 14.1176C20.0632 13.3 20.5839 12.4108 20.9932 11.4693C21.1065 11.167 21.1065 10.834 20.9932 10.5318C20.8799 10.2407 18.0694 3.39893 11 3.39893C10.3224 3.39293 9.64618 3.46104 8.98339 3.60205L11.3154 5.9458C15.5869 6.1098 17.7666 9.68213 18.4346 11.0004ZM20.7119 18.9731L3.0703 1.23682C2.95376 1.11895 2.81499 1.02537 2.66203 0.9615C2.50906 0.897632 2.34495 0.864746 2.17919 0.864746C2.01343 0.864746 1.84932 0.897632 1.69636 0.9615C1.5434 1.02537 1.40462 1.11895 1.28808 1.23682C1.05164 1.47488 0.918945 1.79679 0.918945 2.13232C0.918945 2.46785 1.05164 2.78976 1.28808 3.02782L4.24968 6.00536L4.24608 6.00829C4.01861 6.21142 3.80468 6.4262 3.60351 6.62929C3.5147 6.71816 3.43951 6.80709 3.36431 6.89498C3.1494 7.1235 2.95995 7.35198 2.78417 7.57949C2.708 7.68105 2.62011 7.7817 2.55761 7.88326C2.37121 8.12248 2.19873 8.37223 2.04101 8.63126C1.64244 9.23393 1.29646 9.86976 1.00689 10.5317C0.893612 10.834 0.893612 11.167 1.00689 11.4692C1.12108 11.7602 3.93065 18.602 11 18.602C11.3032 18.6048 11.6062 18.5878 11.9072 18.5512C12.2802 18.5279 12.6511 18.477 13.0166 18.3989C13.167 18.3735 13.3057 18.3481 13.4444 18.311H13.457C13.7852 18.2211 14.1123 18.1206 14.4151 18.0063C14.5396 17.9677 14.6616 17.9214 14.7803 17.8676C15.0731 17.7476 15.3594 17.612 15.6377 17.4614L15.6421 17.4588L18.9297 20.7641C19.0464 20.8816 19.1852 20.975 19.3382 21.0387C19.4911 21.1024 19.6551 21.1351 19.8208 21.1351C19.9865 21.1351 20.1505 21.1024 20.3035 21.0387C20.4564 20.975 20.5952 20.8816 20.7119 20.7641C20.9484 20.526 21.081 20.2041 21.081 19.8686C21.081 19.5331 20.9483 19.2112 20.7119 18.9731ZM13.7217 15.5356C13.4184 15.6737 13.1016 15.7798 12.7764 15.8521C12.6504 15.8911 12.5117 15.9165 12.374 15.9536C11.9909 16.021 11.6028 16.0549 11.2139 16.0551C11.1432 16.0669 11.0716 16.0715 11 16.0689C10.8947 16.0711 10.7893 16.0665 10.6846 16.0551C10.1915 16.0419 9.70152 15.9738 9.22356 15.8521C7.99027 15.491 6.84791 14.8716 5.87236 14.0351C4.89682 13.1987 4.1104 12.1642 3.56536 11.0004C3.64055 10.8481 3.7412 10.6704 3.85546 10.4555C3.99419 10.2271 4.15716 9.97412 4.35937 9.6958C4.43456 9.59424 4.51079 9.49261 4.58599 9.39111C4.76301 9.14943 4.95237 8.91702 5.15331 8.69482C5.22851 8.6059 5.30468 8.51703 5.39257 8.42822C5.59882 8.21298 5.81765 8.01015 6.0479 7.8208L6.05218 7.81744L7.60161 9.37524C7.45357 9.67756 7.34615 9.99813 7.28216 10.3286C7.24241 10.5504 7.2215 10.7751 7.21966 11.0004C7.21686 11.4333 7.29367 11.8629 7.44628 12.268C7.63249 12.7989 7.93515 13.2815 8.33207 13.6803C8.72898 14.0791 9.2101 14.384 9.74016 14.5727C10.1423 14.7264 10.5695 14.8039 11 14.8012C11.2241 14.7996 11.4476 14.7783 11.668 14.7377C11.997 14.6733 12.3159 14.5654 12.6164 14.4169L13.7268 15.5333L13.7217 15.5356Z" fill="#9E9E9E"/>
</svg>
