<svg width="22" height="16" viewBox="0 0 22 16" fill="none" xmlns="http://www.w3.org/2000/svg">
<path fill-rule="evenodd" clip-rule="evenodd" d="M11.0002 4.17821C10.244 4.17627 9.50429 4.39871 8.87461 4.81738C8.24493 5.23605 7.75361 5.83212 7.46285 6.53014C7.17209 7.22817 7.09495 7.99677 7.24121 8.73865C7.38747 9.48053 7.75054 10.1623 8.28447 10.6978C8.8184 11.2332 9.49918 11.5982 10.2406 11.7466C10.9821 11.8949 11.7509 11.82 12.4498 11.5312C13.1486 11.2424 13.7461 10.7528 14.1665 10.1243C14.587 9.49581 14.8115 8.75671 14.8117 8.00054C14.8119 6.9886 14.4108 6.01788 13.6962 5.30131C12.9817 4.58475 12.0121 4.18085 11.0002 4.17821ZM21.0735 7.52593C20.9563 7.23393 18.1301 0.356934 11.0002 0.356934C3.87025 0.356934 1.04419 7.23393 0.926999 7.52593C0.805909 7.83006 0.805909 8.16901 0.926999 8.47313C1.04419 8.76613 3.8703 15.6431 11.0002 15.6431C18.1301 15.6431 20.9563 8.76613 21.0735 8.47313C21.1936 8.16882 21.1936 7.83024 21.0735 7.52593ZM11.0002 13.0953C6.49439 13.0953 4.1955 9.36187 3.508 8.00243C4.1955 6.65972 6.51978 2.90484 11.0002 2.90484C15.509 2.90484 17.8069 6.6411 18.4924 7.99663C17.8049 9.34032 15.4817 13.0953 11.0002 13.0953Z" fill="#9E9E9E"/>
</svg>
