<svg width="298" height="229" viewBox="0 0 298 229" fill="none" xmlns="http://www.w3.org/2000/svg">
<g clip-path="url(#clip0)">
<path d="M23.5037 62.5334C24.1028 56.1045 25.7572 49.8174 28.4011 43.9228C29.138 42.2825 29.949 40.6782 30.8342 39.11C30.8786 39.028 30.8893 38.9321 30.864 38.8423C30.8388 38.7526 30.7795 38.6762 30.6988 38.6292C30.6181 38.5822 30.5222 38.5682 30.4314 38.5903C30.3405 38.6124 30.2618 38.6688 30.2119 38.7475C26.9927 44.4591 24.7375 50.6591 23.5364 57.0996C23.2022 58.8982 22.9511 60.7095 22.783 62.5334C22.7403 62.9935 23.4613 62.9905 23.5037 62.5334Z" fill="#E6E6E6"/>
<path d="M32.5799 40.2626C35.1009 40.2626 37.1446 38.2261 37.1446 35.7138C37.1446 33.2016 35.1009 31.165 32.5799 31.165C30.0589 31.165 28.0152 33.2016 28.0152 35.7138C28.0152 38.2261 30.0589 40.2626 32.5799 40.2626Z" fill="#E6E6E6"/>
<path d="M23.9707 62.6549C24.3593 58.4842 25.4326 54.4054 27.1478 50.5813C27.6259 49.5172 28.152 48.4764 28.7263 47.4591C28.7551 47.4059 28.762 47.3436 28.7456 47.2854C28.7292 47.2272 28.6908 47.1776 28.6384 47.1471C28.5861 47.1166 28.5239 47.1076 28.4649 47.1219C28.406 47.1362 28.355 47.1728 28.3226 47.2239C26.2341 50.9293 24.7711 54.9515 23.9918 59.1297C23.7751 60.2966 23.6121 61.4716 23.5031 62.6549C23.4754 62.9533 23.9431 62.9514 23.9707 62.6549Z" fill="#E6E6E6"/>
<path d="M29.8588 48.2067C31.4943 48.2067 32.8202 46.8855 32.8202 45.2557C32.8202 43.6259 31.4943 42.3047 29.8588 42.3047C28.2233 42.3047 26.8975 43.6259 26.8975 45.2557C26.8975 46.8855 28.2233 48.2067 29.8588 48.2067Z" fill="#E6E6E6"/>
<path d="M23.3805 62.3758C21.1127 58.8491 19.4415 54.9752 18.4337 50.9087C18.1538 49.7766 17.9263 48.6335 17.7512 47.4794C17.741 47.4198 17.7081 47.3664 17.6592 47.3306C17.6104 47.2947 17.5495 47.2792 17.4894 47.2872C17.4292 47.2953 17.3746 47.3263 17.337 47.3737C17.2994 47.4211 17.2817 47.4812 17.2877 47.5414C17.928 51.743 19.257 55.8112 21.2214 59.5833C21.7707 60.6362 22.3675 61.6625 23.0118 62.6624C23.1742 62.9147 23.5418 62.6265 23.3805 62.3758Z" fill="#E6E6E6"/>
<path d="M17.284 47.9987C18.9195 47.9987 20.2453 46.6775 20.2453 45.0477C20.2453 43.4179 18.9195 42.0967 17.284 42.0967C15.6484 42.0967 14.3226 43.4179 14.3226 45.0477C14.3226 46.6775 15.6484 47.9987 17.284 47.9987Z" fill="#E6E6E6"/>
<path d="M14.2894 64.987V59.1889C14.29 58.6125 14.5201 58.0598 14.9292 57.6522C15.3382 57.2446 15.8928 57.0153 16.4713 57.0146H30.0475C30.626 57.0153 31.1806 57.2446 31.5897 57.6522C31.9987 58.0598 32.2288 58.6125 32.2294 59.1889V64.987C32.2288 65.5635 31.9987 66.1161 31.5897 66.5238C31.1806 66.9314 30.626 67.1607 30.0475 67.1613H16.4713C15.8928 67.1607 15.3382 66.9314 14.9292 66.5238C14.5201 66.1161 14.29 65.5635 14.2894 64.987Z" fill="#F2F2F2"/>
<path d="M29.5627 28.0241H23.7443C23.1658 28.0235 22.6112 27.7942 22.2022 27.3866C21.7931 26.979 21.563 26.4263 21.5624 25.8499V2.17429C21.563 1.59783 21.7931 1.04517 22.2022 0.637551C22.6112 0.229934 23.1658 0.000649657 23.7443 0H29.5627C30.1411 0.000649657 30.6957 0.229934 31.1048 0.637551C31.5138 1.04517 31.7439 1.59783 31.7446 2.17429V25.8499C31.7439 26.4263 31.5138 26.979 31.1048 27.3866C30.6957 27.7942 30.1411 28.0235 29.5627 28.0241Z" fill="#F2F2F2"/>
<path d="M31.5021 4.58984H21.8048V6.52254H31.5021V4.58984Z" fill="#CCCCCC"/>
<path d="M31.5021 19.5684H21.8048V21.5011H31.5021V19.5684Z" fill="#CCCCCC"/>
<path d="M44.1086 28.0241H38.2902C37.7118 28.0235 37.1572 27.7942 36.7481 27.3866C36.3391 26.979 36.109 26.4263 36.1084 25.8499V2.17429C36.109 1.59783 36.3391 1.04517 36.7481 0.637551C37.1572 0.229934 37.7118 0.000649657 38.2902 0H44.1086C44.6871 0.000649657 45.2417 0.229934 45.6508 0.637551C46.0598 1.04517 46.2899 1.59783 46.2905 2.17429V25.8499C46.2899 26.4263 46.0598 26.979 45.6508 27.3866C45.2417 27.7942 44.6871 28.0235 44.1086 28.0241Z" fill="#F2F2F2"/>
<path d="M46.0481 4.58984H36.3508V6.52254H46.0481V4.58984Z" fill="#CCCCCC"/>
<path d="M46.0481 19.5684H36.3508V21.5011H46.0481V19.5684Z" fill="#CCCCCC"/>
<path d="M58.6546 28.0241H52.8362C52.2577 28.0235 51.7031 27.7942 51.2941 27.3866C50.8851 26.979 50.655 26.4263 50.6543 25.8499V2.17429C50.655 1.59783 50.8851 1.04517 51.2941 0.637551C51.7031 0.229934 52.2577 0.000649657 52.8362 0H58.6546C59.2331 0.000649657 59.7877 0.229934 60.1967 0.637551C60.6058 1.04517 60.8358 1.59783 60.8365 2.17429V25.8499C60.8358 26.4263 60.6058 26.979 60.1967 27.3866C59.7877 27.7942 59.2331 28.0235 58.6546 28.0241Z" fill="#F2F2F2"/>
<path d="M60.5941 4.58984H50.8968V6.52254H60.5941V4.58984Z" fill="#CCCCCC"/>
<path d="M60.5941 19.5684H50.8968V21.5011H60.5941V19.5684Z" fill="#CCCCCC"/>
<path d="M66.4124 67.1618H60.594C60.0156 67.1612 59.461 66.9319 59.0519 66.5243C58.6429 66.1167 58.4128 65.564 58.4122 64.9876V41.312C58.4128 40.7355 58.6429 40.1829 59.0519 39.7752C59.461 39.3676 60.0156 39.1383 60.594 39.1377H66.4124C66.9909 39.1383 67.5455 39.3676 67.9546 39.7752C68.3636 40.1829 68.5937 40.7355 68.5943 41.312V64.9876C68.5937 65.564 68.3636 66.1167 67.9546 66.5243C67.5455 66.9319 66.9909 67.1612 66.4124 67.1618Z" fill="#F2F2F2"/>
<path d="M68.3519 43.7275H58.6546V45.6602H68.3519V43.7275Z" fill="#CCCCCC"/>
<path d="M68.3519 58.7061H58.6546V60.6388H68.3519V58.7061Z" fill="#CCCCCC"/>
<path d="M80.9584 67.1618H75.14C74.5616 67.1612 74.007 66.9319 73.5979 66.5243C73.1889 66.1167 72.9588 65.564 72.9581 64.9876V41.312C72.9588 40.7355 73.1889 40.1829 73.5979 39.7752C74.007 39.3676 74.5616 39.1383 75.14 39.1377H80.9584C81.5369 39.1383 82.0915 39.3676 82.5006 39.7752C82.9096 40.1829 83.1397 40.7355 83.1403 41.312V64.9876C83.1397 65.564 82.9096 66.1167 82.5006 66.5243C82.0915 66.9319 81.5369 67.1612 80.9584 67.1618Z" fill="#F2F2F2"/>
<path d="M82.8979 43.7275H73.2006V45.6602H82.8979V43.7275Z" fill="#CCCCCC"/>
<path d="M82.8979 58.7061H73.2006V60.6388H82.8979V58.7061Z" fill="#CCCCCC"/>
<path d="M95.5044 67.1618H89.686C89.1075 67.1612 88.5529 66.9319 88.1439 66.5243C87.7349 66.1167 87.5048 65.564 87.5041 64.9876V41.312C87.5048 40.7355 87.7349 40.1829 88.1439 39.7752C88.5529 39.3676 89.1075 39.1383 89.686 39.1377H95.5044C96.0829 39.1383 96.6375 39.3676 97.0465 39.7752C97.4556 40.1829 97.6857 40.7355 97.6863 41.312V64.9876C97.6857 65.564 97.4556 66.1167 97.0465 66.5243C96.6375 66.9319 96.0829 67.1612 95.5044 67.1618Z" fill="#F2F2F2"/>
<path d="M97.4439 43.7275H87.7466V45.6602H97.4439V43.7275Z" fill="#CCCCCC"/>
<path d="M97.4439 58.7061H87.7466V60.6388H97.4439V58.7061Z" fill="#CCCCCC"/>
<path d="M28.1081 106.299H22.2897C21.7112 106.298 21.1566 106.069 20.7475 105.661C20.3385 105.253 20.1084 104.701 20.1078 104.124V80.4487C20.1084 79.8722 20.3385 79.3196 20.7475 78.912C21.1566 78.5043 21.7112 78.2751 22.2897 78.2744H28.1081C28.6865 78.2751 29.2411 78.5043 29.6502 78.912C30.0592 79.3196 30.2893 79.8722 30.29 80.4487V104.124C30.2893 104.701 30.0592 105.253 29.6502 105.661C29.2411 106.069 28.6865 106.298 28.1081 106.299Z" fill="#F2F2F2"/>
<path d="M30.0475 82.8643H20.3502V84.797H30.0475V82.8643Z" fill="#CCCCCC"/>
<path d="M30.0475 97.8428H20.3502V99.7755H30.0475V97.8428Z" fill="#CCCCCC"/>
<path d="M42.654 106.299H36.8356C36.2572 106.298 35.7026 106.069 35.2935 105.661C34.8845 105.253 34.6544 104.701 34.6537 104.124V80.4487C34.6544 79.8722 34.8845 79.3196 35.2935 78.912C35.7026 78.5043 36.2572 78.2751 36.8356 78.2744H42.654C43.2325 78.2751 43.7871 78.5043 44.1961 78.912C44.6052 79.3196 44.8353 79.8722 44.8359 80.4487V104.124C44.8353 104.701 44.6052 105.253 44.1961 105.661C43.7871 106.069 43.2325 106.298 42.654 106.299Z" fill="#F2F2F2"/>
<path d="M44.5935 82.8643H34.8962V84.797H44.5935V82.8643Z" fill="#CCCCCC"/>
<path d="M44.5935 97.8428H34.8962V99.7755H44.5935V97.8428Z" fill="#CCCCCC"/>
<path d="M57.2 106.299H51.3816C50.8031 106.298 50.2485 106.069 49.8395 105.661C49.4305 105.253 49.2004 104.701 49.1997 104.124V80.4487C49.2004 79.8722 49.4305 79.3196 49.8395 78.912C50.2485 78.5043 50.8031 78.2751 51.3816 78.2744H57.2C57.7785 78.2751 58.3331 78.5043 58.7421 78.912C59.1512 79.3196 59.3812 79.8722 59.3819 80.4487V104.124C59.3812 104.701 59.1512 105.253 58.7421 105.661C58.3331 106.069 57.7785 106.298 57.2 106.299Z" fill="#F2F2F2"/>
<path d="M59.1395 82.8643H49.4421V84.797H59.1395V82.8643Z" fill="#CCCCCC"/>
<path d="M59.1395 97.8428H49.4421V99.7755H59.1395V97.8428Z" fill="#CCCCCC"/>
<path d="M73.2006 28.0241H67.3822C66.8037 28.0235 66.2491 27.7942 65.8401 27.3866C65.431 26.979 65.2009 26.4263 65.2003 25.8499V2.17429C65.2009 1.59783 65.431 1.04517 65.8401 0.637551C66.2491 0.229934 66.8037 0.000649657 67.3822 0H73.2006C73.779 0.000649657 74.3336 0.229934 74.7427 0.637551C75.1517 1.04517 75.3818 1.59783 75.3825 2.17429V25.8499C75.3818 26.4263 75.1517 26.979 74.7427 27.3866C74.3336 27.7942 73.779 28.0235 73.2006 28.0241Z" fill="#F2F2F2"/>
<path d="M75.14 4.58984H65.4427V6.52254H75.14V4.58984Z" fill="#CCCCCC"/>
<path d="M75.14 19.5684H65.4427V21.5011H75.14V19.5684Z" fill="#CCCCCC"/>
<path d="M87.7465 28.0241H81.9281C81.3497 28.0235 80.7951 27.7942 80.386 27.3866C79.977 26.979 79.7469 26.4263 79.7462 25.8499V2.17429C79.7469 1.59783 79.977 1.04517 80.386 0.637551C80.7951 0.229934 81.3497 0.000649657 81.9281 0H87.7465C88.325 0.000649657 88.8796 0.229934 89.2887 0.637551C89.6977 1.04517 89.9278 1.59783 89.9284 2.17429V25.8499C89.9278 26.4263 89.6977 26.979 89.2887 27.3866C88.8796 27.7942 88.325 28.0235 87.7465 28.0241Z" fill="#F2F2F2"/>
<path d="M89.686 4.58984H79.9887V6.52254H89.686V4.58984Z" fill="#CCCCCC"/>
<path d="M89.686 19.5684H79.9887V21.5011H89.686V19.5684Z" fill="#CCCCCC"/>
<path d="M102.293 28.0241H96.4741C95.8957 28.0235 95.3411 27.7942 94.932 27.3866C94.523 26.979 94.2929 26.4263 94.2922 25.8499V2.17429C94.2929 1.59783 94.523 1.04517 94.932 0.637551C95.3411 0.229934 95.8957 0.000649657 96.4741 0H102.293C102.871 0.000649657 103.426 0.229934 103.835 0.637551C104.244 1.04517 104.474 1.59783 104.474 2.17429V25.8499C104.474 26.4263 104.244 26.979 103.835 27.3866C103.426 27.7942 102.871 28.0235 102.293 28.0241Z" fill="#F2F2F2"/>
<path d="M104.232 4.58984H94.5347V6.52254H104.232V4.58984Z" fill="#CCCCCC"/>
<path d="M104.232 19.5684H94.5347V21.5011H104.232V19.5684Z" fill="#CCCCCC"/>
<path d="M116.839 28.0241H111.02C110.442 28.0235 109.887 27.7942 109.478 27.3866C109.069 26.979 108.839 26.4263 108.838 25.8499V2.17429C108.839 1.59783 109.069 1.04517 109.478 0.637551C109.887 0.229934 110.442 0.000649657 111.02 0H116.839C117.417 0.000649657 117.972 0.229934 118.381 0.637551C118.79 1.04517 119.02 1.59783 119.02 2.17429V25.8499C119.02 26.4263 118.79 26.979 118.381 27.3866C117.972 27.7942 117.417 28.0235 116.839 28.0241Z" fill="#F2F2F2"/>
<path d="M118.778 4.58984H109.081V6.52254H118.778V4.58984Z" fill="#CCCCCC"/>
<path d="M118.778 19.5684H109.081V21.5011H118.778V19.5684Z" fill="#CCCCCC"/>
<path d="M138.629 28.7486H0.442065C0.313471 28.7486 0.19015 28.6977 0.0992201 28.6071C0.00829006 28.5164 -0.0428009 28.3935 -0.0428009 28.2654C-0.0428009 28.1373 0.00829006 28.0144 0.0992201 27.9237C0.19015 27.8331 0.313471 27.7822 0.442065 27.7822H138.629C138.757 27.7822 138.881 27.8331 138.972 27.9237C139.063 28.0144 139.114 28.1373 139.114 28.2654C139.114 28.3935 139.063 28.5164 138.972 28.6071C138.881 28.6977 138.757 28.7486 138.629 28.7486Z" fill="#CCCCCC"/>
<path d="M138.629 67.8863H0.442065C0.313471 67.8863 0.19015 67.8354 0.0992201 67.7447C0.00829006 67.6541 -0.0428009 67.5312 -0.0428009 67.4031C-0.0428009 67.275 0.00829006 67.152 0.0992201 67.0614C0.19015 66.9708 0.313471 66.9199 0.442065 66.9199H138.629C138.757 66.9199 138.881 66.9708 138.972 67.0614C139.063 67.152 139.114 67.275 139.114 67.4031C139.114 67.5312 139.063 67.6541 138.972 67.7447C138.881 67.8354 138.757 67.8863 138.629 67.8863Z" fill="#CCCCCC"/>
<path d="M138.629 107.023H0.442065C0.313471 107.023 0.19015 106.972 0.0992201 106.881C0.00829006 106.791 -0.0428009 106.668 -0.0428009 106.54C-0.0428009 106.412 0.00829006 106.289 0.0992201 106.198C0.19015 106.108 0.313471 106.057 0.442065 106.057H138.629C138.757 106.057 138.881 106.108 138.972 106.198C139.063 106.289 139.114 106.412 139.114 106.54C139.114 106.668 139.063 106.791 138.972 106.881C138.881 106.972 138.757 107.023 138.629 107.023Z" fill="#CCCCCC"/>
<path d="M130.445 182.873C130.445 179.137 116.335 176.108 98.929 176.108C81.5231 176.108 67.4127 179.137 67.4127 182.873C67.4127 185.267 73.2138 187.369 81.9587 188.572V225.634C81.9587 226.467 82.2908 227.266 82.8818 227.855C83.4728 228.444 84.2745 228.774 85.1103 228.774C85.9462 228.774 86.7478 228.444 87.3389 227.855C87.9299 227.266 88.262 226.467 88.262 225.634V189.239C91.594 189.496 95.1843 189.637 98.929 189.637C102.674 189.637 106.264 189.496 109.596 189.239V225.634C109.596 226.467 109.928 227.266 110.519 227.855C111.11 228.444 111.912 228.774 112.748 228.774C113.584 228.774 114.385 228.444 114.976 227.855C115.567 227.266 115.899 226.467 115.899 225.634V188.572C124.644 187.369 130.445 185.267 130.445 182.873Z" fill="#CCCCCC"/>
<path d="M124.381 222.698H130.326L133.153 199.85H124.38L124.381 222.698Z" fill="#A0616A"/>
<path d="M141.79 228.198L123.108 228.199L123.107 221.006L134.571 221.006C136.486 221.005 138.322 221.763 139.675 223.112C141.029 224.461 141.79 226.291 141.79 228.198L141.79 228.198Z" fill="#2F2E41"/>
<path d="M133.66 219.392L139.332 217.619L135.166 194.975L126.795 197.592L133.66 219.392Z" fill="#A0616A"/>
<path d="M151.923 219.446L134.098 225.021L131.936 218.158L142.875 214.737C144.701 214.166 146.681 214.341 148.377 215.224C150.074 216.107 151.35 217.626 151.923 219.446Z" fill="#2F2E41"/>
<path d="M129.684 208.876L118.809 180.431C116.37 181.002 95.9107 185.513 89.0585 178.243C86.7101 175.751 86.2521 172.141 87.6972 167.513L91.6961 162.505L91.8204 162.511C93.3324 162.591 128.881 164.576 131.318 175.262C133.373 184.27 137.125 201.066 138.226 205.999C138.338 206.51 138.261 207.044 138.011 207.504C137.761 207.964 137.353 208.319 136.862 208.504L132.489 210.138C132.245 210.229 131.987 210.276 131.726 210.276C131.284 210.276 130.852 210.142 130.487 209.892C130.122 209.642 129.842 209.288 129.684 208.876Z" fill="#2F2E41"/>
<path d="M123.38 212.258L112.506 183.813C110.066 184.384 89.6075 188.895 82.7552 181.625C80.4069 179.133 79.9489 175.523 81.3939 170.894L85.3928 165.887L85.5171 165.893C87.0291 165.973 122.578 167.958 125.015 178.644C127.07 187.652 130.822 204.448 131.923 209.381C132.035 209.892 131.958 210.426 131.708 210.886C131.457 211.346 131.049 211.7 130.558 211.886L126.185 213.52C125.942 213.611 125.683 213.658 125.423 213.658C124.98 213.658 124.548 213.524 124.183 213.274C123.819 213.024 123.539 212.67 123.38 212.258Z" fill="#2F2E41"/>
<path d="M138.076 144.072C137.915 144.286 137.771 144.512 137.647 144.749L113.733 147.259L110.29 142.556L102.489 146.806L109.25 158.219L138.578 150.767C139.318 151.486 140.26 151.963 141.279 152.135C142.298 152.308 143.345 152.167 144.282 151.732C145.218 151.297 146 150.588 146.522 149.699C147.044 148.81 147.283 147.784 147.206 146.758C147.128 145.731 146.739 144.751 146.09 143.95C145.441 143.149 144.563 142.564 143.572 142.272C142.58 141.98 141.524 141.996 140.542 142.318C139.56 142.639 138.7 143.251 138.076 144.072V144.072Z" fill="#A0616A"/>
<path d="M81.2401 172.396C80.9128 172.161 80.6572 171.841 80.5016 171.47C80.346 171.099 80.2964 170.692 80.3583 170.295C81.7074 161.432 80.1552 148.736 78.6154 139.646C78.3002 137.802 78.4228 135.91 78.9735 134.121C79.5242 132.332 80.4876 130.697 81.7865 129.346C83.0854 127.995 84.6838 126.966 86.4536 126.342C88.2234 125.717 90.1153 125.514 91.9779 125.749C93.5985 125.963 95.2038 126.278 96.7844 126.693C99.4097 127.352 101.732 128.882 103.369 131.03C105.007 133.179 105.862 135.819 105.794 138.516C105.564 147.287 107.351 158.232 108.13 162.53C108.184 162.825 108.175 163.128 108.106 163.42C108.036 163.712 107.907 163.986 107.726 164.226C107.549 164.464 107.324 164.662 107.065 164.807C106.807 164.953 106.521 165.043 106.225 165.072C97.5907 165.95 88.2793 170.146 83.4974 172.569C83.1901 172.727 82.8495 172.81 82.5036 172.811C82.049 172.81 81.6066 172.664 81.2401 172.396Z" fill="#68AE29"/>
<path d="M104.548 149.537C104.281 149.432 104.038 149.276 103.832 149.077C103.626 148.878 103.462 148.641 103.349 148.378L98.5332 137.293C98.2416 136.623 98.0854 135.903 98.0733 135.173C98.0613 134.443 98.1938 133.718 98.4632 133.039C98.7325 132.36 99.1335 131.741 99.6432 131.216C100.153 130.692 100.761 130.273 101.434 129.983C102.106 129.693 102.829 129.537 103.562 129.526C104.294 129.515 105.022 129.647 105.703 129.916C106.384 130.185 107.005 130.585 107.531 131.094C108.057 131.602 108.477 132.209 108.767 132.879L113.583 143.964C113.812 144.493 113.821 145.092 113.608 145.628C113.395 146.163 112.978 146.593 112.447 146.823L106.218 149.51C105.955 149.625 105.672 149.686 105.386 149.69C105.099 149.695 104.814 149.643 104.548 149.537H104.548Z" fill="#68AE29"/>
<path d="M115.287 143.105C115.126 143.319 114.983 143.545 114.858 143.782L90.9441 146.293L87.5018 141.589L79.7 145.839L86.4612 157.252L115.789 149.8C116.529 150.519 117.471 150.996 118.49 151.169C119.509 151.341 120.556 151.2 121.493 150.765C122.429 150.33 123.211 149.621 123.733 148.732C124.255 147.844 124.494 146.818 124.417 145.791C124.34 144.764 123.951 143.785 123.302 142.983C122.653 142.182 121.774 141.597 120.783 141.305C119.792 141.014 118.735 141.03 117.753 141.351C116.772 141.673 115.911 142.284 115.287 143.105V143.105Z" fill="#A0616A"/>
<path d="M81.7593 150.02C81.4924 149.916 81.249 149.759 81.0431 149.561C80.8373 149.362 80.673 149.124 80.5599 148.862L75.7445 137.776C75.4529 137.107 75.2967 136.386 75.2847 135.656C75.2726 134.926 75.4051 134.201 75.6745 133.522C75.9438 132.843 76.3448 132.224 76.8545 131.7C77.3642 131.175 77.9726 130.756 78.6449 130.466C79.3173 130.176 80.0404 130.021 80.7729 130.009C81.5054 129.998 82.233 130.131 82.9141 130.4C83.5952 130.669 84.2164 131.069 84.7422 131.577C85.2681 132.085 85.6882 132.692 85.9787 133.362L90.7942 144.448C91.0233 144.977 91.0324 145.575 90.8195 146.111C90.6066 146.647 90.1891 147.077 89.6586 147.306L83.4291 149.994C83.1664 150.108 82.8835 150.169 82.5969 150.174C82.3102 150.178 82.0256 150.126 81.7593 150.02H81.7593Z" fill="#68AE29"/>
<path d="M91.0918 121.979C97.6688 121.979 103.001 116.666 103.001 110.111C103.001 103.557 97.6688 98.2441 91.0918 98.2441C84.5147 98.2441 79.183 103.557 79.183 110.111C79.183 116.666 84.5147 121.979 91.0918 121.979Z" fill="#A0616A"/>
<path d="M82.5772 118.256C82.5261 118.107 82.5099 117.949 82.5299 117.792C82.5498 117.636 82.6053 117.487 82.6922 117.355C82.7791 117.224 82.895 117.114 83.0311 117.034C83.1672 116.954 83.3198 116.906 83.4773 116.894C83.7999 116.911 84.1155 116.994 84.4052 117.136C84.6949 117.279 84.9526 117.478 85.1628 117.723C85.5938 118.218 86.0955 118.647 86.6519 118.997C87.228 119.286 88.0093 119.245 88.3377 118.693C88.6461 118.175 88.4348 117.481 88.2481 116.88C87.773 115.349 87.5072 113.761 87.4578 112.159C87.404 110.371 87.6571 108.505 88.6504 107.111C89.9323 105.311 92.2246 104.628 94.3939 104.677C96.5632 104.727 98.6973 105.394 100.846 105.816C101.588 105.962 102.46 106.036 102.956 105.463C103.483 104.854 103.29 103.868 103.065 103.046C102.483 100.911 101.865 98.7044 100.512 96.9806C99.0496 95.1895 96.96 94.0171 94.6645 93.6998C92.4607 93.4278 90.2236 93.6809 88.1371 94.4383C84.7376 95.506 81.7463 97.5826 79.5633 100.39C77.3129 103.376 76.3404 107.129 76.8586 110.827C77.3649 114.048 79.0778 116.958 81.6519 118.971L82.5772 118.256Z" fill="#2F2E41"/>
<path d="M37.1067 146.825C37.7057 140.397 39.3602 134.109 42.0041 128.215C42.7409 126.574 43.552 124.97 44.4372 123.402C44.4816 123.32 44.4923 123.224 44.467 123.134C44.4417 123.045 44.3825 122.968 44.3018 122.921C44.221 122.874 44.1251 122.86 44.0343 122.882C43.9435 122.904 43.8648 122.961 43.8149 123.04C40.5957 128.751 38.3405 134.951 37.1393 141.392C36.8052 143.19 36.5541 145.001 36.386 146.825C36.3432 147.285 37.0642 147.283 37.1067 146.825Z" fill="#3F3D56"/>
<path d="M46.1829 124.554C48.7039 124.554 50.7476 122.517 50.7476 120.005C50.7476 117.493 48.7039 115.456 46.1829 115.456C43.6618 115.456 41.6181 117.493 41.6181 120.005C41.6181 122.517 43.6618 124.554 46.1829 124.554Z" fill="#68AE29"/>
<path d="M37.5736 146.946C37.9622 142.775 39.0356 138.696 40.7508 134.872C41.2288 133.808 41.755 132.767 42.3293 131.75C42.3581 131.697 42.365 131.635 42.3486 131.576C42.3322 131.518 42.2938 131.469 42.2414 131.438C42.189 131.408 42.1268 131.399 42.0679 131.413C42.009 131.427 41.9579 131.464 41.9255 131.515C39.8371 135.22 38.374 139.242 37.5948 143.421C37.378 144.588 37.2151 145.763 37.106 146.946C37.0783 147.244 37.5461 147.242 37.5736 146.946Z" fill="#3F3D56"/>
<path d="M43.4618 132.498C45.0973 132.498 46.4231 131.177 46.4231 129.547C46.4231 127.917 45.0973 126.596 43.4618 126.596C41.8263 126.596 40.5004 127.917 40.5004 129.547C40.5004 131.177 41.8263 132.498 43.4618 132.498Z" fill="#68AE29"/>
<path d="M36.9835 146.668C34.7157 143.141 33.0445 139.267 32.0367 135.201C31.7568 134.069 31.5293 132.925 31.3542 131.771C31.344 131.712 31.3111 131.658 31.2622 131.623C31.2134 131.587 31.1525 131.571 31.0923 131.579C31.0322 131.587 30.9776 131.618 30.94 131.666C30.9023 131.713 30.8847 131.773 30.8907 131.833C31.531 136.035 32.86 140.103 34.8244 143.875C35.3737 144.928 35.9705 145.955 36.6148 146.954C36.7772 147.207 37.1448 146.919 36.9835 146.668Z" fill="#3F3D56"/>
<path d="M30.887 132.291C32.5225 132.291 33.8483 130.969 33.8483 129.34C33.8483 127.71 32.5225 126.389 30.887 126.389C29.2514 126.389 27.9256 127.71 27.9256 129.34C27.9256 130.969 29.2514 132.291 30.887 132.291Z" fill="#68AE29"/>
<path d="M27.8923 149.278V143.48C27.893 142.903 28.1231 142.351 28.5321 141.943C28.9412 141.536 29.4958 141.306 30.0742 141.306H43.6505C44.229 141.306 44.7836 141.536 45.1926 141.943C45.6017 142.351 45.8317 142.903 45.8324 143.48V149.278C45.8317 149.854 45.6017 150.407 45.1926 150.815C44.7836 151.222 44.229 151.452 43.6505 151.452H30.0742C29.4958 151.452 28.9412 151.222 28.5321 150.815C28.1231 150.407 27.893 149.854 27.8923 149.278Z" fill="#CCCCCC"/>
<path d="M149.598 147.602H111.293C110.356 147.602 109.596 148.359 109.596 149.293C109.596 150.227 110.356 150.984 111.293 150.984H149.598C150.535 150.984 151.295 150.227 151.295 149.293C151.295 148.359 150.535 147.602 149.598 147.602Z" fill="#CCCCCC"/>
<path d="M175.295 150.984H132.142C131.307 150.983 130.506 150.652 129.915 150.063C129.324 149.474 128.992 148.676 128.991 147.844V124.168C128.992 123.335 129.324 122.537 129.915 121.948C130.506 121.359 131.307 121.028 132.142 121.027H175.295C176.131 121.028 176.932 121.359 177.523 121.948C178.114 122.537 178.446 123.335 178.447 124.168V147.844C178.446 148.676 178.114 149.474 177.523 150.063C176.932 150.652 176.131 150.983 175.295 150.984Z" fill="#CCCCCC"/>
<path d="M153.719 138.905C155.326 138.905 156.628 137.607 156.628 136.006C156.628 134.404 155.326 133.106 153.719 133.106C152.112 133.106 150.81 134.404 150.81 136.006C150.81 137.607 152.112 138.905 153.719 138.905Z" fill="white"/>
<path d="M285.118 182.873C285.118 179.137 271.007 176.108 253.601 176.108C236.195 176.108 222.085 179.137 222.085 182.873C222.085 185.267 227.886 187.369 236.631 188.572V225.634C236.631 226.467 236.963 227.266 237.554 227.855C238.145 228.444 238.947 228.774 239.783 228.774C240.618 228.774 241.42 228.444 242.011 227.855C242.602 227.266 242.934 226.467 242.934 225.634V189.239C246.266 189.496 249.857 189.637 253.601 189.637C257.346 189.637 260.936 189.496 264.268 189.239V225.634C264.268 226.467 264.6 227.266 265.191 227.855C265.782 228.444 266.584 228.774 267.42 228.774C268.256 228.774 269.057 228.444 269.648 227.855C270.24 227.266 270.572 226.467 270.572 225.634V188.572C279.316 187.369 285.118 185.267 285.118 182.873Z" fill="#CCCCCC"/>
<path d="M257.086 120.958C264.584 120.958 270.662 114.901 270.662 107.429C270.662 99.9575 264.584 93.9004 257.086 93.9004C249.588 93.9004 243.51 99.9575 243.51 107.429C243.51 114.901 249.588 120.958 257.086 120.958Z" fill="#2F2E41"/>
<path d="M223.301 223.181H217.356L214.528 200.333H223.301L223.301 223.181Z" fill="#FFB8B8"/>
<path d="M213.11 221.488H224.574V228.681H205.892C205.892 227.737 206.079 226.801 206.441 225.929C206.804 225.056 207.336 224.263 208.006 223.595C208.676 222.927 209.472 222.397 210.348 222.036C211.224 221.674 212.162 221.488 213.11 221.488Z" fill="#2F2E41"/>
<path d="M214.021 219.876L208.35 218.102L212.516 195.458L220.886 198.075L214.021 219.876Z" fill="#FFB8B8"/>
<path d="M204.807 215.22L215.745 218.641L213.584 225.504L195.759 219.929C196.043 219.028 196.502 218.191 197.11 217.467C197.718 216.743 198.464 216.145 199.304 215.707C200.144 215.27 201.063 215.002 202.007 214.918C202.951 214.835 203.903 214.937 204.807 215.22Z" fill="#2F2E41"/>
<path d="M215.955 210.759C215.695 210.759 215.437 210.713 215.193 210.621L210.82 208.987C210.329 208.802 209.921 208.447 209.671 207.987C209.42 207.528 209.344 206.994 209.455 206.483C210.556 201.549 214.309 184.754 216.363 175.745C218.8 165.06 254.349 163.074 255.861 162.995L255.986 162.988L259.985 167.996C261.43 172.624 260.972 176.235 258.623 178.726C251.771 185.997 231.312 181.485 228.872 180.914L217.998 209.359C217.84 209.771 217.56 210.126 217.195 210.376C216.83 210.625 216.398 210.759 215.955 210.759Z" fill="#2F2E41"/>
<path d="M222.258 214.141C221.998 214.141 221.74 214.094 221.496 214.003L217.123 212.369C216.632 212.184 216.224 211.829 215.974 211.369C215.723 210.91 215.647 210.375 215.759 209.864C216.86 204.931 220.612 188.136 222.667 179.127C225.104 168.442 260.652 166.456 262.164 166.377L262.289 166.37L266.288 171.378C267.733 176.006 267.275 179.616 264.926 182.108C258.074 189.378 237.615 184.867 235.176 184.296L224.301 212.741C224.143 213.153 223.863 213.507 223.498 213.757C223.133 214.007 222.701 214.141 222.258 214.141Z" fill="#2F2E41"/>
<path d="M209.606 144.554C209.767 144.768 209.91 144.995 210.035 145.231L233.949 147.742L237.391 143.039L245.193 147.288L238.432 158.701L209.103 151.249C208.364 151.968 207.421 152.446 206.403 152.618C205.384 152.79 204.337 152.65 203.4 152.214C202.463 151.779 201.682 151.07 201.16 150.181C200.637 149.293 200.399 148.267 200.476 147.24C200.553 146.213 200.942 145.234 201.591 144.433C202.24 143.631 203.119 143.046 204.11 142.754C205.101 142.463 206.158 142.479 207.14 142.8C208.121 143.122 208.982 143.733 209.606 144.554Z" fill="#FFB8B8"/>
<path d="M265.178 173.295C264.832 173.293 264.492 173.211 264.184 173.052C259.402 170.63 250.091 166.433 241.456 165.555C241.161 165.526 240.875 165.436 240.616 165.291C240.358 165.145 240.133 164.947 239.955 164.71C239.775 164.47 239.646 164.195 239.576 163.904C239.506 163.612 239.498 163.309 239.551 163.013C240.33 158.715 242.118 147.771 241.887 138.999C241.82 136.302 242.675 133.662 244.312 131.514C245.95 129.365 248.272 127.836 250.897 127.177C252.478 126.761 254.083 126.446 255.704 126.233C257.566 125.998 259.458 126.2 261.228 126.825C262.998 127.45 264.596 128.479 265.895 129.829C267.194 131.18 268.157 132.816 268.708 134.604C269.259 136.393 269.381 138.285 269.066 140.13C267.526 149.22 265.974 161.916 267.323 170.779C267.385 171.176 267.336 171.582 267.18 171.953C267.024 172.324 266.769 172.645 266.442 172.88C266.075 173.148 265.633 173.293 265.178 173.295Z" fill="#68AE29"/>
<path d="M242.33 150.174C242.032 150.173 241.737 150.112 241.464 149.994L235.234 147.306C234.704 147.077 234.286 146.647 234.073 146.111C233.861 145.575 233.87 144.977 234.099 144.448L238.914 133.362C239.205 132.692 239.625 132.085 240.151 131.577C240.676 131.069 241.298 130.669 241.979 130.4C242.66 130.131 243.387 129.998 244.12 130.009C244.852 130.021 245.576 130.176 246.248 130.466C246.92 130.756 247.529 131.175 248.038 131.7C248.548 132.224 248.949 132.843 249.218 133.522C249.488 134.201 249.62 134.926 249.608 135.656C249.596 136.386 249.44 137.107 249.148 137.777L244.333 148.862C244.164 149.251 243.884 149.582 243.528 149.816C243.172 150.049 242.756 150.173 242.33 150.174Z" fill="#68AE29"/>
<path d="M256.59 122.461C263.167 122.461 268.499 117.148 268.499 110.594C268.499 104.04 263.167 98.7266 256.59 98.7266C250.013 98.7266 244.681 104.04 244.681 110.594C244.681 117.148 250.013 122.461 256.59 122.461Z" fill="#FFB8B8"/>
<path d="M244.467 104.764C250.108 108.195 256.467 110.283 263.05 110.865L261.091 108.527C262.517 109.052 264.018 109.349 265.538 109.406C267.055 109.383 268.645 108.801 269.507 107.555C269.891 106.936 270.119 106.233 270.172 105.507C270.225 104.781 270.101 104.053 269.81 103.385C269.213 102.053 268.284 100.896 267.111 100.022C265.032 98.3837 262.579 97.2828 259.969 96.8181C257.36 96.3534 254.676 96.5392 252.156 97.359C250.427 97.8737 248.879 98.8633 247.689 100.214C246.56 101.602 244.386 102.839 244.965 104.53L244.467 104.764Z" fill="#2F2E41"/>
<path d="M258.592 95.1865C254.836 91.3909 250.291 88.4619 245.276 86.6057C242.057 85.4174 238.554 84.6832 235.189 85.358C231.823 86.0329 228.641 88.3528 227.702 91.6431C226.934 94.3336 227.727 97.2304 228.919 99.7631C230.11 102.296 231.7 104.644 232.664 107.272C233.647 109.952 233.943 112.835 233.524 115.658C233.105 118.482 231.986 121.156 230.267 123.439C228.548 125.722 226.284 127.541 223.681 128.731C221.077 129.921 218.217 130.444 215.36 130.252C218.666 130.694 221.714 132.243 224.946 133.067C228.178 133.891 231.992 133.835 234.394 131.528C236.935 129.087 236.986 125.117 236.863 121.602L236.315 105.926C236.222 103.261 236.143 100.51 237.107 98.0231C238.071 95.5357 240.363 93.3577 243.039 93.3803C245.067 93.3975 246.862 94.6217 248.488 95.829C250.115 97.0364 251.836 98.3245 253.856 98.5041C255.876 98.6837 258.183 97.194 258.031 95.1786" fill="#2F2E41"/>
<path d="M203.237 135.814L230.657 136.459L234.63 165.67L209.307 166.237L203.237 135.814Z" fill="#E6E6E6"/>
<path d="M232.395 143.588C232.555 143.802 232.699 144.029 232.824 144.265L256.737 146.776L260.18 142.073L267.982 146.322L261.22 157.735L231.892 150.284C231.152 151.002 230.21 151.48 229.191 151.652C228.173 151.825 227.125 151.684 226.189 151.248C225.252 150.813 224.471 150.104 223.948 149.216C223.426 148.327 223.188 147.301 223.265 146.274C223.342 145.247 223.731 144.268 224.38 143.467C225.029 142.665 225.908 142.08 226.899 141.789C227.89 141.497 228.947 141.513 229.928 141.834C230.91 142.156 231.77 142.768 232.395 143.588V143.588Z" fill="#FFB8B8"/>
<path d="M265.119 150.657C264.821 150.657 264.526 150.596 264.252 150.477L258.023 147.79C257.492 147.56 257.075 147.13 256.862 146.594C256.649 146.058 256.658 145.46 256.887 144.931L261.703 133.846C261.993 133.176 262.414 132.569 262.939 132.061C263.465 131.552 264.086 131.152 264.767 130.883C265.449 130.614 266.176 130.481 266.909 130.493C267.641 130.504 268.364 130.659 269.037 130.949C269.709 131.239 270.317 131.659 270.827 132.183C271.337 132.707 271.738 133.327 272.007 134.006C272.277 134.685 272.409 135.41 272.397 136.14C272.385 136.87 272.229 137.59 271.937 138.26L267.122 149.345C266.952 149.734 266.672 150.066 266.317 150.299C265.961 150.532 265.545 150.657 265.119 150.657Z" fill="#68AE29"/>
<path d="M208.751 150.5H15.7745C14.9386 150.5 14.137 150.831 13.546 151.42C12.9549 152.009 12.6229 152.808 12.6229 153.641C12.6229 154.474 12.9549 155.272 13.546 155.861C14.137 156.45 14.9386 156.781 15.7745 156.781H21.3505V225.151C21.3505 225.983 21.6825 226.782 22.2736 227.371C22.8646 227.96 23.6662 228.291 24.5021 228.291C25.338 228.291 26.1396 227.96 26.7306 227.371C27.3217 226.782 27.6537 225.983 27.6537 225.151V162.816L62.9864 226.633C63.4053 227.352 64.0935 227.877 64.9 228.092C65.7065 228.306 66.5655 228.193 67.2885 227.777C68.0114 227.361 68.5392 226.676 68.7561 225.873C68.9729 225.07 68.8611 224.213 68.4452 223.492L31.5102 156.781H200.266V156.822L163.354 223.492C162.936 224.214 162.822 225.071 163.039 225.875C163.255 226.68 163.783 227.366 164.507 227.782C165.231 228.199 166.091 228.312 166.899 228.096C167.706 227.881 168.394 227.354 168.812 226.633L200.266 169.822V225.151C200.266 225.983 200.598 226.782 201.189 227.371C201.78 227.96 202.582 228.291 203.418 228.291C204.253 228.291 205.055 227.96 205.646 227.371C206.237 226.782 206.569 225.983 206.569 225.151V158.437L207.486 156.781H208.751C209.587 156.781 210.389 156.45 210.98 155.861C211.571 155.272 211.903 154.474 211.903 153.641C211.903 152.808 211.571 152.009 210.98 151.42C210.389 150.831 209.587 150.5 208.751 150.5Z" fill="#3F3D56"/>
<path d="M327.987 229H-29.9868C-30.1396 229 -30.286 228.939 -30.3939 228.831C-30.5018 228.723 -30.5624 228.577 -30.5624 228.425C-30.5624 228.273 -30.5018 228.127 -30.3939 228.019C-30.286 227.911 -30.1396 227.85 -29.9868 227.85H327.987C328.14 227.85 328.287 227.91 328.395 228.018C328.503 228.126 328.564 228.272 328.564 228.425C328.564 228.578 328.503 228.724 328.395 228.832C328.287 228.94 328.14 229 327.987 229Z" fill="#3F3D56"/>
</g>
<defs>
<clipPath id="clip0">
<rect width="298" height="229" fill="white"/>
</clipPath>
</defs>
</svg>
