<svg width="306" height="230" viewBox="0 0 306 230" fill="none" xmlns="http://www.w3.org/2000/svg">
<g clip-path="url(#clip0)">
<path opacity="0.4" d="M258.262 88.4258C262.311 88.4258 265.594 85.1429 265.594 81.0933C265.594 77.0436 262.311 73.7607 258.262 73.7607C254.212 73.7607 250.929 77.0436 250.929 81.0933C250.929 85.1429 254.212 88.4258 258.262 88.4258Z" fill="#68AE29"/>
<path opacity="0.4" d="M103.669 48.0851C109.442 48.0851 114.122 43.4053 114.122 37.6324C114.122 31.8595 109.442 27.1797 103.669 27.1797C97.8969 27.1797 93.2173 31.8595 93.2173 37.6324C93.2173 43.4053 97.8969 48.0851 103.669 48.0851Z" fill="#68AE29"/>
<path opacity="0.4" d="M84.3251 49.957C88.3745 49.957 91.6572 46.6741 91.6572 42.6245C91.6572 38.5749 88.3745 35.292 84.3251 35.292C80.2756 35.292 76.9929 38.5749 76.9929 42.6245C76.9929 46.6741 80.2756 49.957 84.3251 49.957Z" fill="#68AE29"/>
<path d="M264.402 163.089C258.609 169.432 258.399 178.672 258.399 178.672C258.399 178.672 267.581 177.628 273.375 171.285C279.168 164.942 279.379 155.702 279.379 155.702C279.379 155.702 270.196 156.746 264.402 163.089Z" fill="#3F3D56"/>
<path d="M267.675 164.915C265.922 173.325 258.553 178.903 258.553 178.903C258.553 178.903 254.026 170.845 255.779 162.435C257.532 154.025 264.901 148.447 264.901 148.447C264.901 148.447 269.428 156.505 267.675 164.915Z" fill="#68AE29"/>
<path d="M260.151 78.1348V178.39L226.734 205.997H55.7754V100.898L105.658 78.1348H260.151Z" fill="#3F3D56"/>
<path opacity="0.1" d="M260.151 78.1348V78.5365L248.154 86.5667L226.734 100.898H55.7754L105.658 78.1348H260.151Z" fill="black"/>
<path opacity="0.1" d="M260.151 78.1348V178.39L226.734 205.997L226.976 100.656L248.155 86.5667L259.957 78.1348H260.151Z" fill="black"/>
<path d="M215.111 91.9381H110.986L118.735 87.5791H218.501L215.111 91.9381Z" fill="#2F2E41"/>
<path d="M304.978 211.449C304.978 211.449 306.996 219.891 305.161 220.258C303.326 220.625 294.334 220.507 292.132 220.874C289.93 221.241 285.342 220.625 285.342 218.973C285.342 217.322 290.114 216.221 290.114 216.221C290.114 216.221 296.903 212.55 297.087 212.367C297.27 212.183 304.978 211.449 304.978 211.449Z" fill="#2F2E41"/>
<path d="M303.326 161.716C303.326 161.716 302.776 167.956 302.776 168.507C302.776 169.057 303.326 177.682 302.776 178.049C302.225 178.416 303.143 180.986 303.143 181.903C303.143 182.821 306.079 198.053 305.345 203.925C304.611 209.798 306.446 209.247 305.895 209.798C305.345 210.348 305.345 210.348 305.345 211.45C305.345 212.551 299.473 213.468 299.473 213.468L293.05 172.911L296.353 160.799L303.326 161.716Z" fill="#575A89"/>
<path opacity="0.1" d="M303.326 161.716C303.326 161.716 302.776 167.956 302.776 168.507C302.776 169.057 303.326 177.682 302.776 178.049C302.225 178.416 303.143 180.986 303.143 181.903C303.143 182.821 306.079 198.053 305.345 203.925C304.611 209.798 306.446 209.247 305.895 209.798C305.345 210.348 305.345 210.348 305.345 211.45C305.345 212.551 299.473 213.468 299.473 213.468L293.05 172.911L296.353 160.799L303.326 161.716Z" fill="black"/>
<path d="M302.409 214.019C302.409 214.019 304.244 220.626 302.409 220.993C300.574 221.36 291.582 220.572 289.38 220.939C287.177 221.307 282.59 221.36 282.59 219.708C282.59 218.057 287.361 216.956 287.361 216.956C287.361 216.956 294.151 213.285 294.334 213.102C294.518 212.918 302.409 214.019 302.409 214.019Z" fill="#2F2E41"/>
<path d="M304.978 154.376C304.978 154.376 307.18 159.698 304.611 162.451C302.042 165.203 299.105 170.709 299.105 171.076C299.105 171.443 304.244 207.963 303.51 210.349C302.776 212.734 302.959 214.202 303.143 214.57C303.326 214.937 301.308 216.955 299.105 216.955C296.903 216.955 293.6 215.304 293.233 213.835C292.866 212.367 293.784 199.705 293.6 197.319C293.417 194.933 292.499 191.446 292.132 190.712C291.765 189.978 289.747 189.244 289.38 187.042C289.013 184.84 286.076 156.762 286.994 155.844C287.911 154.927 304.978 154.376 304.978 154.376Z" fill="#575A89"/>
<path d="M291.031 112.167C294.477 112.167 297.27 109.373 297.27 105.927C297.27 102.481 294.477 99.6875 291.031 99.6875C287.585 99.6875 284.792 102.481 284.792 105.927C284.792 109.373 287.585 112.167 291.031 112.167Z" fill="#FFB9B9"/>
<path d="M294.885 109.048C294.885 109.048 293.6 115.838 294.518 116.572C295.435 117.306 287.544 118.407 287.544 118.407C287.544 118.407 286.627 109.415 286.443 108.497C286.26 107.579 294.885 109.048 294.885 109.048Z" fill="#FFB9B9"/>
<path d="M286.443 117.856C286.443 117.856 288.645 111.433 297.637 113.268C297.637 113.268 299.289 113.819 298.738 114.369C298.188 114.92 297.637 114.92 298.371 115.47C299.105 116.021 300.023 115.47 299.472 116.021C298.922 116.572 304.427 119.875 304.06 126.114C303.693 132.354 305.345 141.163 304.06 142.631C302.776 144.099 304.978 150.522 304.611 151.807C304.244 153.091 306.813 154.743 305.712 155.294C304.611 155.844 284.792 159.147 284.241 155.294C283.691 151.44 284.058 154.193 283.507 153.275C282.957 152.357 282.773 150.706 283.14 148.687C283.507 146.668 284.425 141.713 284.058 139.878C283.691 138.043 284.058 122.628 285.159 120.792C286.26 118.957 286.443 117.856 286.443 117.856Z" fill="#68AE29"/>
<path d="M290.297 162.635C290.297 162.635 293.05 173.095 289.563 173.095C286.076 173.095 286.26 162.268 286.26 162.268L290.297 162.635Z" fill="#FFB9B9"/>
<path d="M288.279 105.927C288.279 106.459 289.049 106.797 290.244 106.874H290.246C290.752 106.903 291.26 106.893 291.765 106.845C292.529 106.775 292.844 107.493 292.975 108.439C293.187 110.001 292.89 112.191 293.233 112.534C293.707 113.007 297.158 112.532 298.237 111.458C298.405 111.308 298.517 111.105 298.555 110.882C298.668 110.227 298.992 109.626 299.476 109.17C300.113 108.474 301.019 107.704 302.042 106.478C303.877 104.275 302.042 104.092 301.491 102.44C300.941 100.789 300.023 100.238 300.023 99.137C300.023 98.0359 295.802 97.1183 292.316 97.3018C288.829 97.4853 289.563 101.89 289.563 101.89C289.563 101.89 289.356 102.422 289.108 103.108C288.773 103.97 288.501 104.854 288.293 105.755C288.285 105.812 288.28 105.869 288.279 105.927Z" fill="#2F2E41"/>
<path opacity="0.1" d="M289.013 120.608C289.013 120.608 295.252 120.241 295.802 129.417C296.353 138.593 296.169 147.218 296.169 147.402C296.169 147.585 293.6 165.02 291.215 165.02C288.829 165.02 286.994 164.653 286.443 163.735C285.893 162.817 287.911 149.604 287.911 149.604C287.911 149.604 288.829 135.657 287.361 131.252C285.893 126.848 285.709 121.159 289.013 120.608Z" fill="black"/>
<path d="M288.095 119.691C288.095 119.691 294.334 119.324 294.885 128.5C295.435 137.676 295.252 146.301 295.252 146.485C295.252 146.668 292.683 164.103 290.297 164.103C287.911 164.103 286.076 163.736 285.526 162.818C284.975 161.9 286.994 148.687 286.994 148.687C286.994 148.687 287.911 134.74 286.443 130.335C284.975 125.931 284.792 120.242 288.095 119.691Z" fill="#68AE29"/>
<path d="M184.634 29.9853C184.634 29.9853 181.915 22.2808 179.951 24.6979C177.987 27.115 182.972 31.1939 182.972 31.1939L184.634 29.9853Z" fill="#A0616A"/>
<path d="M197.474 22.4326L195.839 23.0389C195.839 23.0389 195.057 26.5115 195.359 27.1158C195.662 27.72 195.813 27.2668 195.359 28.4754C194.906 29.6839 193.547 32.8564 193.396 33.3096C193.245 33.7628 184.634 30.4393 184.634 28.7775C184.634 28.7775 182.821 30.8925 181.915 31.3457C181.915 31.3457 191.885 38.597 193.245 39.5034C194.604 40.4098 195.359 39.9566 196.568 38.8991C197.776 37.8416 202.912 29.0797 202.912 29.0797L197.474 22.4326Z" fill="#575A89"/>
<path d="M193.094 76.0616C193.094 76.0616 193.245 77.7233 193.547 77.8744C193.849 78.0255 196.115 81.8022 193.547 82.5575C190.979 83.3128 189.468 83.0107 188.864 83.3129C188.26 83.615 177.685 84.2193 177.534 82.5575C177.383 80.8958 182.67 80.5936 182.67 80.5936C182.67 80.5936 187.504 77.4212 188.26 75.7594C189.015 74.0977 193.094 76.0616 193.094 76.0616Z" fill="#2F2E41"/>
<path d="M223.759 79.083C223.759 79.083 227.385 85.2768 226.478 86.0322C225.572 86.7875 216.745 89.5402 215.451 89.6579C213.789 89.8089 212.58 88.4493 213.94 87.6939C215.3 86.9386 218.17 83.7661 218.17 82.7087V79.9894L223.759 79.083Z" fill="#2F2E41"/>
<path d="M227.233 38.5967C227.233 38.5967 230.406 42.5245 225.421 48.8694L217.112 59.4442C217.112 59.4442 222.248 67.6019 222.399 71.8318C222.551 76.0618 223.608 75.1553 223.91 76.9682C224.212 78.781 225.572 77.8746 224.514 79.2342C223.457 80.5938 219.529 81.8024 218.321 80.7449C217.905 80.3646 217.58 79.8955 217.371 79.3723C217.162 78.8492 217.073 78.2856 217.112 77.7235C217.112 77.1192 214.997 73.6447 214.846 72.5872C214.695 71.5297 209.106 62.9188 209.106 62.9188C209.106 62.9188 207.293 57.7824 209.408 54.9121C211.523 52.0418 212.921 47.9709 212.921 47.9709C212.921 47.9709 206.689 55.5164 202.308 57.3292C202.308 57.3292 200.647 57.6314 200.949 58.3867C201.251 59.1421 200.949 59.5953 200.496 60.3506C200.042 61.106 196.87 69.8679 195.813 72.134C194.755 74.4 195.208 75.7596 194 76.515C192.791 77.2703 187.353 76.666 187.353 75.9107C187.353 75.1554 188.108 73.1915 188.562 72.134C189.015 71.0765 192.64 58.8399 192.338 56.725C192.036 54.61 192.489 51.7397 194.755 50.5311C197.021 49.3226 208.502 39.5031 209.106 39.5031C209.71 39.5031 227.233 38.5967 227.233 38.5967Z" fill="#2F2E41"/>
<path d="M196.87 14.8792C200.374 14.8792 203.215 12.0385 203.215 8.53435C203.215 5.03016 200.374 2.18945 196.87 2.18945C193.366 2.18945 190.525 5.03016 190.525 8.53435C190.525 12.0385 193.366 14.8792 196.87 14.8792Z" fill="#A0616A"/>
<path d="M202.006 9.1377C202.006 9.1377 203.97 12.6123 206.387 13.0655C208.804 13.5187 200.042 20.4679 200.042 20.4679C200.042 20.4679 197.927 13.8208 196.115 13.5187C194.302 13.2166 202.006 9.1377 202.006 9.1377Z" fill="#A0616A"/>
<path d="M195.813 23.3386C195.813 25.3025 201.704 30.8921 201.704 30.8921L207.293 35.5752C207.293 35.5752 207.444 37.237 208.049 37.388C208.653 37.5391 209.408 37.5391 208.804 38.4455C208.2 39.3519 206.689 41.3158 208.049 41.618C208.458 41.6803 208.872 41.7196 209.286 41.7358C209.648 41.7569 210.074 41.7766 210.553 41.7947C211.671 41.834 213.07 41.8597 214.585 41.8491C215.016 41.8476 215.454 41.8425 215.899 41.834C221.611 41.7207 228.227 41.0635 227.687 38.8987C226.78 35.2731 227.384 34.0645 225.421 32.1006C223.457 30.1367 220.285 23.3386 220.285 23.3386C220.285 23.3386 213.94 12.6127 208.653 12.6127L207.555 12.3242C207.044 12.1898 206.505 12.2192 206.012 12.4085C205.519 12.5977 205.099 12.9371 204.81 13.3787C203.749 14.9936 202.077 17.4197 201.1 18.2023C199.589 19.4108 199.353 18.5437 199.353 18.5437C199.353 18.5437 195.813 21.3747 195.813 23.3386Z" fill="#575A89"/>
<path d="M209.257 46.3018C209.257 46.3018 204.876 53.0999 207.595 54.3084C210.315 55.517 211.825 47.2082 211.825 47.2082L209.257 46.3018Z" fill="#A0616A"/>
<path d="M201.018 7.81737C200.774 7.78665 200.697 7.47939 200.656 7.23739C200.437 5.94148 199.471 4.71261 198.174 4.50342C197.678 4.43743 197.173 4.47808 196.694 4.62263C196.008 4.81093 195.364 5.12799 194.796 5.55692C194.519 5.81086 194.197 6.01263 193.848 6.15254C193.61 6.22246 192.599 6.67189 192.363 6.74793C191.843 6.91512 191.414 7.45867 190.879 7.35105C190.367 7.24809 190.173 6.63021 190.091 6.11479C189.903 4.94056 190.575 3.1885 191.244 2.20495C191.751 1.45857 192.609 1.02902 193.467 0.749565C194.472 0.444454 195.505 0.239236 196.55 0.13689C197.961 -0.0297861 199.423 -0.118217 200.775 0.31802C202.128 0.754257 203.359 1.82139 203.612 3.21988C203.664 3.5112 203.674 3.80959 203.739 4.09852C203.896 4.80335 204.362 5.39581 204.634 6.06476C204.83 6.55606 204.921 7.08303 204.902 7.6117C204.882 8.14038 204.751 8.65901 204.519 9.13417C204.142 9.89172 203.487 10.6197 203.628 11.4538L202.463 10.5346C202.294 10.4389 202.164 10.2883 202.093 10.1079C202.022 9.92759 202.015 9.7284 202.073 9.54363L202.243 8.08391C202.302 7.81945 202.275 7.54322 202.167 7.2947C201.649 6.38958 201.424 7.8686 201.018 7.81737Z" fill="#2F2E41"/>
<path opacity="0.1" d="M211.976 35.8779L210.553 41.7952C211.988 41.8466 213.887 41.8738 215.899 41.8345C216.407 40.3117 216.892 38.724 217.263 37.2375C218.623 31.799 216.357 23.4902 215.149 19.5624C213.94 15.6346 210.919 14.5771 210.919 14.5771C209.68 15.0128 208.51 15.6232 207.444 16.39C205.481 17.7496 211.976 35.8779 211.976 35.8779Z" fill="black"/>
<path opacity="0.1" d="M210.768 35.5748L209.286 41.7354C209.648 41.7565 210.074 41.7761 210.553 41.7943C211.671 41.8336 213.07 41.8592 214.585 41.8487C215.13 40.2307 215.658 38.5236 216.055 36.9344C217.414 31.4959 215.149 23.1871 213.94 19.2593C212.732 15.3315 210.088 19.637 210.088 19.637C210.088 19.637 211.145 17.0688 209.182 18.4284C207.218 19.7881 210.768 35.5748 210.768 35.5748Z" fill="black"/>
<path d="M210.315 14.2744C210.315 14.2744 213.336 15.3319 214.544 19.2597C215.753 23.1875 218.019 31.4963 216.659 36.9347C215.3 42.3732 212.429 49.1713 212.429 49.1713C212.429 49.1713 209.559 47.0564 208.502 47.5096L211.372 35.5751C211.372 35.5751 204.876 17.4469 206.84 16.0872C207.906 15.3205 209.076 14.71 210.315 14.2744Z" fill="#575A89"/>
<path d="M212.566 90.0496L170.772 2.95312L100.89 36.49L126.591 90.0496H212.566Z" fill="#F2F2F2"/>
<path d="M156.629 37.1405L119.512 54.9531L120.618 57.2571L157.735 39.4445L156.629 37.1405Z" fill="#3F3D56"/>
<path d="M166.457 57.62L129.34 75.4326L130.445 77.7366L167.562 59.9239L166.457 57.62Z" fill="#3F3D56"/>
<path d="M173.207 25.0903L163.992 29.5127L168.414 38.7284L177.629 34.306L173.207 25.0903Z" fill="#3F3D56"/>
<path d="M183.034 45.5697L173.819 49.9922L178.241 59.2079L187.457 54.7855L183.034 45.5697Z" fill="#3F3D56"/>
<path d="M173.842 18.707L170.047 29.5056L164.931 27.7073L164.231 29.6993L171.332 32.1951L175.834 19.4072L173.842 18.707Z" fill="#57B894"/>
<path d="M183.669 39.1865L179.874 49.9851L174.758 48.1871L174.058 50.1788L181.159 52.6746L185.661 39.8866L183.669 39.1865Z" fill="#57B894"/>
<path d="M4.03337 190.292L22.9155 186.259L18.8821 167.376L-6.84478e-06 171.409L4.03337 190.292Z" fill="#F2F2F2"/>
<path d="M22.3904 162.33C22.3904 162.33 15.455 167.284 17.7668 169.266C20.0786 171.248 24.7022 163.321 24.7022 163.321L22.3904 162.33Z" fill="#FFB9B9"/>
<path d="M54.4256 169.926C54.4256 169.926 53.1046 186.439 52.7743 188.751C52.4441 191.063 52.1138 211.871 51.4533 214.183C50.7928 216.495 50.1322 222.109 50.1322 222.109H46.1691C46.1691 222.109 46.4994 211.871 45.5086 207.907C44.5178 203.944 44.8481 193.045 44.8481 193.045C44.8481 193.045 42.8665 173.559 43.8573 170.917C44.8481 168.274 54.4256 169.926 54.4256 169.926Z" fill="#FFB9B9"/>
<path d="M49.1415 221.119C49.1415 221.119 50.7928 222.11 50.7928 222.771C50.7928 223.431 50.4625 225.082 50.7928 225.743C51.123 226.404 53.4348 229.046 52.1138 229.706C50.7928 230.367 44.8481 229.706 44.8481 229.706C44.8481 229.706 45.1783 225.082 45.5086 224.752C45.8389 224.422 45.1783 221.119 45.1783 221.119H49.1415Z" fill="#2F2E41"/>
<path d="M29.1792 169.521C29.1792 169.521 28.7596 186.083 28.8454 188.416C28.9311 190.75 27.0756 211.477 27.4898 213.846C27.904 216.214 27.9716 221.867 27.9716 221.867L31.9128 222.283C31.9128 222.283 32.659 212.067 34.0603 208.229C35.4616 204.392 36.2772 193.518 36.2772 193.518C36.2772 193.518 40.2931 174.348 39.5851 171.616C38.8771 168.885 29.1792 169.521 29.1792 169.521Z" fill="#FFB9B9"/>
<path d="M29.0609 220.986C29.0609 220.986 27.3147 221.798 27.2454 222.455C27.176 223.112 27.3311 224.789 26.9334 225.411C26.5356 226.034 23.9592 228.418 25.2036 229.214C26.448 230.01 32.4292 229.977 32.4292 229.977C32.4292 229.977 32.5861 225.344 32.2923 224.981C31.9986 224.617 33.0021 221.402 33.0021 221.402L29.0609 220.986Z" fill="#2F2E41"/>
<path d="M49.6966 145C49.6966 145 52.2865 145.489 53.2577 153.8C54.2289 162.111 57.7901 183.133 54.8764 184.6C51.9628 186.067 43.2218 189 42.8981 188.022C42.5743 187.044 41.9269 184.6 41.9269 184.6C41.9269 184.6 42.8981 189 41.6031 189C40.3082 189 27.6824 186.067 28.0061 184.6C28.3299 183.133 28.9773 172.378 28.9773 172.378C28.9773 172.378 30.9198 154.289 32.8622 151.356C33.4243 150.541 33.8608 149.549 34.1405 148.45C34.4203 147.352 34.5365 146.174 34.4809 145H49.6966Z" fill="#2F2E41"/>
<path d="M54.7558 142.513C54.7558 142.513 50.4625 141.522 49.8019 142.843C49.1414 144.164 51.4532 146.146 52.444 146.146C53.4348 146.146 55.0861 145.155 55.0861 145.155L54.7558 142.513Z" fill="#FFB9B9"/>
<path d="M45.8388 114.44C49.122 114.44 51.7835 111.778 51.7835 108.495C51.7835 105.211 49.122 102.55 45.8388 102.55C42.5557 102.55 39.8942 105.211 39.8942 108.495C39.8942 111.778 42.5557 114.44 45.8388 114.44Z" fill="#FFB9B9"/>
<path d="M44.8481 112.789C44.8481 112.789 43.8573 117.413 44.5178 117.413C45.1783 117.413 39.5639 120.385 39.5639 120.385L35.2706 119.725L33.9495 117.743C33.9495 117.743 40.885 113.119 40.885 110.477C40.885 107.835 44.8481 112.789 44.8481 112.789Z" fill="#FFB9B9"/>
<path d="M41.8757 117.412C41.8757 117.412 42.8665 116.752 43.1968 116.752H45.8388C46.1691 116.752 50.4625 117.743 50.4625 117.743L53.1046 132.605C53.1046 132.605 48.4809 140.202 51.7835 146.146C51.7835 146.146 50.7927 145.486 46.1691 145.816C41.5455 146.146 33.289 147.137 32.9587 147.137C32.6284 147.137 32.6284 144.495 32.9587 143.835C33.289 143.174 32.6284 143.504 32.6284 141.853C32.6284 140.202 31.6377 137.229 31.6377 137.229L27.014 120.385C27.014 120.385 32.9587 117.082 33.9495 117.412C34.9403 117.743 37.9126 118.734 38.5731 118.403C39.2336 118.073 41.8757 117.412 41.8757 117.412Z" fill="#68AE29"/>
<path d="M49.4717 118.073L50.4625 117.742C50.4625 117.742 52.4441 117.412 54.7559 119.394C57.0677 121.375 65.6545 127.32 65.6545 127.32C65.6545 127.32 68.9571 129.963 67.9663 132.935C66.9755 135.907 65.3242 143.174 60.3703 142.843C60.3703 142.843 57.398 146.807 55.7467 146.146C54.0954 145.485 52.7743 142.843 53.7651 142.513C54.7559 142.183 57.398 138.88 57.398 138.88L54.0954 132.605H53.1046L49.4718 130.623L49.4717 118.073Z" fill="#68AE29"/>
<path d="M29.6561 120.055L27.014 120.385C27.014 120.385 24.7022 121.376 25.0324 125.669C25.3627 129.963 23.0509 149.449 24.0417 151.761C24.0417 151.761 20.7391 162.99 21.3996 163.321C22.0601 163.651 26.0232 165.633 25.693 164.312C25.3627 162.99 29.3258 153.743 29.3258 153.743C29.3258 153.743 33.9495 148.789 31.9679 141.853V136.238L29.6561 120.055Z" fill="#68AE29"/>
<path d="M50.7864 114.243L46.5879 115.157L46.0484 113.09L46.2558 115.23L39.4828 116.705L39.1849 115.564L39.2994 116.745L34.9614 117.69L34.0334 108.782C33.0793 105.126 36.5613 101.23 40.2168 100.276L41.8384 99.8526C44.5232 99.1518 49.4035 99.789 50.1042 102.474C48.8778 107.155 46.787 112.287 50.7864 114.243Z" fill="#2F2E41"/>
</g>
<defs>
<clipPath id="clip0">
<rect width="306" height="230" fill="white"/>
</clipPath>
</defs>
</svg>
