<svg width="306" height="229" viewBox="0 0 306 229" fill="none" xmlns="http://www.w3.org/2000/svg">
<g clip-path="url(#clip0)">
<path d="M2.75675 0C2.02588 0.00085881 1.32519 0.291295 0.808384 0.807596C0.291578 1.3239 0.000858726 2.02391 0 2.75406V226.246C0.000858726 226.976 0.291578 227.676 0.808384 228.192C1.32519 228.709 2.02588 228.999 2.75675 229H303.243C303.974 228.999 304.675 228.709 305.192 228.192C305.708 227.676 305.999 226.976 306 226.246V2.75406C305.999 2.02391 305.708 1.3239 305.192 0.807596C304.675 0.291295 303.974 0.00085881 303.243 0H2.75675Z" fill="#E6E6E6"/>
<path d="M8.82159 8.81348V220.188H297.178V8.81348H8.82159Z" fill="white"/>
<path d="M220.247 20.2422C220.087 20.2424 219.934 20.3059 219.821 20.4187C219.708 20.5316 219.644 20.6846 219.644 20.8442V69.6959C219.644 69.8555 219.708 70.0085 219.821 70.1213C219.934 70.2342 220.087 70.2977 220.247 70.2979H285.928C286.088 70.2977 286.241 70.2342 286.354 70.1213C286.467 70.0085 286.531 69.8555 286.531 69.6959V20.8442C286.531 20.6846 286.467 20.5316 286.354 20.4187C286.241 20.3059 286.088 20.2424 285.928 20.2422H220.247Z" fill="#E6E6E6"/>
<path d="M221.572 22.1689V68.3719H284.602V22.1689H221.572Z" fill="white"/>
<path d="M220.247 89.0674C220.087 89.0676 219.934 89.131 219.821 89.2439C219.708 89.3568 219.644 89.5098 219.644 89.6694V138.521C219.644 138.681 219.708 138.834 219.821 138.947C219.934 139.059 220.087 139.123 220.247 139.123H285.928C286.088 139.123 286.241 139.059 286.354 138.947C286.467 138.834 286.531 138.681 286.531 138.521V89.6694C286.531 89.5098 286.467 89.3568 286.354 89.2439C286.241 89.131 286.088 89.0676 285.928 89.0674H220.247Z" fill="#E6E6E6"/>
<path d="M221.572 90.9932V137.196H284.602V90.9932H221.572Z" fill="white"/>
<path d="M220.247 157.893C220.087 157.893 219.934 157.956 219.821 158.069C219.708 158.182 219.644 158.335 219.644 158.495V207.346C219.644 207.506 219.708 207.659 219.821 207.772C219.934 207.885 220.087 207.948 220.247 207.948H285.928C286.088 207.948 286.241 207.885 286.354 207.772C286.467 207.659 286.531 207.506 286.531 207.346V158.495C286.531 158.335 286.467 158.182 286.354 158.069C286.241 157.956 286.088 157.893 285.928 157.893H220.247Z" fill="#E6E6E6"/>
<path d="M221.572 159.818V206.021H284.602V159.818H221.572Z" fill="white"/>
<path d="M272.776 59.4647L260.218 50.6876H260.213L260.213 50.6891C259.785 49.3464 259.491 47.9652 259.333 46.5651C260.513 45.4923 261.35 44.0965 261.74 42.5517C261.79 42.5817 261.839 42.6146 261.885 42.6503C262.986 43.5296 265.076 34.1874 261.555 32.4289C261.555 32.4289 258.915 26.7137 253.854 28.0326C248.794 29.3515 245.933 31.3298 245.713 33.3082C245.493 35.2865 245.823 38.254 245.823 38.254C245.823 38.254 246.128 36.0101 247.728 35.217C246.937 36.1186 246.355 37.1844 246.026 38.3375C245.696 39.4907 245.626 40.7025 245.821 41.8858C246.017 43.0691 246.472 44.1944 247.155 45.1807C247.838 46.1671 248.731 46.99 249.77 47.5901C249.388 48.9003 248.878 50.5986 248.449 51.8454H248.449L244.611 53.7523L236.251 59.0275C236.251 59.0275 232.952 63.2015 231.85 68.0395C231.765 68.4201 231.676 68.8006 231.583 69.1812H276.18C274.693 64.6914 272.776 59.4647 272.776 59.4647Z" fill="#E6E6E6"/>
<path d="M270.016 200.798C270.875 200.251 271.784 199.787 272.732 199.414L263.387 188.329L257.211 186.75C256.127 186.142 255.271 185.197 254.775 184.058L258.082 184.025L259.342 176.896C260.108 174.823 259.796 173.005 258.082 171.507C258.39 169.588 257.519 168.176 255.209 167.378C252.911 165.386 249.515 164.908 247.476 168.099C246.654 168.05 245.844 168.32 245.215 168.853C244.587 169.387 244.189 170.142 244.105 170.961C242.233 173.135 244.312 181.115 244.928 184.155L248.214 184.123C248.025 185.247 247.472 186.279 246.642 187.062L246.597 187.017L240.028 190.228L230.683 201.021C231.605 201.382 232.491 201.83 233.329 202.357L232.365 206.021H239.051L240.831 203.438H240.92C240.92 203.394 240.924 203.349 240.924 203.304L242.172 201.491C242.2 202.956 242.16 204.466 242.058 206.021H262.856C262.823 204.73 262.815 203.446 262.815 202.171L265.141 205.543C265.316 205.288 265.502 205.049 265.688 204.806L266.146 206.021H271.471L270.195 201.171C270.159 201.037 270.098 200.911 270.016 200.798Z" fill="#E6E6E6"/>
<path d="M265.368 123.524L256.538 119.917C256.327 119.083 256.149 118.297 256.035 117.605C256.942 117.09 257.736 116.399 258.371 115.572C259.006 114.745 259.468 113.8 259.731 112.791L260.663 111.791C261.158 111.275 261.537 110.659 261.775 109.985C262.013 109.31 262.103 108.593 262.041 107.88C261.879 106.511 261.185 105.261 260.108 104.399C260.469 102.119 259.435 100.443 256.696 99.4959C253.973 97.1356 249.94 96.5648 247.525 100.35C246.548 100.292 245.587 100.613 244.841 101.246C244.095 101.878 243.622 102.774 243.521 103.747C241.536 106.055 243.582 110.658 244.559 114.184C244.633 114.445 244.783 114.678 244.99 114.854C245.197 115.03 245.452 115.14 245.722 115.172C246.371 116.131 247.225 116.934 248.222 117.524C248.248 118.542 248.127 119.559 247.866 120.544L247.874 120.236L241.288 123.196L241.284 123.115L240.648 123.483L239.639 123.937C239.647 123.977 239.655 124.014 239.663 124.054L239.57 124.107C238.152 124.928 237.065 126.218 236.498 127.755L233.115 137.649H263.411C263.719 136.618 264.098 135.608 264.546 134.629L264.554 134.52L267.245 137.649H275.463L265.368 123.524Z" fill="#E6E6E6"/>
<path d="M115.456 205.573C125.253 205.573 133.196 197.638 133.196 187.851C133.196 178.063 125.253 170.129 115.456 170.129C105.659 170.129 97.7172 178.063 97.7172 187.851C97.7172 197.638 105.659 205.573 115.456 205.573Z" fill="#E6E6E6"/>
<path d="M115.456 201.438C122.967 201.438 129.056 195.355 129.056 187.851C129.056 180.348 122.967 174.265 115.456 174.265C107.945 174.265 101.856 180.348 101.856 187.851C101.856 195.355 107.945 201.438 115.456 201.438Z" fill="white"/>
<path d="M122.27 195.272C122.188 195.272 122.108 195.256 122.032 195.225C121.957 195.194 121.889 195.148 121.832 195.091L108.204 181.476C108.092 181.359 108.031 181.203 108.033 181.042C108.035 180.88 108.1 180.726 108.215 180.612C108.329 180.498 108.483 180.433 108.645 180.431C108.806 180.429 108.962 180.49 109.079 180.601L122.707 194.216C122.794 194.302 122.853 194.412 122.877 194.532C122.901 194.652 122.888 194.777 122.842 194.89C122.795 195.003 122.715 195.1 122.614 195.168C122.512 195.236 122.392 195.272 122.27 195.272H122.27Z" fill="#68AE29"/>
<path d="M115.146 190.16L113.141 188.157C113.129 188.146 113.114 188.138 113.098 188.136C113.082 188.133 113.066 188.136 113.052 188.143C113.037 188.15 113.025 188.162 113.018 188.176C113.01 188.19 113.007 188.207 113.009 188.223C113.09 188.742 113.335 189.223 113.707 189.595C114.079 189.967 114.56 190.211 115.08 190.291C115.096 190.294 115.113 190.291 115.127 190.283C115.141 190.276 115.153 190.264 115.16 190.249C115.167 190.235 115.17 190.219 115.167 190.203C115.165 190.187 115.157 190.172 115.146 190.16L115.146 190.16Z" fill="#68AE29"/>
<path d="M115.765 185.53L117.773 187.536C117.785 187.547 117.8 187.555 117.816 187.558C117.832 187.56 117.848 187.558 117.863 187.551C117.877 187.543 117.889 187.532 117.897 187.517C117.905 187.503 117.907 187.487 117.905 187.471C117.824 186.95 117.58 186.469 117.207 186.097C116.834 185.724 116.353 185.48 115.832 185.399C115.816 185.397 115.799 185.4 115.785 185.407C115.77 185.414 115.758 185.426 115.751 185.441C115.744 185.455 115.741 185.472 115.744 185.488C115.746 185.504 115.754 185.519 115.765 185.53Z" fill="#68AE29"/>
<path d="M124.554 188.517C124.682 188.316 124.75 188.083 124.749 187.844C124.748 187.606 124.679 187.373 124.55 187.173C123.556 185.621 122.247 184.296 120.707 183.284C119.145 182.247 117.318 181.682 115.443 181.657C114.498 181.659 113.559 181.813 112.663 182.113C112.637 182.122 112.615 182.136 112.597 182.156C112.579 182.175 112.567 182.199 112.561 182.225C112.555 182.25 112.555 182.277 112.563 182.303C112.57 182.328 112.583 182.351 112.602 182.37L114.431 184.197C114.45 184.216 114.474 184.23 114.5 184.237C114.526 184.244 114.553 184.244 114.579 184.237C115.199 184.087 115.847 184.098 116.462 184.27C117.076 184.442 117.636 184.769 118.087 185.219C118.538 185.67 118.866 186.229 119.038 186.843C119.21 187.457 119.221 188.105 119.07 188.724C119.063 188.75 119.064 188.777 119.071 188.803C119.078 188.829 119.092 188.853 119.111 188.871L121.741 191.502C121.769 191.529 121.806 191.545 121.844 191.547C121.883 191.549 121.921 191.536 121.951 191.511C122.963 190.649 123.841 189.639 124.554 188.517Z" fill="#68AE29"/>
<path d="M115.456 191.559C114.893 191.559 114.338 191.431 113.831 191.186C113.325 190.94 112.882 190.583 112.534 190.141C112.186 189.699 111.943 189.185 111.824 188.635C111.704 188.086 111.711 187.517 111.843 186.971C111.85 186.945 111.85 186.917 111.842 186.892C111.835 186.866 111.822 186.842 111.803 186.823L109.215 184.237C109.187 184.209 109.151 184.193 109.112 184.192C109.073 184.19 109.035 184.203 109.005 184.228C108.011 185.089 107.131 186.073 106.386 187.157C106.245 187.357 106.168 187.595 106.164 187.84C106.159 188.085 106.228 188.325 106.361 188.531C107.338 190.084 108.635 191.411 110.166 192.424C111.729 193.466 113.564 194.026 115.443 194.034C116.398 194.032 117.347 193.881 118.255 193.588C118.281 193.58 118.304 193.565 118.322 193.546C118.34 193.526 118.353 193.503 118.359 193.477C118.365 193.451 118.365 193.424 118.357 193.398C118.35 193.373 118.337 193.35 118.318 193.331L116.48 191.495C116.461 191.476 116.437 191.462 116.412 191.455C116.386 191.448 116.358 191.448 116.332 191.455C116.045 191.524 115.751 191.559 115.456 191.559Z" fill="#68AE29"/>
<path d="M48.1518 205.573C57.9489 205.573 65.891 197.638 65.891 187.851C65.891 178.063 57.9489 170.129 48.1518 170.129C38.3547 170.129 30.4126 178.063 30.4126 187.851C30.4126 197.638 38.3547 205.573 48.1518 205.573Z" fill="#E6E6E6"/>
<path d="M48.1518 201.438C55.6629 201.438 61.7518 195.355 61.7518 187.851C61.7518 180.348 55.6629 174.265 48.1518 174.265C40.6407 174.265 34.5518 180.348 34.5518 187.851C34.5518 195.355 40.6407 201.438 48.1518 201.438Z" fill="white"/>
<path d="M53.3765 196.515C52.6207 196.515 51.5591 196.242 49.9695 195.354C47.9937 194.3 46.1895 192.951 44.6185 191.356C42.9925 189.809 41.6346 188.003 40.6002 186.012C39.1739 183.42 39.417 182.062 39.6888 181.481C40.0026 180.847 40.4959 180.318 41.1077 179.961C41.4585 179.731 41.8297 179.534 42.2166 179.373C42.2553 179.356 42.2913 179.34 42.3234 179.326C42.4515 179.253 42.5935 179.209 42.74 179.196C42.8865 179.182 43.0342 179.2 43.1732 179.248C43.4822 179.397 43.7572 179.608 43.9809 179.867C44.7861 180.77 45.4654 181.777 46.0003 182.862C46.2202 183.237 46.3554 183.656 46.3964 184.089C46.3643 184.517 46.1906 184.923 45.9027 185.242C45.852 185.311 45.8017 185.377 45.7529 185.441C45.4583 185.828 45.3936 185.94 45.4362 186.139C45.5225 186.54 46.1664 187.734 47.2245 188.789C48.2826 189.844 49.4433 190.447 49.8463 190.532C50.0546 190.577 50.1688 190.51 50.5684 190.205C50.6257 190.161 50.6845 190.116 50.7461 190.071C51.0663 189.769 51.4792 189.584 51.9177 189.547H51.92C52.3595 189.592 52.7821 189.74 53.1535 189.979C53.8503 190.331 55.442 191.279 56.14 191.982C56.4004 192.205 56.6119 192.479 56.7614 192.787C56.8093 192.926 56.8272 193.074 56.8138 193.221C56.8005 193.367 56.7562 193.51 56.6839 193.638C56.6696 193.67 56.6537 193.705 56.6371 193.744C56.4741 194.13 56.276 194.5 56.0451 194.85C55.6865 195.46 55.1563 195.952 54.5205 196.265C54.163 196.433 53.7719 196.519 53.3765 196.515Z" fill="#68AE29"/>
<path d="M183.283 205.573C193.08 205.573 201.022 197.638 201.022 187.851C201.022 178.063 193.08 170.129 183.283 170.129C173.486 170.129 165.543 178.063 165.543 187.851C165.543 197.638 173.486 205.573 183.283 205.573Z" fill="#E6E6E6"/>
<path d="M183.283 201.438C190.794 201.438 196.883 195.355 196.883 187.851C196.883 180.348 190.794 174.265 183.283 174.265C175.772 174.265 169.683 180.348 169.683 187.851C169.683 195.355 175.772 201.438 183.283 201.438Z" fill="white"/>
<path d="M185.76 195.896H180.805C180.641 195.896 180.483 195.831 180.367 195.715C180.251 195.599 180.185 195.441 180.185 195.277C180.185 195.113 180.251 194.956 180.367 194.839C180.483 194.723 180.641 194.658 180.805 194.658H185.76C185.925 194.658 186.082 194.723 186.199 194.839C186.315 194.956 186.38 195.113 186.38 195.277C186.38 195.441 186.315 195.599 186.199 195.715C186.082 195.831 185.925 195.896 185.76 195.896Z" fill="#68AE29"/>
<path d="M183.283 192.802C181.805 192.801 180.387 192.213 179.342 191.169C178.297 190.125 177.709 188.709 177.708 187.233V185.995C177.708 185.831 177.773 185.673 177.889 185.557C178.005 185.441 178.163 185.376 178.327 185.376C178.491 185.376 178.649 185.441 178.765 185.557C178.881 185.673 178.946 185.831 178.946 185.995V187.233C178.947 188.381 179.405 189.482 180.218 190.293C181.031 191.105 182.133 191.561 183.283 191.561C184.432 191.561 185.534 191.105 186.347 190.293C187.161 189.482 187.618 188.381 187.619 187.233V185.995C187.619 185.831 187.684 185.673 187.8 185.557C187.916 185.441 188.074 185.376 188.238 185.376C188.403 185.376 188.56 185.441 188.676 185.557C188.793 185.673 188.858 185.831 188.858 185.995V187.233C188.856 188.709 188.268 190.125 187.223 191.169C186.178 192.213 184.761 192.801 183.283 192.802Z" fill="#68AE29"/>
<path d="M183.283 195.896C183.201 195.896 183.121 195.88 183.046 195.849C182.97 195.818 182.902 195.773 182.845 195.715C182.787 195.658 182.741 195.59 182.71 195.514C182.679 195.439 182.663 195.359 182.663 195.278V192.183C182.663 192.019 182.728 191.862 182.845 191.746C182.961 191.63 183.118 191.564 183.283 191.564C183.447 191.564 183.605 191.63 183.721 191.746C183.837 191.862 183.902 192.019 183.902 192.183V195.278C183.902 195.359 183.886 195.439 183.855 195.514C183.824 195.59 183.778 195.658 183.721 195.715C183.663 195.773 183.595 195.818 183.52 195.849C183.445 195.88 183.364 195.896 183.283 195.896Z" fill="#68AE29"/>
<path d="M183.283 190.326C182.874 190.325 182.469 190.242 182.093 190.082C181.717 189.922 181.377 189.688 181.093 189.394C180.512 188.809 180.186 188.018 180.185 187.193V182.9C180.184 182.495 180.262 182.094 180.416 181.72C180.569 181.345 180.795 181.004 181.081 180.717C181.366 180.43 181.705 180.201 182.079 180.045C182.453 179.889 182.853 179.807 183.259 179.806C183.267 179.806 183.275 179.806 183.283 179.806C183.691 179.801 184.095 179.878 184.473 180.032C184.851 180.186 185.194 180.414 185.483 180.702C185.771 180.991 185.999 181.333 186.153 181.711C186.307 182.088 186.384 182.493 186.38 182.9V187.193C186.384 188.019 186.06 188.812 185.48 189.4C184.899 189.987 184.109 190.32 183.283 190.326Z" fill="#68AE29"/>
<path d="M24.9115 20.3389C24.4822 20.3394 24.0706 20.51 23.7671 20.8132C23.4635 21.1165 23.2927 21.5277 23.2922 21.9565V153.23C23.2927 153.659 23.4635 154.07 23.7671 154.373C24.0706 154.677 24.4822 154.847 24.9115 154.848H201.41C201.839 154.847 202.251 154.677 202.554 154.373C202.858 154.07 203.028 153.659 203.029 153.23V21.9565C203.028 21.5277 202.858 21.1165 202.554 20.8132C202.251 20.51 201.839 20.3394 201.41 20.3389H24.9115Z" fill="#E6E6E6"/>
<path d="M28.4738 25.5156V149.672H197.847V25.5156H28.4738Z" fill="white"/>
<path d="M145.425 149.671L145.73 148.478L143.082 137.521L142.824 136.445L142.629 135.641L142.94 135.537L158.582 130.33L158.782 133.222L159.916 149.671H145.425Z" fill="#FFB9B9"/>
<path d="M83.2389 137.521L80.5915 148.478L80.8964 149.671H66.4051L67.5393 133.222L67.7396 130.33L83.6921 135.641L83.2389 137.521Z" fill="#FFB9B9"/>
<path d="M126.233 93.5855L100.975 96.2417C103.628 89.4184 103.137 81.5878 100.975 73.2217H119.143C120.337 80.3613 122.734 87.2469 126.233 93.5855Z" fill="#FFB9B9"/>
<path d="M110.28 83.8463C117.867 83.8463 124.017 77.7021 124.017 70.1229C124.017 62.5436 117.867 56.3994 110.28 56.3994C102.694 56.3994 96.5434 62.5436 96.5434 70.1229C96.5434 77.7021 102.694 83.8463 110.28 83.8463Z" fill="#FFB9B9"/>
<path d="M149.72 98.8988C146.82 111.702 144.433 123.875 142.94 135.537C142.898 135.842 142.86 136.144 142.824 136.446C142.775 136.841 142.725 137.236 142.681 137.631C142.193 141.705 141.824 145.718 141.575 149.672H86.2898C86.3474 145.943 86.2239 142.13 85.9465 138.264C84.9936 125.005 82.1953 111.14 78.3754 98.0126L78.4029 98.0017L102.572 89.6616L102.747 89.6012C109.714 92.8138 116.651 92.962 123.533 88.0869C123.555 88.0732 123.574 88.0567 123.596 88.043L146.125 97.4063L146.133 97.4091L149.72 98.8988Z" fill="#68AE29"/>
<path d="M166.114 131.214L138.64 138.74L145.287 97.127L149.527 98.5388C151.082 99.0566 152.482 99.9546 153.601 101.151C154.72 102.348 155.522 103.805 155.933 105.39L166.114 131.214Z" fill="#68AE29"/>
<path d="M60.2072 131.214L87.6809 138.74L81.0341 97.127L76.7942 98.5388C75.2394 99.0566 73.8388 99.9546 72.72 101.151C71.6012 102.348 70.7996 103.805 70.3883 105.39L60.2072 131.214Z" fill="#68AE29"/>
<path d="M109.397 46.9081C107.061 47.0153 104.784 47.6848 102.762 48.8597C102.297 49.1301 102.512 50.1051 102.082 50.423C101.541 50.8235 100.366 50.5803 99.8868 51.0493C98.3396 52.5582 97.1485 54.3925 96.3998 56.4189C95.6512 58.4453 95.3638 60.6128 95.5587 62.764L96.3219 70.3442L98.1221 68.3773C101.35 64.8018 105.831 62.604 110.637 62.2394C110.841 62.2256 111.045 62.2147 111.25 62.2068L109.865 59.7854L112.272 62.1901C113.37 62.2022 114.466 62.2913 115.552 62.4568L113.71 59.2367L117.244 62.7673L117.244 62.7674C118.689 63.085 120.04 63.7372 121.187 64.6716C122.333 65.606 123.244 66.7965 123.846 68.147L124.239 69.0161L124.678 61.7846C124.722 59.7858 124.353 57.7995 123.596 55.9491C122.838 54.0987 121.707 52.4238 120.274 51.0285C118.841 49.6332 117.136 48.5474 115.265 47.8386C113.393 47.1297 111.396 46.813 109.397 46.9081Z" fill="#2F2E41"/>
<path d="M96.6839 72.4049C97.2905 72.4049 97.7823 71.238 97.7823 69.7986C97.7823 68.3592 97.2905 67.1924 96.6839 67.1924C96.0772 67.1924 95.5854 68.3592 95.5854 69.7986C95.5854 71.238 96.0772 72.4049 96.6839 72.4049Z" fill="#FFB9B9"/>
<path d="M124.145 71.5826C124.752 71.5826 125.244 70.4158 125.244 68.9764C125.244 67.537 124.752 66.3701 124.145 66.3701C123.538 66.3701 123.047 67.537 123.047 68.9764C123.047 70.4158 123.538 71.5826 124.145 71.5826Z" fill="#FFB9B9"/>
</g>
<defs>
<clipPath id="clip0">
<rect width="306" height="229" fill="white"/>
</clipPath>
</defs>
</svg>
