<svg width="334" height="230" viewBox="0 0 334 230" fill="none" xmlns="http://www.w3.org/2000/svg">
<path opacity="0.1" d="M200.843 165.801C207.307 165.357 215.327 160.074 221.563 157.737C228.943 154.978 236.353 152.324 243.792 149.775C269.69 140.896 295.865 133.33 322.318 127.077C324.786 126.492 327.259 125.921 329.735 125.364C325.878 115.32 319.901 106.671 312.402 100.28C312.594 98.0815 312.692 95.8722 312.695 93.6612C312.695 58.7192 289.521 30.3927 260.924 30.3927C252.119 30.3815 243.463 33.1197 235.798 38.3405C215.558 22.2969 189.14 12.5869 160.236 12.5869C119.164 12.5869 83.1082 32.1938 62.6776 61.7186L158.697 81.2655L217.588 93.2489C150.452 95.6632 83.1082 98.0633 16.1653 92.3959C7.32851 102.699 1.73543 116.38 0.341942 131.102C-1.05155 145.823 1.84105 160.671 8.52538 173.107C8.52538 174.373 8.56926 175.627 8.64823 176.871C10.3535 177.46 12.0002 178.031 13.4773 178.405C37.1907 184.441 61.0562 189.493 85.0738 193.56C67.375 206.71 45.8212 208.571 25.4052 214.14C35.2914 223.973 48.7169 230 63.5112 230H283.794C307.646 230 326.98 209.991 326.98 185.306C330.56 178.193 332.945 170.303 334 162.083C289.863 167.218 245.176 162.759 200.843 165.801Z" fill="#68AE29"/>
<path opacity="0.1" d="M334 151.076C334.023 140.903 332.02 130.873 328.158 121.832C324.296 112.79 318.69 105.002 311.811 99.1243C312.002 96.9269 312.099 94.7191 312.103 92.5097C312.103 57.5722 288.96 29.26 260.428 29.26C251.639 29.2486 242.998 31.9852 235.346 37.2032C215.143 21.1547 188.771 11.4424 159.92 11.4424C112.992 11.4424 72.5971 37.1503 54.6828 74.0155C53.6873 73.945 52.6859 73.9062 51.6757 73.9062C23.1403 73.9062 0.000100903 102.229 0.000100903 137.167C-0.0199001 149.507 2.93394 161.588 8.50176 171.938C8.50176 203.373 33.0813 228.855 63.3889 228.855H283.27C307.076 228.855 326.374 208.846 326.374 184.163C331.381 174.187 334.019 162.74 334 151.076Z" fill="#68AE29"/>
<path d="M294.504 112.776C294.001 112.39 293.412 112.131 292.787 112.022C292.129 111.871 291.456 111.775 290.788 111.67L282.123 110.418C281.248 110.256 280.356 110.208 279.469 110.277C279.024 110.314 278.591 110.439 278.194 110.644C277.798 110.85 277.446 111.133 277.16 111.476C276.902 111.795 276.76 112.193 276.759 112.604C276.807 113.017 276.941 113.416 277.153 113.774C277.237 113.941 277.309 114.114 277.368 114.292C277.451 114.691 277.554 115.085 277.677 115.473C277.716 115.557 277.766 115.635 277.825 115.706C277.827 115.725 277.827 115.746 277.825 115.765C277.73 116.252 278.036 116.759 277.899 117.228C277.78 117.63 277.389 117.873 277.143 118.208C276.978 118.446 276.887 118.726 276.881 119.015C276.875 119.304 276.953 119.589 277.107 119.833C277.371 120.242 277.85 120.52 277.987 120.989C278.167 121.606 277.681 122.202 277.248 122.678C276.452 123.554 275.716 124.483 275.045 125.459C274.856 125.699 274.735 125.985 274.693 126.287C274.654 126.9 275.242 127.44 275.14 128.049C275.059 128.529 274.591 128.821 274.186 129.107C272.69 130.094 271.49 131.68 271.371 133.474C270.987 130.62 269.806 127.932 267.964 125.719C267.46 125.113 266.908 124.503 266.7 123.735C266.623 123.428 266.609 123.101 266.503 122.804C266.151 121.87 265.032 121.469 264.543 120.609C264.191 120.002 264.191 119.223 263.754 118.691C263.318 118.159 262.632 118.039 262.255 117.524C262.067 117.176 261.907 116.813 261.776 116.439C261.619 116.134 261.396 115.867 261.125 115.656C261.073 115.615 261.019 115.576 260.963 115.54C261.022 115.488 261.069 115.423 261.101 115.352C261.133 115.28 261.15 115.203 261.15 115.124C261.15 114.712 260.742 114.44 260.386 114.236C259.929 113.975 259.482 113.693 259.045 113.4C259.521 113.178 259.934 112.84 260.245 112.417C260.636 111.786 260.798 111.039 260.703 110.302C260.679 109.707 260.457 109.138 260.073 108.684C259.851 108.448 259.573 108.279 259.341 108.057C258.739 107.468 258.535 106.597 258.285 105.794C257.954 104.736 257.437 103.626 256.473 103.066C256.008 102.794 255.466 102.667 255.012 102.382C254.558 102.096 254.178 101.557 254.336 101.039C254.442 100.686 254.769 100.443 254.991 100.144C255.256 99.7562 255.357 99.2798 255.273 98.8179C255.19 98.356 254.928 97.9458 254.544 97.6762C254.283 97.5105 253.963 97.366 253.91 97.0629C253.707 97.0099 253.522 96.9004 253.377 96.7471C253.233 96.5937 253.135 96.4026 253.094 96.1958C253.015 95.7813 253.015 95.3555 253.094 94.941C253.185 94.2854 253.276 93.6321 253.365 92.9812C253.52 93.0458 253.686 93.079 253.854 93.079C254.022 93.079 254.188 93.0458 254.343 92.9812C254.648 93.4762 255.002 93.9391 255.399 94.3629C256.471 95.6304 257.305 97.0812 257.863 98.6455C258.063 99.2095 258.267 99.8404 258.788 100.14C258.968 100.242 259.172 100.295 259.348 100.404C259.565 100.556 259.751 100.747 259.897 100.968C260.319 101.529 260.742 102.086 261.161 102.646L261.182 102.731C261.193 102.78 261.212 102.828 261.238 102.872C261.316 102.96 261.424 103.015 261.541 103.027C262.836 103.326 264.289 103.601 265.412 102.893C266.426 102.258 266.869 101.004 267.728 100.165C268.337 99.569 269.199 99.1073 269.371 98.2684C269.166 98.2049 268.964 98.1307 268.766 98.0463C268.942 97.8701 269.118 97.6656 269.357 97.433C269.705 97.092 270.019 96.7178 270.294 96.3156C270.591 95.8195 270.827 95.2893 270.997 94.7365C271.676 92.8002 272.356 90.8628 273.039 88.9241C273.363 88.0077 273.686 87.0842 274.095 86.1924C274.517 85.2266 275.017 84.2996 275.478 83.3514C276.668 80.8855 277.586 78.2972 278.216 75.6321C278.328 75.2685 278.365 74.8861 278.325 74.5077C278.227 73.8979 277.765 73.4186 277.326 72.985C276.883 72.5054 276.379 72.0869 275.826 71.7408C275.549 71.5679 275.24 71.4521 274.917 71.4001C274.594 71.348 274.265 71.3608 273.947 71.4376C273.046 71.702 272.479 72.6255 272.272 73.5525C272.064 74.4795 272.141 75.4348 272.053 76.3723C271.927 77.7294 271.462 79.0406 271.349 80.4012C271.29 81.1872 271.349 81.9838 271.254 82.7698C271.081 83.7985 270.724 84.7873 270.199 85.6884C269.057 87.8373 267.512 89.7451 265.648 91.3069C265.433 91.4867 265.211 91.6594 265 91.8532C265 91.7017 265.025 91.5466 265.046 91.395C264.893 91.435 264.743 91.488 264.599 91.5536C264.617 91.3756 264.599 91.1959 264.546 91.0249C264.265 90.1825 263.012 89.9675 262.787 89.111C262.749 88.8991 262.729 88.6846 262.727 88.4694C262.653 87.7187 262.142 87.0842 261.966 86.3546C261.805 85.6813 261.928 84.9446 261.615 84.3208C261.348 83.9307 261.033 83.5754 260.678 83.2633C260.255 82.7796 259.951 82.204 259.788 81.582C259.742 81.4093 259.7 81.2295 259.651 81.0568C259.704 80.6657 259.661 80.2674 259.524 79.8971C259.204 79.1005 258.377 78.5894 258.077 77.7823C257.845 77.1549 257.947 76.3723 257.507 75.8859C257.273 75.6535 256.987 75.4807 256.673 75.3819C255.062 74.7536 253.372 74.3538 251.651 74.194C250.687 74.1059 249.624 74.0566 248.934 73.3763C248.128 72.5867 248.089 71.1662 247.146 70.5564C246.315 70.0171 245.14 70.4154 244.496 71.1733C244.399 71.2847 244.31 71.4025 244.228 71.5258C244.111 71.0533 244.086 70.5626 244.154 70.0806C244.154 69.9607 244.179 69.8374 244.19 69.7281C245.779 69.208 247.131 68.1385 248.005 66.7109C248.005 66.7109 248.005 66.7109 248.005 66.732L248.047 66.8413C248.149 67.0986 248.311 67.3453 248.55 67.3735C248.709 67.3716 248.863 67.3157 248.987 67.2149C249.199 67.0671 249.395 66.897 249.571 66.7074C249.66 66.6087 249.744 66.5064 249.824 66.4007C249.986 66.1806 250.126 65.9443 250.24 65.6957C250.414 65.3217 250.533 64.9238 250.591 64.5149C250.655 64.1061 250.662 63.6866 250.732 63.2777C250.798 62.9612 250.884 62.6492 250.989 62.3437C251.024 62.2414 251.06 62.1392 251.091 62.037C251.123 61.9348 251.169 61.7973 251.204 61.6845C251.424 60.9596 251.543 60.2074 251.556 59.4498C251.556 59.3229 251.556 59.196 251.556 59.0691C251.543 58.5746 251.432 58.0877 251.229 57.6368C251.026 57.1859 250.735 56.7801 250.373 56.4431C249.768 55.9461 248.965 55.7382 248.522 55.0649C248.233 54.6138 248.17 54.0322 248.001 53.5035C247.819 52.8707 247.463 52.3019 246.974 51.8614C246.485 51.4209 245.882 51.1265 245.235 51.0114C244.455 50.9258 243.672 51.1414 243.046 51.6142L242.996 51.6529C242.647 51.9199 242.351 52.2498 242.124 52.6258C241.659 52.4975 241.233 52.2552 240.885 51.9208C240.533 51.593 240.262 51.1806 239.906 50.8634C239.574 50.5587 239.166 50.3489 238.726 50.2559C238.285 50.1629 237.827 50.1901 237.4 50.3347C236.961 50.511 236.569 50.7892 236.258 51.1464C235.947 51.5036 235.724 51.9297 235.609 52.3896C235.415 53.1157 235.451 53.9511 235.046 54.5574C234.733 55.0297 234.219 55.2623 233.86 55.6924C233.637 55.9647 233.484 56.288 233.416 56.6335C233.374 56.8267 233.354 57.0242 233.357 57.2221C233.357 57.3102 233.357 57.3984 233.378 57.483C233.378 57.483 233.378 57.5112 233.378 57.5253C233.39 57.6218 233.41 57.7173 233.437 57.8108C233.538 58.1681 233.717 58.4982 233.962 58.7766C234.194 59.0431 234.484 59.2529 234.81 59.3899C234.943 59.4418 235.08 59.4854 235.218 59.5203L235.637 59.6155L235.785 59.6507C235.28 60.6011 234.999 61.6551 234.965 62.7313C234.931 63.8076 235.144 64.8772 235.588 65.8579C235.588 65.9566 235.563 66.0553 235.553 66.154C235.495 67.5419 235.557 68.9322 235.736 70.3097C235.785 70.856 235.813 71.4588 235.479 71.8923C235.327 72.0629 235.155 72.2154 234.968 72.347C235.158 72.1003 235.352 71.8571 235.549 71.6139C235.053 71.1133 234.268 71.0499 233.564 71.0993C232.202 71.2012 230.879 71.6057 229.693 72.2836C228.904 72.7383 228.095 73.341 227.194 73.2353C226.662 73.1754 226.138 72.8828 225.621 73.0238C225.33 73.1429 225.058 73.3045 224.815 73.5032C224.622 73.6414 224.39 73.7132 224.153 73.7076C223.6 73.0273 222.745 72.5656 222.084 72.0122C221.331 71.3408 220.641 70.601 220.025 69.8021C218.884 68.4239 217.748 67.0422 216.628 65.6499C215.685 64.4797 214.717 63.2143 214.552 61.7162C214.535 61.5676 214.527 61.4182 214.527 61.2686C214.55 60.5568 214.64 59.8487 214.795 59.1537C214.836 58.9859 214.836 58.8104 214.795 58.6426C214.689 58.2901 214.284 58.1597 213.936 58.0822C213.982 57.8108 214.013 57.5323 214.031 57.2679C214.228 54.2366 214.013 51.156 214.654 48.1881C214.897 47.046 215.294 45.8899 216.115 45.0616C217.399 43.7609 219.55 43.4472 220.535 41.9069C221.359 40.6239 221.031 38.8086 219.997 37.6771C218.962 36.5457 217.367 36.0839 215.851 36.1403C215.425 36.1257 215.005 36.2386 214.643 36.4646C214.306 36.7649 214.053 37.1491 213.911 37.5784L212.401 41.2548C211.964 42.2119 211.594 43.199 211.296 44.2086C210.874 45.7524 210.779 47.3809 210.445 48.9389C210.445 50.1373 209.674 51.6318 209.251 52.7351C208.78 53.9758 208.27 55.2024 207.844 56.4678C207.738 56.7851 207.369 57.7262 207.14 58.5827C207.053 58.6331 206.973 58.6934 206.9 58.7625C206.717 58.9983 206.55 59.2468 206.401 59.5062C206.08 59.9292 205.56 60.1548 205.208 60.5636C204.856 60.9725 204.782 61.7233 205.271 61.9277C205.37 61.9612 205.473 61.9836 205.577 61.9947C205.641 62.0001 205.705 62.0107 205.767 62.0264C206.295 62.1745 206.503 62.8406 206.425 63.3905C206.348 63.9404 206.073 64.448 206.028 64.9978C205.933 65.9707 206.503 66.8765 207.052 67.6943C207.62 68.5808 208.248 69.4275 208.931 70.2286C209.427 70.7855 209.987 71.2861 210.487 71.8218C212.391 73.7816 213.904 76.0727 215.615 78.2017C216.23 79.0052 216.93 79.7403 217.702 80.3941C218.206 80.7891 218.734 81.1528 219.282 81.4833L222.224 83.3514C222.558 83.5963 222.936 83.7747 223.337 83.8766C223.467 83.8943 223.6 83.8943 223.731 83.8766C223.748 83.9648 223.762 84.0494 223.784 84.1375C224.012 85.061 224.516 85.8999 224.572 86.841C224.628 87.7821 224.544 88.7444 224.611 89.6961C224.674 90.5737 224.867 91.4585 224.917 92.322C225.015 93.9858 224.607 95.6283 224.213 97.2568C223.618 99.6395 223.259 102.072 222.101 104.232C221.777 104.828 221.397 105.434 221.397 106.115C221.397 106.196 221.397 106.28 221.418 106.361L220.89 106.661C220.736 106.749 220.581 106.837 220.44 106.929C219.771 107.366 219.057 107.849 218.782 108.603C218.561 109.213 218.663 109.911 218.395 110.503C218.382 110.53 218.368 110.555 218.353 110.58C218.071 111.13 217.512 111.539 217.385 112.142C217.29 112.604 217.473 113.094 217.385 113.552C217.385 113.552 217.385 113.552 217.385 113.57C217.305 113.8 217.241 114.035 217.195 114.274C217.191 114.353 217.198 114.431 217.216 114.507C217.283 114.774 217.431 115.014 217.638 115.194C217.765 115.316 217.903 115.426 218.05 115.522C218.2 115.621 218.355 115.713 218.515 115.797L218.606 115.847C218.74 115.917 218.874 115.984 219.011 116.047L219.103 116.086C219.261 116.157 219.423 116.22 219.585 116.277L219.697 116.312C219.824 116.354 219.954 116.393 220.085 116.425L220.172 116.453L220.253 116.47L220.605 116.544L220.736 116.569C220.89 116.595 221.049 116.616 221.211 116.633H221.352C221.471 116.633 221.587 116.65 221.703 116.654H221.869C221.992 116.654 222.112 116.654 222.221 116.654H222.348C222.513 116.654 222.678 116.629 222.844 116.608H222.897C223.044 116.587 223.192 116.562 223.34 116.53L223.453 116.506C223.59 116.474 223.727 116.442 223.864 116.4L223.938 116.379C224.104 116.329 224.269 116.277 224.431 116.213C224.991 115.983 225.535 115.713 226.057 115.406C226.409 115.212 226.761 115.015 227.113 114.835C227.374 114.703 227.642 114.586 227.915 114.482C228.581 114.198 229.305 114.077 230.027 114.13C230.383 114.179 230.736 114.25 231.083 114.345C231.083 114.384 231.083 114.423 231.083 114.461C231.369 116.153 231.652 117.845 231.931 119.537C232.392 119.205 232.879 118.911 233.388 118.659C233.293 118.915 233.23 119.181 233.202 119.452C233.181 119.662 233.181 119.874 233.202 120.083C233.233 120.418 233.304 120.788 233.103 121.053C232.98 121.215 232.751 121.306 232.684 121.49C232.635 121.677 232.623 121.872 232.649 122.064C232.635 122.283 232.542 122.49 232.388 122.647C232.235 122.803 232.03 122.899 231.811 122.917C231.912 123.201 231.915 123.51 231.818 123.796C231.722 124.081 231.532 124.325 231.28 124.489C231.133 124.56 230.995 124.65 230.872 124.757C230.751 124.913 230.67 125.096 230.636 125.289C230.171 127.035 229.214 128.61 227.88 129.826C227.38 130.22 226.923 130.666 226.518 131.158C226.268 131.539 226.061 131.947 225.902 132.374C224.964 134.672 224.011 136.972 223.044 139.272C222.509 140.559 221.989 141.867 221.82 143.252C221.397 147.052 218.019 150.273 218.652 154.045C218.78 154.987 219.159 155.877 219.75 156.621C220.454 157.471 221.51 157.957 222.566 158.352C225.279 159.409 228.141 159.988 230.991 160.569L235.468 161.489C236.347 161.691 237.238 161.833 238.136 161.912C239.216 161.986 240.325 161.884 241.377 162.159C242.029 162.328 242.651 162.642 243.324 162.677C243.901 162.709 244.612 162.585 244.953 163.058C245.295 163.53 245.031 164.154 245.354 164.573C245.875 165.24 247.146 164.573 247.713 165.201C247.867 165.442 247.986 165.704 248.064 165.98C248.151 166.15 248.27 166.301 248.416 166.424C248.451 166.623 248.465 166.825 248.459 167.027C248.385 167.845 248.215 168.652 247.952 169.43C247.53 170.862 247.108 172.294 246.688 173.727C246.528 174.233 246.41 174.752 246.336 175.278C246.31 175.534 246.31 175.791 246.336 176.047C246.41 176.826 246.857 177.629 247.6 177.883C248.176 178.035 248.789 177.96 249.31 177.671C249.814 177.408 250.286 177.089 250.718 176.72C251.497 176.129 252.182 175.423 252.749 174.626C254.509 171.989 253.939 168.422 255.174 165.507C255.994 163.562 257.592 161.983 258.123 159.931C258.248 159.541 258.262 159.124 258.165 158.726C257.944 158.021 257.194 157.619 256.494 157.365H256.462C255.887 157.16 255.299 156.992 254.702 156.861C254.554 156.829 254.403 156.805 254.252 156.78C253.917 156.507 253.65 156.159 253.474 155.765C253.446 155.555 253.391 155.35 253.309 155.155C253.253 155.071 253.177 155.002 253.089 154.953C253.001 154.904 252.903 154.876 252.802 154.873C252.45 154.838 251.978 154.965 251.595 154.937C250.81 154.88 250.289 154.108 249.585 153.752C248.881 153.396 248.117 153.484 247.368 153.537C247.099 153.574 246.827 153.557 246.565 153.488C246.253 153.344 245.967 153.147 245.72 152.906C245.287 152.569 244.782 152.337 244.244 152.228C243.705 152.12 243.15 152.139 242.62 152.282C242.283 152.419 241.926 152.5 241.564 152.522C240.878 152.483 240.392 151.87 239.885 151.405C238.499 150.132 236.524 149.797 234.842 148.962C234.584 148.866 234.37 148.681 234.236 148.44C234.043 147.961 234.479 147.482 234.873 147.154L237.766 144.746C240.934 142.11 244.893 140.125 246.365 136.259C246.518 135.74 246.756 135.251 247.068 134.81C247.182 134.675 247.314 134.557 247.459 134.457C248.099 134.042 248.875 133.891 249.624 134.034C250.536 134.239 251.401 134.617 252.172 135.148C253.432 135.912 254.658 136.734 255.85 137.616C257.03 138.461 258.153 139.384 259.211 140.379C261.058 142.142 262.596 144.232 264.318 146.132C266.039 148.031 268.006 149.804 270.396 150.714C272.785 151.623 275.675 151.584 277.727 150.058C280.095 148.296 280.856 145.145 281.454 142.254C282.774 140.978 283.171 139.036 283.815 137.32C284.22 136.23 284.738 135.205 285.174 134.119C285.695 132.843 286.103 131.525 286.511 130.21C286.974 128.89 287.288 127.522 287.448 126.132C287.617 123.936 287.029 121.599 287.645 119.537C288.458 119.357 289.197 118.899 289.996 118.631C291.185 118.24 292.459 118.303 293.719 118.31H293.8C294.234 118.357 294.671 118.253 295.039 118.018C295.461 117.665 295.528 117.063 295.549 116.516C295.599 115.166 295.514 113.651 294.504 112.776ZM243.51 52.6505C243.219 52.7226 242.918 52.744 242.62 52.7139L243.51 52.6505Z" fill="url(#paint0_linear)"/>
<path d="M244.897 74.9483C244.471 75.3108 243.971 75.5765 243.433 75.7272L240.938 76.6225C239.583 77.109 238.168 77.5989 236.739 77.4227C235.94 77.324 232.515 76.8199 231.998 76.196C231.21 75.2303 233.972 73.8098 234.916 72.9955C235.129 72.8416 235.328 72.6669 235.507 72.4739C235.859 72.0438 235.813 71.4411 235.764 70.8983C235.585 69.5231 235.524 68.1352 235.581 66.7496C235.608 66.4193 235.655 66.0909 235.722 65.7662C236.074 64.1448 237.58 64.7369 238.77 65.1669C240.201 65.6328 241.586 66.2335 242.905 66.9611C243.307 67.1685 243.656 67.4651 243.926 67.8282C244.446 68.6177 244.239 69.654 244.154 70.648C244.08 71.4199 244.084 72.1601 244.566 72.7206C244.809 72.9349 245.031 73.1708 245.231 73.4256C245.344 73.6821 245.372 73.9678 245.312 74.2415C245.252 74.5152 245.107 74.7627 244.897 74.9483Z" fill="#BE6F72"/>
<path d="M210.427 49.5444C210.779 47.9829 210.856 46.3721 211.279 44.8247C211.577 43.8186 211.946 42.8351 212.384 41.8815L213.936 38.2545C214.078 37.8262 214.331 37.4432 214.668 37.1442C215.03 36.9198 215.45 36.807 215.875 36.8199C217.392 36.7635 218.986 37.2359 220.021 38.3532C221.056 39.4706 221.383 41.2788 220.56 42.5583C219.574 44.0986 217.424 44.4088 216.139 45.7059C215.319 46.5343 214.921 47.6869 214.679 48.8254C214.038 51.7862 214.253 54.8563 214.056 57.8806C213.992 58.8217 213.809 59.8968 213 60.3832C212.511 60.6233 211.966 60.7291 211.423 60.6898L209.114 60.7286C208.727 60.7286 207.323 60.9718 207.066 60.6793C206.615 60.1682 207.643 57.6233 207.83 57.0558C208.245 55.7974 208.755 54.5708 209.237 53.3336C209.656 52.2303 210.427 50.7393 210.427 49.5444Z" fill="#BE6F72"/>
<path d="M258.099 160.279C257.567 162.316 255.969 163.903 255.149 165.845C253.914 168.753 254.47 172.309 252.724 174.939C252.158 175.737 251.473 176.445 250.694 177.036C250.261 177.404 249.789 177.722 249.286 177.984C248.764 178.272 248.151 178.348 247.575 178.196C246.833 177.942 246.386 177.138 246.312 176.363C246.285 176.109 246.285 175.852 246.312 175.598C246.386 175.073 246.503 174.556 246.664 174.051C247.086 172.624 247.507 171.195 247.927 169.764C248.19 168.988 248.36 168.184 248.434 167.368C248.48 166.479 247.917 165.323 248.156 164.495C248.265 164.121 248.673 163.79 248.86 163.476C249.125 163.025 249.328 162.54 249.465 162.035C249.754 161.051 249.951 160.001 250.556 159.172C250.951 158.681 251.413 158.248 251.929 157.886C252.309 157.552 252.755 157.301 253.238 157.149C253.707 157.067 254.187 157.089 254.646 157.216C255.243 157.344 255.831 157.511 256.406 157.717H256.437C257.141 157.97 257.887 158.362 258.109 159.074C258.217 159.469 258.213 159.886 258.099 160.279Z" fill="#3F3D56"/>
<path d="M295.546 116.946C295.525 117.492 295.458 118.102 295.036 118.444C294.668 118.679 294.231 118.783 293.797 118.736H293.702C292.445 118.736 291.168 118.666 289.978 119.057C289.074 119.357 288.243 119.907 287.3 120.016C286.001 120.164 284.78 119.452 283.629 118.831C282.545 118.247 281.433 117.717 280.296 117.245C279.55 116.939 278.026 116.741 277.667 115.923C277.544 115.537 277.441 115.144 277.357 114.746C277.298 114.569 277.226 114.395 277.143 114.228C276.931 113.871 276.797 113.474 276.748 113.061C276.75 112.651 276.891 112.253 277.15 111.933C277.437 111.593 277.788 111.313 278.184 111.109C278.579 110.905 279.011 110.782 279.455 110.746C280.342 110.677 281.234 110.724 282.109 110.887L290.774 112.134C291.442 112.23 292.115 112.325 292.773 112.487C293.398 112.595 293.987 112.854 294.49 113.241C295.514 114.101 295.599 115.613 295.546 116.946Z" fill="#3F3D56"/>
<path d="M287.93 119.201C286.874 121.432 287.634 124.072 287.444 126.54C287.285 127.926 286.971 129.291 286.508 130.607C286.1 131.919 285.691 133.233 285.171 134.506C284.734 135.563 284.217 136.621 283.812 137.699C283.168 139.419 282.756 141.354 281.45 142.634C280.852 145.517 280.092 148.668 277.723 150.417C275.664 151.939 272.796 151.992 270.392 151.072C267.988 150.152 266.035 148.39 264.314 146.49C262.593 144.59 261.055 142.521 259.207 140.752C258.148 139.756 257.023 138.834 255.839 137.992C254.647 137.125 253.421 136.309 252.161 135.546C251.39 135.017 250.525 134.64 249.613 134.435C248.864 134.291 248.089 134.443 247.449 134.858C247.303 134.958 247.172 135.076 247.058 135.211C246.745 135.65 246.507 136.138 246.354 136.656C244.876 140.512 240.909 142.493 237.742 145.122L234.849 147.523C234.455 147.851 234.018 148.33 234.212 148.806C234.345 149.047 234.56 149.232 234.817 149.328C236.499 150.159 238.474 150.494 239.861 151.763C240.367 152.228 240.853 152.842 241.539 152.877C241.902 152.856 242.258 152.776 242.595 152.641C243.125 152.497 243.68 152.479 244.218 152.586C244.756 152.694 245.262 152.925 245.696 153.261C245.942 153.502 246.228 153.699 246.541 153.843C246.802 153.912 247.075 153.929 247.343 153.892C248.093 153.839 248.888 153.772 249.56 154.107C250.233 154.442 250.785 155.232 251.57 155.288C251.954 155.316 252.411 155.189 252.777 155.224C252.878 155.228 252.976 155.255 253.065 155.304C253.153 155.353 253.228 155.422 253.284 155.506C253.366 155.7 253.422 155.904 253.449 156.113C253.594 156.61 254.079 156.913 254.396 157.322C254.882 157.949 254.952 158.802 254.903 159.595C254.744 162.075 253.64 164.399 251.82 166.088C251.303 166.617 250.644 166.984 249.923 167.145C249.562 167.221 249.186 167.181 248.849 167.031C248.511 166.881 248.23 166.629 248.043 166.31C247.965 166.036 247.846 165.774 247.691 165.535C247.125 164.911 245.854 165.573 245.333 164.907C245.01 164.491 245.242 163.825 244.932 163.395C244.622 162.965 243.876 163.042 243.303 163.018C242.63 162.983 242.007 162.665 241.356 162.5C240.301 162.225 239.195 162.327 238.115 162.253C237.217 162.174 236.326 162.032 235.447 161.83L230.97 160.914C228.12 160.332 225.258 159.743 222.545 158.703C221.506 158.309 220.461 157.822 219.729 156.976C219.139 156.233 218.76 155.344 218.631 154.403C217.994 150.642 221.373 147.428 221.799 143.638C221.95 142.257 222.502 140.953 223.023 139.67C223.978 137.376 224.931 135.081 225.881 132.786C226.035 132.358 226.236 131.949 226.479 131.566C226.884 131.075 227.341 130.63 227.841 130.237C229.175 129.025 230.132 127.454 230.597 125.711C230.632 125.518 230.713 125.335 230.833 125.179C230.958 125.075 231.095 124.986 231.241 124.915C231.493 124.751 231.682 124.507 231.778 124.223C231.875 123.938 231.873 123.63 231.773 123.346C231.991 123.328 232.196 123.232 232.35 123.076C232.503 122.919 232.596 122.712 232.61 122.493C232.585 122.302 232.597 122.108 232.646 121.922C232.73 121.739 232.941 121.647 233.064 121.485C233.265 121.221 233.195 120.851 233.163 120.519C233.142 120.31 233.142 120.098 233.163 119.888C233.24 119.142 233.573 118.446 234.106 117.918C234.947 117.09 236.144 117.305 237.305 117.107C238.464 116.857 239.595 116.495 240.684 116.025C243.738 114.82 246.953 114.075 250.225 113.815C253.514 113.556 256.817 114.083 259.862 115.352C260.305 115.532 260.723 115.769 261.104 116.057C261.375 116.266 261.597 116.532 261.755 116.836C261.885 117.209 262.045 117.571 262.234 117.918C262.611 118.433 263.322 118.598 263.733 119.085C264.145 119.571 264.18 120.392 264.522 120.995C265.011 121.855 266.144 122.254 266.482 123.188C266.588 123.484 266.602 123.808 266.679 124.115C266.869 124.883 267.439 125.489 267.943 126.096C269.788 128.306 270.969 130.995 271.35 133.85C271.462 132.063 272.662 130.48 274.165 129.493C274.57 129.229 275.038 128.937 275.119 128.457C275.221 127.851 274.633 127.312 274.672 126.695C274.715 126.394 274.836 126.109 275.024 125.87C275.695 124.896 276.431 123.97 277.227 123.096C277.66 122.62 278.146 122.039 277.966 121.411C277.829 120.942 277.35 120.667 277.086 120.259C276.932 120.015 276.853 119.731 276.86 119.443C276.866 119.154 276.957 118.874 277.122 118.637C277.368 118.302 277.759 118.059 277.878 117.661C278.015 117.192 277.709 116.684 277.804 116.201C277.933 115.815 278.188 115.483 278.529 115.26C278.996 114.835 279.527 114.485 280.103 114.224C281.032 113.872 282.066 114.002 283.052 114.139C284.699 114.369 286.547 114.721 287.476 116.103C288.071 116.966 288.373 118.278 287.93 119.201Z" fill="#65617D"/>
<path opacity="0.1" d="M295.546 116.946C295.525 117.492 295.458 118.102 295.036 118.444C294.668 118.679 294.231 118.783 293.797 118.736H293.702C293.846 118.003 294.737 117.584 294.891 116.84C294.918 116.611 294.897 116.38 294.831 116.16C294.764 115.94 294.653 115.736 294.504 115.56C293.751 114.542 292.54 113.978 291.337 113.565C287.936 112.398 284.293 112.125 280.757 112.772C279.796 112.929 278.86 113.217 277.977 113.629C277.684 113.812 277.402 114.012 277.132 114.228C276.921 113.871 276.787 113.474 276.738 113.061C276.739 112.651 276.881 112.253 277.139 111.933C277.426 111.593 277.778 111.313 278.173 111.109C278.569 110.905 279.001 110.782 279.444 110.746C280.331 110.677 281.223 110.724 282.098 110.887L290.763 112.134C291.432 112.23 292.104 112.325 292.762 112.487C293.387 112.595 293.976 112.854 294.48 113.241C295.514 114.101 295.599 115.613 295.546 116.946Z" fill="black"/>
<path opacity="0.1" d="M258.099 160.28C257.567 162.317 255.969 163.903 255.149 165.845C253.914 168.753 254.47 172.31 252.724 174.939C252.158 175.738 251.473 176.445 250.694 177.036C250.261 177.404 249.789 177.723 249.286 177.985C248.764 178.273 248.151 178.349 247.575 178.196C246.833 177.942 246.386 177.139 246.312 176.363C246.285 176.109 246.285 175.853 246.312 175.598L246.333 175.655C246.639 176.395 247.139 177.17 247.927 177.301C248.223 177.322 248.52 177.282 248.8 177.183C249.08 177.084 249.336 176.929 249.553 176.726C250.715 175.792 251.39 174.4 252.034 173.057C252.539 172.088 252.937 171.069 253.224 170.015C253.365 169.416 253.432 168.802 253.576 168.203C254.245 165.292 256.522 162.916 257.025 159.966C257.066 159.763 257.076 159.555 257.053 159.349C256.987 159.081 256.885 158.822 256.751 158.581C256.628 158.308 256.539 158.021 256.483 157.728C257.187 157.981 257.933 158.373 258.155 159.085C258.246 159.481 258.226 159.894 258.099 160.28Z" fill="black"/>
<path opacity="0.1" d="M252.784 155.225C252.458 156.078 251.91 156.828 251.197 157.397C250.195 158.161 249.022 158.669 247.779 158.877C247.201 159.025 246.594 159.017 246.02 158.856C245.238 158.584 244.675 157.851 243.876 157.64C243.306 157.485 242.694 157.622 242.117 157.538C241.078 157.393 240.272 156.6 239.435 155.966C236.869 154.034 233.501 153.41 230.935 151.478C230.821 151.408 230.726 151.31 230.661 151.193C230.611 151.066 230.593 150.93 230.608 150.795C230.617 149.623 230.88 148.467 231.379 147.407C231.787 146.668 232.273 145.974 232.829 145.338C235.127 142.518 237.436 139.677 240.188 137.298C241.342 136.301 242.602 135.37 244.059 134.919C244.869 134.669 246.467 134.433 247.452 134.856C247.307 134.955 247.175 135.073 247.061 135.208C246.748 135.647 246.51 136.136 246.358 136.653C244.876 140.513 240.909 142.494 237.742 145.123L234.849 147.524C234.455 147.851 234.018 148.331 234.212 148.807C234.345 149.047 234.56 149.232 234.817 149.328C236.499 150.16 238.474 150.495 239.861 151.764C240.367 152.229 240.853 152.843 241.539 152.878C241.902 152.857 242.258 152.777 242.595 152.642C243.125 152.498 243.68 152.48 244.218 152.587C244.756 152.695 245.262 152.926 245.696 153.262C245.942 153.503 246.228 153.699 246.541 153.844C246.802 153.913 247.075 153.93 247.343 153.893C248.093 153.84 248.888 153.773 249.56 154.108C250.233 154.443 250.785 155.232 251.57 155.289C251.961 155.317 252.418 155.183 252.784 155.225Z" fill="black"/>
<path d="M220.415 107.386C219.747 107.816 219.036 108.303 218.761 109.05C218.536 109.66 218.642 110.358 218.371 110.95C218.1 111.542 217.491 111.955 217.357 112.589C217.262 113.051 217.448 113.537 217.357 113.999C217.277 114.239 217.213 114.484 217.163 114.732C217.128 115.257 217.579 115.684 218.019 115.976C218.955 116.587 220.022 116.968 221.132 117.091C222.243 117.213 223.367 117.073 224.414 116.681C225.353 116.329 226.201 115.754 227.102 115.303C227.981 114.796 228.986 114.552 229.999 114.598C230.58 114.662 231.136 114.873 231.716 114.951C232.003 115.007 232.3 114.993 232.58 114.91C232.86 114.826 233.116 114.676 233.325 114.471C233.504 114.223 233.625 113.938 233.677 113.636C234.166 111.701 233.944 109.649 233.48 107.704C233.015 105.758 232.311 103.886 231.815 101.951C231.463 100.517 231.192 99.0468 230.604 97.6898C230.017 96.3327 229.028 95.0708 227.644 94.5527C227.535 94.4991 227.412 94.483 227.292 94.5069C227.204 94.544 227.125 94.6021 227.064 94.6761C225.97 95.8373 225.145 97.2263 224.649 98.7437C224.097 100.432 223.945 102.223 223.439 103.918C223.22 104.623 222.939 105.568 222.383 106.107C221.827 106.646 221.045 106.981 220.415 107.386Z" fill="#3F3D56"/>
<path opacity="0.1" d="M233.687 113.625C233.628 113.928 233.502 114.213 233.318 114.461C233.109 114.666 232.853 114.817 232.573 114.9C232.292 114.983 231.996 114.995 231.709 114.936C231.132 114.866 230.576 114.651 229.995 114.584C228.982 114.537 227.977 114.782 227.099 115.289C226.198 115.74 225.339 116.301 224.406 116.664C223.042 117.182 221.552 117.267 220.137 116.907C219.386 116.718 218.672 116.403 218.026 115.976C217.582 115.687 217.135 115.271 217.17 114.732C217.22 114.485 217.284 114.241 217.364 114.002C217.455 113.541 217.272 113.054 217.364 112.592C217.498 111.958 218.11 111.535 218.378 110.95C218.645 110.365 218.543 109.663 218.765 109.054C219.039 108.303 219.754 107.82 220.422 107.386C221.091 106.953 221.886 106.621 222.421 106.096C222.491 106.014 222.553 105.927 222.608 105.835C222.994 105.24 223.277 104.583 223.446 103.893C223.963 102.194 224.104 100.407 224.653 98.7153C225.151 97.1991 225.976 95.8115 227.071 94.6512C227.129 94.5756 227.207 94.5171 227.296 94.482C227.415 94.4578 227.538 94.4727 227.648 94.5243C229.028 95.046 230.016 96.3079 230.608 97.6649C231.199 99.022 231.449 100.485 231.818 101.923C232.311 103.858 233.019 105.737 233.483 107.679C233.948 109.621 234.177 111.687 233.687 113.625Z" fill="black"/>
<path opacity="0.1" d="M244.154 70.6366C242.499 71.1633 240.709 71.0587 239.126 70.3429C237.543 69.6272 236.281 68.3509 235.581 66.7594C235.608 66.429 235.655 66.1007 235.722 65.7759C236.074 64.1545 237.58 64.7467 238.77 65.1767C240.201 65.6426 241.586 66.2433 242.905 66.9708C243.307 67.1782 243.656 67.4748 243.926 67.8379C244.446 68.6169 244.239 69.6532 244.154 70.6366Z" fill="black"/>
<path d="M242.029 70.6158C245.916 70.6158 249.068 67.4596 249.068 63.5662C249.068 59.6728 245.916 56.5166 242.029 56.5166C238.141 56.5166 234.99 59.6728 234.99 63.5662C234.99 67.4596 238.141 70.6158 242.029 70.6158Z" fill="#BE6F72"/>
<path opacity="0.1" d="M261.129 116.248C261.129 116.833 260.337 117.02 259.749 116.988C257.638 116.865 255.572 116.283 253.481 116.459C250.838 116.699 248.409 118.162 245.759 118.296C244.739 118.349 243.7 118.197 242.694 118.384C241.392 118.627 240.23 119.42 238.903 119.533C237.752 119.632 236.616 119.198 235.465 119.244C234.66 119.292 233.876 119.516 233.167 119.9C233.244 119.153 233.577 118.457 234.11 117.929C234.951 117.101 236.148 117.316 237.309 117.119C238.467 116.868 239.599 116.506 240.688 116.036C243.741 114.831 246.957 114.087 250.229 113.826C253.515 113.565 256.817 114.088 259.862 115.353C260.305 115.532 260.723 115.769 261.104 116.058C261.123 116.119 261.132 116.184 261.129 116.248Z" fill="black"/>
<path d="M238.773 76.4381L235.922 75.3807L234.719 74.9366C234.228 74.7307 233.712 74.5931 233.184 74.5277C231.804 74.4219 230.506 75.3419 229.77 76.5157C229.035 77.6894 228.757 79.0888 228.521 80.4529C228.197 82.3187 227.922 84.1915 227.697 86.0714C227.455 87.769 227.331 89.4816 227.328 91.1965C227.409 95.5601 228.331 99.8639 229.344 104.111C229.841 105.994 230.216 107.908 230.467 109.839C230.552 110.636 230.59 111.436 230.675 112.236C230.766 113.135 230.914 114.023 231.062 114.915L231.91 119.98C232.966 119.229 234.166 118.57 235.465 118.531C236.616 118.489 237.756 118.919 238.903 118.82C240.223 118.711 241.392 117.918 242.694 117.675C243.7 117.488 244.739 117.636 245.763 117.587C248.409 117.453 250.841 115.986 253.481 115.75C255.575 115.56 257.655 116.152 259.753 116.275C260.337 116.311 261.129 116.124 261.129 115.535C261.129 115.126 260.721 114.855 260.365 114.65C258.69 113.64 257.095 112.5 255.596 111.242C254.21 110.142 252.802 109.014 251.848 107.527C249.55 103.949 250.338 99.1096 248.378 95.3346C246.783 92.268 248.378 88.2497 248.378 84.7919C248.378 83.0683 248.378 81.3235 247.973 79.6492C247.72 78.7128 247.405 77.7943 247.03 76.8999L245.661 73.428C245.632 73.3265 245.576 73.235 245.499 73.1636C245.407 73.1001 245.297 73.0668 245.186 73.0684C244.363 73.0191 243.552 73.2793 242.912 73.7981C242.268 74.3232 241.856 75.0776 241.223 75.6239C240.529 76.2266 239.635 76.7554 238.773 76.4381Z" fill="#E3E8F4"/>
<path d="M243.373 74.4363C243.598 73.4705 243.841 72.466 244.485 71.7117C245.129 70.9574 246.305 70.5591 247.135 71.0984C248.079 71.7117 248.117 73.1286 248.923 73.9182C249.627 74.595 250.683 74.6478 251.64 74.7359C253.362 74.8928 255.052 75.2915 256.663 75.9203C256.977 76.0178 257.263 76.1894 257.497 76.4208C257.937 76.9213 257.849 77.6897 258.067 78.3136C258.366 79.1173 259.193 79.6284 259.513 80.4285C259.865 81.3167 259.513 82.3107 259.218 83.2237C258.686 84.8627 258.352 86.5652 257.835 88.2112C257.317 89.8573 256.582 91.4787 255.371 92.7195C254.836 93.2693 254.041 93.7769 253.337 93.4491L253.066 95.4053C252.987 95.8187 252.987 96.2433 253.066 96.6566C253.107 96.8635 253.205 97.0545 253.349 97.2079C253.494 97.3613 253.679 97.4708 253.882 97.5238C253.935 97.8269 254.255 97.9714 254.516 98.1371C254.708 98.2687 254.872 98.4373 254.999 98.633C255.126 98.8288 255.212 99.0477 255.254 99.2772C255.295 99.5067 255.291 99.7422 255.241 99.9701C255.191 100.198 255.097 100.414 254.963 100.604C254.741 100.904 254.414 101.14 254.308 101.496C254.15 102.011 254.526 102.554 254.984 102.836C255.441 103.118 255.98 103.248 256.444 103.519C257.409 104.076 257.926 105.173 258.257 106.237C258.503 107.041 258.707 107.911 259.313 108.496C259.545 108.718 259.823 108.888 260.045 109.12C260.429 109.574 260.65 110.144 260.675 110.738C260.771 111.475 260.61 112.222 260.217 112.853C259.513 113.861 258.201 114.161 257.05 114.615C255.181 115.384 253.643 116.759 251.996 117.929C251.325 118.47 250.535 118.842 249.691 119.014C248.55 119.166 247.428 118.662 246.28 118.616C245.594 118.623 244.911 118.712 244.246 118.884L242.134 119.342C242.247 117.703 241.346 116.061 240.843 114.499C239.892 111.559 239.716 108.415 239.942 105.335C240.167 102.254 240.793 99.2157 241.413 96.1914C241.846 94.0765 241.803 91.8665 242.469 89.8115C243.092 87.8341 243.982 85.9342 244.309 83.8757C244.844 80.5448 242.62 77.7215 243.373 74.4363Z" fill="#3F3D56"/>
<path d="M259.383 80.9546C259.577 81.3128 259.714 81.6994 259.788 82.1001C259.951 82.721 260.256 83.2955 260.678 83.7779C261.032 84.0907 261.347 84.4459 261.615 84.8354C261.938 85.4487 261.815 86.1959 261.966 86.8657C262.142 87.5953 262.653 88.2297 262.727 88.9805C262.729 89.1957 262.749 89.4102 262.787 89.622C263.015 90.475 264.268 90.6795 264.546 91.5325C264.733 92.0859 264.413 92.6886 264.472 93.2702C264.516 93.4501 264.527 93.6364 264.504 93.8201C264.424 94.0278 264.285 94.207 264.103 94.3347C262.938 95.4491 262.132 96.8863 261.787 98.4622C261.448 100.03 261.27 101.628 261.256 103.231L259.879 101.409C259.734 101.188 259.547 100.996 259.33 100.845C259.154 100.739 258.95 100.686 258.771 100.581C258.25 100.285 258.046 99.6571 257.845 99.0932C257.288 97.532 256.453 96.0847 255.382 94.8211C254.822 94.162 254.171 93.4993 254.048 92.6428C254.011 92.2494 254.032 91.8527 254.111 91.4655C254.463 89.1568 254.84 86.7916 255.962 84.7437C256.487 83.785 257.166 82.9179 257.669 81.945C258.007 81.3 258.482 79.6222 259.383 80.9546Z" fill="#3F3D56"/>
<path d="M224.663 83.1709C224.67 83.4677 224.594 83.7604 224.445 84.0169C224.311 84.173 224.135 84.2886 223.939 84.3509C223.743 84.4131 223.533 84.4195 223.333 84.3694C222.932 84.2686 222.555 84.0915 222.221 83.8477C221.24 83.2273 220.259 82.6058 219.279 81.9831C218.731 81.6526 218.203 81.2901 217.698 80.8974C216.926 80.2448 216.227 79.5109 215.611 78.7085C213.901 76.5937 212.387 74.299 210.483 72.3639C209.966 71.8352 209.427 71.3276 208.928 70.7742C208.245 69.9743 207.617 69.1287 207.048 68.2434C206.499 67.4292 205.929 66.5269 206.024 65.554C206.08 65.0041 206.344 64.4966 206.422 63.9502C206.499 63.4039 206.292 62.7377 205.764 62.5897C205.701 62.574 205.638 62.5633 205.574 62.5579C205.469 62.5469 205.367 62.5244 205.267 62.491C204.778 62.2865 204.852 61.5287 205.204 61.1304C205.556 60.7321 206.077 60.51 206.397 60.073C206.546 59.8136 206.713 59.5651 206.897 59.3292C207.133 59.1269 207.414 58.9853 207.717 58.9168C209.747 58.3177 211.895 58.2365 213.964 58.6807C214.316 58.7582 214.717 58.8992 214.823 59.2411C214.865 59.4077 214.865 59.5821 214.823 59.7487C214.668 60.4437 214.578 61.1517 214.555 61.8635C214.555 62.0119 214.563 62.1603 214.58 62.3077C214.745 63.8022 215.713 65.0676 216.657 66.2343C217.776 67.6231 218.913 69.0013 220.053 70.3759C220.67 71.1725 221.359 71.91 222.112 72.5789C222.816 73.164 223.727 73.6364 224.276 74.3871C224.723 74.9934 224.579 75.8217 224.628 76.5514C224.792 78.7545 224.804 80.9662 224.663 83.1709Z" fill="#3F3D56"/>
<path d="M269.361 97.8769C269.709 97.5385 270.022 97.1666 270.297 96.7666C270.593 96.271 270.829 95.7422 271.001 95.191L273.042 89.3927C273.366 88.4763 273.69 87.5563 274.098 86.6645C274.521 85.7023 275.02 84.7753 275.481 83.8447C276.667 81.3959 277.584 78.8253 278.216 76.1783C278.327 75.8146 278.364 75.4322 278.325 75.0539C278.227 74.4441 277.766 73.9682 277.326 73.5347C276.883 73.0561 276.379 72.6389 275.826 72.294C275.549 72.1211 275.24 72.0053 274.917 71.9533C274.594 71.9012 274.265 71.914 273.947 71.9908C273.046 72.2552 272.479 73.1787 272.272 74.1057C272.064 75.0327 272.141 75.9809 272.053 76.9255C271.927 78.2791 271.462 79.5868 271.35 80.9438C271.29 81.7298 271.349 82.5229 271.254 83.3054C271.081 84.333 270.724 85.3206 270.199 86.2204C269.055 88.3639 267.51 90.2667 265.648 91.8249C265.138 92.202 264.679 92.6439 264.282 93.1396C263.951 93.6353 263.727 94.1948 263.624 94.7822C263.39 95.6766 263.492 96.6258 263.909 97.4504C264.483 98.4303 265.585 98.8603 266.637 99.0789C268.059 99.375 268.386 98.8885 269.361 97.8769Z" fill="#BE6F72"/>
<path d="M242.071 53.351C242.374 52.7808 242.838 52.3126 243.405 52.0048C243.972 51.697 244.617 51.5633 245.259 51.6203C245.907 51.7351 246.509 52.0291 246.998 52.4689C247.486 52.9087 247.843 53.4768 248.026 54.1089C248.191 54.6341 248.258 55.2156 248.547 55.6668C248.983 56.3471 249.793 56.5445 250.398 57.038C250.759 57.3742 251.05 57.7794 251.253 58.2297C251.456 58.6801 251.568 59.1665 251.58 59.6604C251.614 60.6694 251.455 61.6755 251.112 62.6248C250.967 63.0298 250.849 63.4444 250.76 63.8655C250.69 64.2744 250.683 64.6903 250.62 65.0992C250.542 65.6293 250.359 66.1385 250.081 66.5968C249.804 67.055 249.438 67.453 249.004 67.7675C248.881 67.8682 248.727 67.9242 248.568 67.9261C248.293 67.8943 248.124 67.5736 248.022 67.2846C247.463 65.6667 247.596 63.6893 246.565 62.3992C246.096 61.8788 245.529 61.456 244.897 61.1549C244.639 60.9884 244.349 60.879 244.045 60.8342C243.599 60.8582 243.17 61.0153 242.813 61.2853C242.071 61.7844 241.246 62.1494 240.378 62.3639C239.945 62.4668 239.494 62.4714 239.058 62.3775C238.623 62.2836 238.214 62.0935 237.862 61.8211C237.376 61.4193 237.02 60.8166 236.482 60.5028C235.943 60.1891 235.38 60.2068 234.849 59.9917C234.51 59.8475 234.209 59.6277 233.968 59.3491C233.727 59.0705 233.552 58.7405 233.458 58.3843C233.364 58.028 233.352 57.6548 233.423 57.2932C233.495 56.9317 233.648 56.5912 233.87 56.2978C234.222 55.8748 234.743 55.6351 235.056 55.1663C235.461 54.56 235.426 53.7282 235.62 53.0021C235.734 52.5427 235.956 52.1173 236.268 51.7611C236.58 51.405 236.971 51.1283 237.411 50.9542C237.837 50.8091 238.295 50.7814 238.736 50.8737C239.176 50.9661 239.584 51.1753 239.917 51.4794C240.269 51.7966 240.55 52.2055 240.895 52.5368C241.236 52.8632 241.653 53.0989 242.108 53.222C242.563 53.3452 243.041 53.352 243.5 53.2418" fill="#3F3D56"/>
<path opacity="0.1" d="M247.857 105.232C247.652 105.415 247.507 105.656 247.44 105.922C247.374 106.189 247.389 106.469 247.484 106.727C247.561 106.893 251.193 106.191 251.577 106.138C252.534 106.001 254.213 106.068 254.857 105.19C256.004 103.636 252.45 103.981 251.799 104.038C250.56 104.143 248.8 104.312 247.857 105.232Z" fill="black"/>
<path d="M214.816 59.7628C214.661 60.4578 214.571 61.1659 214.548 61.8777C213.493 62.0927 212.394 61.7402 211.381 61.3877L208.47 60.3937C208.293 60.2804 208.08 60.2388 207.873 60.2775C207.666 60.3161 207.482 60.432 207.358 60.6017C206.89 61.0881 206.246 62.0116 205.598 62.5579C205.494 62.5469 205.391 62.5244 205.292 62.491C204.803 62.2865 204.877 61.5287 205.229 61.1304C205.581 60.7321 206.102 60.51 206.422 60.073C206.571 59.8136 206.738 59.5651 206.922 59.3292C207.157 59.1269 207.439 58.9853 207.742 58.9168C209.772 58.3177 211.919 58.2365 213.989 58.6807C214.341 58.7582 214.742 58.8992 214.848 59.2411C214.882 59.4148 214.871 59.5945 214.816 59.7628Z" fill="#3F3D56"/>
<path opacity="0.1" d="M214.816 59.7628C214.661 60.4578 214.571 61.1659 214.548 61.8777C213.493 62.0927 212.394 61.7402 211.381 61.3877L208.47 60.3937C208.293 60.2804 208.08 60.2388 207.873 60.2775C207.666 60.3161 207.482 60.432 207.358 60.6017C206.89 61.0881 206.246 62.0116 205.598 62.5579C205.494 62.5469 205.391 62.5244 205.292 62.491C204.803 62.2865 204.877 61.5287 205.229 61.1304C205.581 60.7321 206.102 60.51 206.422 60.073C206.571 59.8136 206.738 59.5651 206.922 59.3292C207.157 59.1269 207.439 58.9853 207.742 58.9168C209.772 58.3177 211.919 58.2365 213.989 58.6807C214.341 58.7582 214.742 58.8992 214.848 59.2411C214.882 59.4148 214.871 59.5945 214.816 59.7628Z" fill="black"/>
<path opacity="0.1" d="M241.441 126.682C241.948 126.851 242.497 127.098 242.669 127.605L238.594 126.569L236.482 126.03C236.109 125.935 234.771 125.825 234.525 125.533C234.173 125.103 235.422 125.399 235.648 125.431C236.33 125.533 237.013 125.639 237.693 125.762C238.974 125.991 240.205 126.368 241.441 126.682Z" fill="black"/>
<path opacity="0.1" d="M243.021 130.294C242.669 130.058 241.659 130.086 241.226 129.984C240.593 129.832 239.97 129.631 239.347 129.437C238.083 129.025 236.83 128.556 235.532 128.253C235.292 128.2 234.476 128.186 234.514 127.883C234.553 127.58 235.331 127.474 235.525 127.46C236.675 127.375 238.111 127.915 239.181 128.299C240.545 128.788 241.836 129.459 243.021 130.294Z" fill="black"/>
<path opacity="0.1" d="M240.438 123.459C239.146 123.107 237.974 122.303 236.644 122.148C236.297 122.161 235.956 122.057 235.676 121.852C235.52 121.698 235.411 121.502 235.363 121.288C236.253 121.242 237.288 121.619 238.097 121.975C238.543 122.167 238.971 122.395 239.378 122.659C239.674 122.839 240.117 123.357 240.438 123.459Z" fill="black"/>
<path d="M265.06 91.8984C264.842 93.3639 265.158 94.8591 265.95 96.1103C266.742 97.3615 267.958 98.285 269.375 98.7119C269.203 99.5473 268.34 100.009 267.731 100.605C266.873 101.44 266.429 102.691 265.416 103.326C264.286 104.031 262.832 103.756 261.544 103.46C261.427 103.447 261.319 103.39 261.242 103.301C261.215 103.259 261.196 103.212 261.185 103.164C260.759 101.602 260.481 99.935 260.918 98.37C261.27 97.0376 262.114 95.9026 262.79 94.7253C263.466 93.5481 263.529 92.2862 265.06 91.8984Z" fill="#3F3D56"/>
<path d="M233.592 71.6874C232.23 71.7866 230.907 72.1901 229.721 72.8682C228.933 73.3193 228.123 73.9256 227.222 73.8163C226.691 73.7564 226.166 73.4639 225.649 73.6048C225.357 73.7226 225.086 73.8843 224.843 74.0842C224.72 74.1824 224.573 74.247 224.418 74.2717C224.263 74.2964 224.103 74.2804 223.956 74.2252L223.604 79.1035C223.47 80.9576 223.34 82.8504 223.784 84.6586C224.012 85.5821 224.516 86.421 224.572 87.3586C224.628 88.2962 224.544 89.2585 224.611 90.2066C224.674 91.0843 224.868 91.9479 224.917 92.8255C225.015 94.4822 224.607 96.1247 224.213 97.7356C223.618 100.111 223.259 102.54 222.101 104.69C221.777 105.286 221.397 105.892 221.397 106.569C221.397 106.653 221.397 106.734 221.418 106.815C221.066 107.009 220.739 107.193 220.44 107.383C219.771 107.816 219.057 108.299 218.782 109.05C218.561 109.66 218.663 110.358 218.395 110.947C218.128 111.535 217.515 111.955 217.382 112.589C217.287 113.051 217.47 113.537 217.382 113.999C217.302 114.238 217.237 114.482 217.188 114.729C217.153 115.257 217.6 115.684 218.043 115.973C218.69 116.4 219.404 116.714 220.155 116.903L222.256 108.55C224.172 105.002 225.765 101.29 227.018 97.4571C227.376 96.2043 227.837 94.983 228.394 93.8054C228.792 93.1393 229.145 92.4468 229.45 91.7329C229.77 90.8446 229.802 89.8823 229.957 88.9447C230.141 87.8504 230.417 86.7738 230.784 85.7266C231.164 84.5952 231.604 83.4672 231.681 82.2794C231.797 80.5804 231.182 78.7863 231.836 77.2142C232.114 76.6258 232.476 76.0809 232.91 75.5963C233.818 74.4825 234.645 73.3158 235.553 72.202C235.081 71.6979 234.296 71.6451 233.592 71.6874Z" fill="#3F3D56"/>
<g opacity="0.1">
<path opacity="0.1" d="M243.51 52.1914L243.07 52.2231L243.021 52.2584C243.186 52.2517 243.35 52.2292 243.51 52.1914Z" fill="black"/>
<path opacity="0.1" d="M251.563 59.5091C251.489 60.2098 251.338 60.9002 251.112 61.5675C250.967 61.9726 250.849 62.3871 250.76 62.8083C250.69 63.2171 250.683 63.6331 250.62 64.0419C250.542 64.5721 250.359 65.0813 250.081 65.5395C249.804 65.9978 249.438 66.3958 249.004 66.7102C248.881 66.811 248.727 66.8669 248.568 66.8688C248.293 66.8371 248.124 66.5164 248.022 66.2273C247.463 64.6094 247.596 62.632 246.565 61.3419C246.096 60.8215 245.529 60.3987 244.897 60.0977C244.639 59.9312 244.349 59.8218 244.045 59.7769C243.599 59.801 243.17 59.9581 242.813 60.2281C242.071 60.7271 241.246 61.0922 240.378 61.3067C239.945 61.4095 239.494 61.4141 239.058 61.3202C238.623 61.2263 238.214 61.0362 237.862 60.7639C237.376 60.3621 237.02 59.7593 236.482 59.4456C235.943 59.1319 235.38 59.1495 234.849 58.9345C234.517 58.7925 234.221 58.5775 233.983 58.3053C233.746 58.0332 233.572 57.7109 233.476 57.3625C233.464 57.3185 233.454 57.2737 233.448 57.2285C233.36 57.622 233.37 58.031 233.476 58.4199C233.572 58.7683 233.746 59.0906 233.983 59.3627C234.221 59.6349 234.517 59.85 234.849 59.992C235.38 60.207 235.979 60.2105 236.482 60.5031C236.985 60.7956 237.376 61.4195 237.862 61.8213C238.214 62.0937 238.623 62.2838 239.058 62.3777C239.494 62.4716 239.945 62.467 240.378 62.3641C241.246 62.1496 242.071 61.7846 242.813 61.2855C243.17 61.0155 243.599 60.8584 244.045 60.8344C244.349 60.8792 244.639 60.9886 244.897 61.1551C245.521 61.462 246.08 61.8883 246.541 62.41C247.572 63.7 247.438 65.6775 247.998 67.2953C248.1 67.5879 248.269 67.9051 248.543 67.9368C248.712 67.9377 248.876 67.8776 249.004 67.7677C249.439 67.4524 249.807 67.0528 250.085 66.5927C250.363 66.1325 250.546 65.6211 250.623 65.0888C250.687 64.6799 250.694 64.264 250.764 63.8551C250.853 63.434 250.97 63.0194 251.116 62.6144C251.459 61.6651 251.618 60.659 251.584 59.65C251.577 59.6078 251.57 59.5584 251.563 59.5091Z" fill="black"/>
</g>
<path d="M229.295 87.792L229.056 91.0101C229.021 91.4472 228.186 101.852 222.034 114.013C216.755 124.443 206.482 138.027 187.086 145.662C185.572 146.261 184.001 146.821 182.373 147.34L180.557 141.63C185.116 140.193 189.508 138.269 193.657 135.891C203.543 130.174 211.229 122.014 216.59 111.514C219.434 105.923 221.46 99.9523 222.608 93.7841H200.541V87.792H229.295Z" fill="#68AE29"/>
<path opacity="0.1" d="M184.71 145.666C204.103 138.032 214.379 124.451 219.655 114.021C225.807 101.86 226.645 91.4621 226.677 91.0179L226.916 87.7998H229.38L229.14 91.0179C229.109 91.455 228.271 101.86 222.119 114.021C216.84 124.451 206.566 138.032 187.174 145.666C185.66 146.266 184.088 146.826 182.458 147.348L182.218 146.597C183.068 146.294 183.898 145.984 184.71 145.666Z" fill="white"/>
<path d="M145.883 141.63L144.067 147.34C142.436 146.818 140.864 146.258 139.351 145.659C119.958 138.024 109.682 124.443 104.406 114.013C98.2537 101.852 97.4161 91.4543 97.3844 91.0101L97.1451 87.792H125.885V93.7841H103.815C104.968 99.9531 107.001 105.924 109.85 111.514C115.211 122.014 122.894 130.174 132.78 135.888C136.929 138.268 141.322 140.193 145.883 141.63Z" fill="#68AE29"/>
<path opacity="0.1" d="M141.723 145.666C122.331 138.032 112.054 124.451 106.778 114.021C100.626 101.86 99.7882 91.4621 99.7566 91.0179L99.5172 87.7998H97.0536L97.2929 91.0179C97.3246 91.455 98.1622 101.86 104.314 114.021C109.594 124.451 119.867 138.032 139.259 145.666C140.773 146.266 142.345 146.826 143.976 147.348L144.215 146.597C143.368 146.294 142.537 145.984 141.723 145.666Z" fill="white"/>
<path d="M196.419 196.828V229.14H130.017V196.828L132.129 194.008C153.647 186.359 158.008 166.412 158.877 158.52C159.006 157.43 159.08 156.333 159.099 155.235H167.31C167.328 156.333 167.402 157.43 167.531 158.52C168.415 166.412 172.775 186.366 194.28 194.008L196.419 196.828Z" fill="#68AE29"/>
<path opacity="0.1" d="M196.419 196.828H130.017V200.882H196.419V196.828Z" fill="black"/>
<path opacity="0.1" d="M135.648 194.008C157.167 186.359 161.527 166.412 162.396 158.52C162.526 157.43 162.6 156.333 162.618 155.235H159.099C159.08 156.333 159.006 157.43 158.877 158.52C157.994 166.412 153.633 186.366 132.129 194.008L130.017 196.828V229.14H133.537V196.828L135.648 194.008Z" fill="white"/>
<path opacity="0.1" d="M119.93 87.792H125.885V93.7841H120.458C120.245 91.8103 120.069 89.8129 119.93 87.792Z" fill="black"/>
<path opacity="0.1" d="M145.883 141.63L144.067 147.34C142.436 146.818 140.864 146.258 139.351 145.658C136.861 142.614 134.661 139.343 132.78 135.888C136.929 138.268 141.322 140.193 145.883 141.63Z" fill="black"/>
<path opacity="0.1" d="M180.554 141.63C185.113 140.193 189.505 138.269 193.653 135.892C191.771 139.347 189.571 142.619 187.082 145.666C185.569 146.265 183.998 146.824 182.37 147.344L180.554 141.63Z" fill="black"/>
<path opacity="0.1" d="M206.503 87.792C206.364 89.8129 206.188 91.8103 205.975 93.7841H200.551V87.792H206.503Z" fill="black"/>
<path opacity="0.1" d="M167.545 158.52C164.687 159.075 161.749 159.075 158.891 158.52C159.02 157.43 159.094 156.333 159.113 155.235H167.324C167.342 156.333 167.416 157.43 167.545 158.52Z" fill="black"/>
<path d="M120.634 77.8662C120.785 122.3 139.791 158.232 163.22 158.232C186.649 158.232 205.651 122.3 205.806 77.8662H120.634Z" fill="#68AE29"/>
<path opacity="0.1" d="M128.201 77.8662H120.634C120.785 122.3 139.791 158.232 163.22 158.232C164.488 158.229 165.753 158.122 167.004 157.911C145.345 154.287 128.345 119.882 128.201 77.8662Z" fill="white"/>
<path d="M185.801 209.197H140.635V220.829H185.801V209.197Z" fill="#3F3D56"/>
<path opacity="0.1" d="M142.747 210.783H185.801V209.197H140.635V220.829H142.747V210.783Z" fill="white"/>
<path d="M96.5467 120.767C95.7337 120.496 90.9472 116.703 90.5847 114.986C90.2222 113.27 93.1152 97.2779 93.1152 97.2779C93.1152 97.2779 92.8478 97.2779 92.4113 97.225V96.9677L93.0061 75.9599C93.0061 75.9599 95.4451 61.8607 90.8381 62.682C86.2311 63.5033 89.1206 75.9599 89.1206 75.9599C89.1206 75.9599 88.5962 82.2834 88.2267 84.1797C87.8747 86.0091 86.2628 93.4605 87.3609 95.7763C87.4011 95.8586 87.4457 95.9386 87.4946 96.016C87.4946 96.016 87.6776 103.964 85.6891 105.05C83.7921 106.083 83.0037 111.282 82.9369 111.747L82.8348 111.705C82.2684 111.35 81.7711 110.895 81.3672 110.362C81.3249 110.309 81.2933 110.253 81.2545 110.196C82.5494 108.737 83.2473 106.843 83.2088 104.891C83.1703 102.94 82.3983 101.074 81.0469 99.6677C80.4185 99.014 79.6813 98.4749 78.8683 98.0745C78.8447 97.401 78.6855 96.7392 78.4002 96.1288C77.4852 94.169 72.4171 91.6065 68.8167 91.5466C67.1555 91.4972 65.7934 91.9695 65.2972 93.2702C65.0438 93.9293 65.1212 94.6801 65.0156 95.3639C64.8044 96.7738 63.8999 97.8771 62.7385 98.7548C62.2695 98.2304 61.7625 97.7415 61.2216 97.292C60.0461 96.3896 57.7021 93.4147 57.7021 93.4147C57.7021 93.4147 50.3851 85.8258 49.8431 83.7462C49.3011 81.6665 41.9911 69.1782 40.3651 71.353C38.7391 73.5278 45.9646 83.006 45.9646 83.006C45.9646 83.006 47.3372 86.4497 48.393 87.6129C49.4489 88.7761 57.5437 100.549 57.5437 100.549L57.9309 101.353C56.2204 102.255 54.6577 103.404 54.1052 105.195C53.2957 107.831 55.066 110.482 56.2908 112.949C58.677 117.764 59.0184 123.904 55.9388 128.303C53.1795 132.187 48.393 134.034 43.9127 135.649C46.0765 137.35 48.7645 138.244 51.5148 138.176C50.4801 141.179 46.8128 142.173 43.6875 142.73C45.3276 144.309 47.6751 144.884 49.9275 145.233C51.0307 145.421 52.1485 145.509 53.2675 145.497H53.5421L53.8166 145.476C54.1981 145.451 54.5777 145.402 54.9534 145.331C56.5794 145 58.1596 144.112 58.9902 142.674C59.6941 141.444 59.9405 139.766 61.2181 139.149C61.5507 138.999 61.9092 138.914 62.2739 138.899H62.2352C62.4745 138.899 62.7209 138.899 62.9602 138.899L68.2852 138.952C68.5069 138.952 68.7357 138.952 68.9645 138.952C70.4673 138.916 72.0722 138.655 72.8359 137.411C73.1501 136.807 73.3154 136.136 73.3181 135.455C73.4307 133.767 73.3181 132.029 73.3638 130.326C73.8179 133.425 74.293 138.254 73.1632 140.037C72.2454 141.389 71.1329 142.597 69.8619 143.622C69.5423 143.891 69.2499 144.191 68.9891 144.517C68.8167 144.641 68.7146 144.708 68.7146 144.708L68.6055 145.035C68.2043 145.645 67.9136 146.32 67.7467 147.03C67.6853 147.213 67.6625 147.406 67.6799 147.598C67.803 147.848 66.8 148.881 67.0921 149.314C64.5862 152.258 64.1111 156.717 64.1111 156.717L59.5358 163.674C57.1847 169.86 53.6652 170.495 53.6652 170.495C53.6652 170.495 45.3979 164.94 45.1727 164.668C44.9475 164.397 41.7869 163.04 41.7869 163.04C41.4143 162.386 40.8454 161.865 40.1609 161.553C39.0769 161.101 38.9854 159.438 38.9854 159.438C38.8517 155.508 36.5464 155.208 36.5464 155.208C34.6881 155.049 33.2698 155.381 32.1787 155.987L31.8479 156.012C30.2501 156.142 28.3284 156.287 26.2167 156.427C20.3427 156.815 18.9454 160.626 18.9454 160.626C18.9454 160.626 18.2239 161.44 19.1707 162.321C20.1174 163.202 26.178 162.321 26.4349 162.3C25.973 162.35 25.5059 162.318 25.0553 162.205C26.0091 162.169 27.3218 162.134 28.441 162.134H28.712C28.6416 162.728 28.6075 163.326 28.61 163.925C28.61 165.053 31.7247 165.775 31.7247 165.775L41.2097 174.235C41.2097 174.235 47.1718 176.903 50.9658 180.742C54.7598 184.58 58.1139 181.267 58.1139 181.267C62.1296 180.273 73.6841 166.283 73.6947 166.269C73.6947 166.678 73.9375 180.283 74.3986 183.015C74.4169 183.154 74.4511 183.29 74.5006 183.42C75.0426 184.594 74.3176 187.802 74.0044 189.155C73.8046 190.288 73.7279 191.439 73.7756 192.588C73.7756 192.588 69.4431 209.155 69.8021 210.611C70.1611 212.066 67.4546 218.83 67.4546 218.83V224.47L67.9262 224.445C67.8649 224.536 67.8085 224.63 67.7573 224.727L67.7256 224.787C67.7256 224.787 70.6151 225.418 72.5579 225.239C74.5006 225.059 77.8371 226.737 77.8371 226.737C77.8371 226.737 78.9669 227.272 82.4441 227.498C85.9214 227.724 85.9214 225.961 85.9214 225.961C85.5237 223.561 80.0298 222.757 79.8608 222.732C79.4174 222.454 79.0021 222.151 78.6607 221.89L78.5903 221.834C78.6133 221.781 78.6333 221.727 78.6501 221.671C79.2379 219.275 75.9859 218.235 75.9859 218.235V217.65C78.0976 216.564 78.5164 209.113 78.5164 209.113C78.5164 209.113 81.6839 199.899 82.1274 198.362C82.5708 196.825 82.1274 194.523 82.1274 194.523L82.4441 192.535C82.4441 192.535 83.1234 191.182 83.1234 190.911C83.2113 190.223 83.4756 189.569 83.8906 189.014C84.3869 188.426 83.3486 187.026 83.3486 187.026L84.2532 184.679V182.102L86.3649 172.754C86.3649 172.754 88.5786 161.866 87.8114 158.303C87.0441 154.739 88.7159 152.927 88.7159 152.927C88.5652 153.007 88.4101 153.077 88.2513 153.139C88.4626 152.65 88.6448 152.148 88.7968 151.637L93.5481 152.226V152.296H95.2621C95.2621 152.296 94.7201 145.599 94.7201 142.899C94.7201 140.199 96.5467 130.51 96.5467 130.51C96.5467 130.51 97.3597 121.039 96.5467 120.767ZM75.4544 112.949C75.4544 113.213 75.4298 113.488 75.4122 113.77L75.3172 113.915L75.1412 113.767L74.9265 114.102L74.8631 114.133C74.3986 113.894 74.1592 112.523 73.8249 112.819L73.7791 112.857C73.7052 112.773 73.6313 112.748 73.5539 112.819L73.4835 112.879C73.4835 112.776 73.4835 112.671 73.4835 112.565C74.1274 112.731 74.7896 112.815 75.4544 112.815C75.4579 112.861 75.4544 112.907 75.4544 112.949ZM91.2569 144.137H91.359L91.1901 144.581C91.2112 144.433 91.2323 144.288 91.2569 144.137ZM73.9094 224.068L73.2618 223.906L73.6137 223.846L73.941 224.061L73.9798 224.089L73.9094 224.068ZM80.526 223.12C80.3113 223.007 80.0931 222.877 79.8819 222.743C79.9523 222.782 80.2304 222.926 80.526 223.12Z" fill="url(#paint1_linear)"/>
<path d="M93.5939 137.478L89.3318 148.602H90.3665L86.3578 151.802L93.5939 152.705V137.478Z" fill="#F86D70"/>
<path opacity="0.1" d="M93.5939 137.478L89.3318 148.602L88.2583 148.313L86.3578 151.802L93.5939 152.705V137.478Z" fill="black"/>
<path d="M86.9104 144.594H93.5939L96.047 124.379H86.9104V144.594Z" fill="#F86D70"/>
<path opacity="0.1" d="M86.9104 144.594H93.5939L96.047 124.379H86.9104V144.594Z" fill="black"/>
<path d="M73.8566 129.166L75.2996 128.923L78.6149 128.359C78.6149 128.359 88.5716 126.11 90.627 125.927C91.8721 125.762 93.0863 125.416 94.2309 124.898C94.7694 124.665 95.1108 124.489 95.1108 124.489L91.5244 117.929L85.9601 113.798C85.9601 113.798 82.4406 113.048 80.9519 110.996C80.6196 110.555 80.4033 110.037 80.3228 109.49C80.2422 108.943 80.3 108.385 80.4908 107.866C81.3989 105.046 75.0673 110.563 75.0673 110.563C75.0673 110.563 75.1271 111.884 75.0673 113.569C75.0673 113.901 75.0356 114.246 75.011 114.598C75.011 114.831 74.9793 115.064 74.9547 115.303C74.7998 116.978 74.4831 118.701 73.8566 119.731C72.3256 122.247 73.8566 129.166 73.8566 129.166Z" fill="#FBBEBE"/>
<path opacity="0.1" d="M75.0673 113.709H75.2081C75.4615 113.709 75.6656 113.17 75.912 113.145C77.8934 112.955 79.7025 112.539 80.9589 111.133C80.6275 110.691 80.4118 110.174 80.3312 109.628C80.2507 109.082 80.308 108.524 80.4979 108.006C81.4059 105.186 75.0743 110.699 75.0743 110.699C75.0743 110.699 75.1412 112.024 75.0673 113.709Z" fill="black"/>
<path d="M67.3596 105.716C67.3591 106.731 67.5584 107.736 67.9459 108.673C68.3334 109.611 68.9017 110.463 69.6181 111.18C70.3346 111.898 71.1853 112.467 72.1215 112.855C73.0577 113.243 74.0611 113.443 75.0743 113.442C75.3277 113.442 75.5776 113.442 75.8275 113.407C77.314 113.261 78.7262 112.686 79.8927 111.752C81.0592 110.817 81.9298 109.564 82.3989 108.144C82.8679 106.723 82.9151 105.197 82.5349 103.751C82.1547 102.304 81.3634 100.999 80.257 99.9943C79.1505 98.9894 77.7766 98.3277 76.302 98.0897C74.8274 97.8516 73.3155 98.0474 71.9498 98.6532C70.5842 99.2591 69.4235 100.249 68.6086 101.503C67.7938 102.756 67.3599 104.22 67.3596 105.716Z" fill="#FBBEBE"/>
<path d="M64.991 93.9887C64.7376 94.6443 64.815 95.3774 64.713 96.0718C64.3364 98.5779 61.7918 100.08 59.49 101.13C57.1883 102.18 54.5909 103.425 53.8588 105.846C53.0564 108.465 54.8091 111.091 56.0268 113.548C58.399 118.334 58.7369 124.439 55.6749 128.817C52.9543 132.694 48.2136 134.534 43.7508 136.149C45.8987 137.841 48.5681 138.731 51.3002 138.665C50.276 141.651 46.6333 142.641 43.5291 143.191C45.1586 144.763 47.4921 145.334 49.7269 145.68C51.3565 145.934 53.0282 146.099 54.6542 145.771C56.2802 145.444 57.8218 144.559 58.6594 143.128C59.3633 141.905 59.6026 140.238 60.8732 139.621C61.4467 139.395 62.0646 139.304 62.6787 139.356L67.9579 139.413C69.6015 139.413 71.5478 139.286 72.396 137.879C72.7089 137.279 72.873 136.611 72.8747 135.934C73.1034 132.465 72.4382 128.8 73.8636 125.634C74.293 124.679 71.5373 123.167 71.8258 122.155C72.8183 118.676 73.0682 115.938 73.0577 112.318C73.0577 109.515 74.8773 107.101 76.3801 104.736C77.8829 102.371 79.1394 99.3851 77.9533 96.8473C76.6159 94.0169 66.5713 89.9034 64.991 93.9887Z" fill="#3F3D56"/>
<path d="M72.0194 223.052L73.3639 223.944L73.5715 224.082L73.6102 224.106L75.2045 225.164L78.9282 225.791L82.2013 225.565C82.2013 225.565 83.1445 223.592 81.6628 223.637C81.1882 223.613 80.7257 223.479 80.3113 223.246L80.1072 223.144C79.8925 223.031 79.6778 222.904 79.4667 222.77C79.0267 222.492 78.6114 222.189 78.2771 221.931C77.7843 221.551 77.457 221.262 77.457 221.262L72.0194 223.052Z" fill="#FBBEBE"/>
<path opacity="0.1" d="M73.3814 223.945L73.5891 224.082L73.6278 224.107L75.2221 225.165L78.9458 225.792L82.2189 225.566C82.2189 225.566 83.1621 223.593 81.6804 223.638C81.2058 223.614 80.7433 223.48 80.3289 223.247C80.5894 223.452 80.8076 223.674 80.8287 223.86C80.8885 224.364 78.4073 225.27 78.4073 225.27L74.9089 224.343C74.9089 224.343 74.3141 224.174 73.5011 223.963L73.4237 223.941L73.3814 223.945Z" fill="black"/>
<path d="M67.3983 224.804C67.3983 224.804 70.2667 225.432 72.1954 225.252C74.1241 225.072 77.4465 226.736 77.4465 226.736C77.4465 226.736 78.5692 227.265 82.0218 227.49C85.4744 227.716 85.4744 225.96 85.4744 225.96C85.0802 223.574 79.625 222.788 79.4561 222.753C79.523 222.788 79.808 222.933 80.0966 223.127C80.4838 223.38 80.9026 223.712 80.9343 223.98C80.9941 224.48 78.5129 225.389 78.5129 225.389L75.0145 224.466C75.0145 224.466 74.4197 224.293 73.6067 224.082H73.5293C72.3238 223.753 71.0989 223.5 69.8619 223.324C68.3556 223.162 67.5848 224.445 67.4265 224.734C67.415 224.756 67.4055 224.78 67.3983 224.804Z" fill="#3F3D56"/>
<path d="M22.1869 161.418L23.7108 162.588C23.7108 162.588 24.1543 162.567 24.816 162.545H25.0271C25.9739 162.51 27.2796 162.475 28.3882 162.475C29.1049 162.443 29.823 162.483 30.5316 162.595C31.2918 162.863 32.6433 158.238 32.6433 158.238L31.1158 157.886L30.609 157.766L30.2571 157.681L29.0147 157.389L25.2489 157.819L22.6022 159.525L22.1869 161.418Z" fill="#FBBEBE"/>
<path opacity="0.1" d="M22.1869 161.418L23.7108 162.588C23.7108 162.588 24.1543 162.567 24.816 162.546C24.5123 162.428 24.262 162.204 24.1121 161.915C23.1266 159.176 28.0152 158.006 28.0152 158.006L30.2923 157.907L30.7357 157.886H31.0877L30.5809 157.766L30.2289 157.681L28.9866 157.389L25.2207 157.819L22.574 159.525L22.1869 161.418Z" fill="black"/>
<path d="M19.1812 162.655C20.1033 163.508 26.1428 162.655 26.3962 162.634C25.9378 162.686 25.4739 162.654 25.0271 162.539C24.8059 162.499 24.5963 162.411 24.4136 162.28C24.231 162.148 24.0798 161.978 23.9713 161.781C22.9858 159.039 27.8744 157.872 27.8744 157.872L30.1515 157.773L30.5914 157.752L36.1276 157.513L36.3951 155.986C36.3951 155.986 34.5966 156.156 31.774 156.381C30.1867 156.512 28.2545 156.656 26.1674 156.793C20.3356 157.181 18.9489 160.97 18.9489 160.97C18.9489 160.97 18.2415 161.781 19.1812 162.655Z" fill="#3F3D56"/>
<path d="M86.9139 96.4948C86.9514 96.5785 86.9961 96.6587 87.0477 96.7345L88.3921 98.7084L91.8905 99.0609L91.9292 97.6721L92.5169 76.7771C92.5169 76.7771 94.9384 62.7625 90.363 63.5697C85.7877 64.3769 88.6596 76.7771 88.6596 76.7771C88.6596 76.7771 88.1387 83.0654 87.7727 84.9547C87.4172 86.7805 85.8229 94.2037 86.9139 96.4948Z" fill="#FBBEBE"/>
<path d="M79.0619 148.394L80.0579 150.1L82.2857 153.918C82.2857 153.918 86.3261 155.402 87.3609 154.27C87.9275 153.653 88.5399 151.5 88.9693 149.688C89.3212 148.222 89.557 146.984 89.557 146.984L79.0619 148.394Z" fill="#FBBEBE"/>
<path opacity="0.1" d="M79.0619 148.394L80.0579 150.1C80.1204 150.046 80.177 149.986 80.2268 149.92C81.3531 148.482 86.3121 149.614 88.9693 149.705C89.3212 148.239 89.557 147.002 89.557 147.002L79.0619 148.394Z" fill="black"/>
<path opacity="0.1" d="M28.3882 162.468C29.1049 162.436 29.823 162.476 30.5316 162.588C31.2918 162.856 32.6433 158.232 32.6433 158.232L30.609 157.752L36.1452 157.513L36.4127 155.986C36.4127 155.986 34.6142 156.156 31.7916 156.381C31.2084 156.717 30.6879 157.153 30.2536 157.668L30.1691 157.773C28.9901 159.222 28.5537 161.09 28.3882 162.468Z" fill="black"/>
<path opacity="0.1" d="M72.0194 223.053L73.5715 224.082C75.8873 223.663 78.0025 223.003 78.2524 221.967C78.2536 221.951 78.2536 221.934 78.2524 221.918C77.7597 221.537 77.4324 221.248 77.4324 221.248L72.0194 223.053Z" fill="black"/>
<path opacity="0.1" d="M67.43 224.744C69.4751 224.642 71.5127 224.423 73.5328 224.089C72.3263 223.757 71.1003 223.502 69.862 223.324C68.3591 223.162 67.5884 224.445 67.43 224.744Z" fill="black"/>
<path d="M28.5572 164.249C28.5572 165.373 31.6508 166.093 31.6508 166.093L41.0725 174.492C41.0725 174.492 46.9923 177.143 50.7582 180.96C54.524 184.777 57.8464 181.499 57.8464 181.499C61.8375 180.512 73.3322 166.586 73.3322 166.586C73.3322 166.586 73.5997 182.49 74.1381 183.657C74.6766 184.823 73.9587 188.013 73.6454 189.363C73.4478 190.489 73.3723 191.633 73.4202 192.775C73.4202 192.775 69.1158 209.261 69.4748 210.699C69.8338 212.137 67.1414 218.876 67.1414 218.876V224.491C67.1414 224.491 77.6823 224.086 78.263 221.707C78.8437 219.328 75.6199 218.291 75.6199 218.291V217.706C77.7315 216.628 78.1293 209.218 78.1293 209.218C78.1293 209.218 81.2722 200.054 81.7191 198.528C82.1661 197.001 81.7191 194.707 81.7191 194.707L82.0324 192.733C82.0324 192.733 82.7046 191.383 82.7046 191.115C82.7925 190.431 83.0556 189.781 83.4683 189.229C83.9611 188.644 82.9298 187.252 82.9298 187.252L83.8273 184.915V182.356L85.939 173.058C85.939 173.058 88.1387 162.229 87.375 158.68C86.6112 155.13 88.2724 153.336 88.2724 153.336C84.672 155.226 82.8559 151.021 82.2611 149.212C82.1098 148.747 82.0359 148.437 82.0359 148.437C82.0359 148.437 77.091 146.611 72.4875 147.048C71.5526 147.124 70.6312 147.319 69.7458 147.63C64.632 149.473 63.826 157.108 63.826 157.108L59.2964 164.027C56.963 170.181 53.4646 170.809 53.4646 170.809C53.4646 170.809 45.2572 165.285 45.0179 165.014C44.7785 164.743 41.6532 163.396 41.6532 163.396C41.2837 162.745 40.7184 162.227 40.0378 161.916C38.9608 161.464 38.8728 159.801 38.8728 159.801C38.7391 155.892 36.4514 155.571 36.4514 155.571C28.5114 154.908 28.5572 163.128 28.5572 164.249Z" fill="#3F3D56"/>
<path d="M74.2191 142.285H79.0619V127.238H74.2191V142.285Z" fill="#F86D70"/>
<path opacity="0.1" d="M74.2191 142.285H79.0619V127.238H74.2191V142.285Z" fill="black"/>
<path opacity="0.1" d="M86.9104 96.4629C86.9096 96.4735 86.9096 96.4841 86.9104 96.4946C86.9478 96.5783 86.9926 96.6585 87.0441 96.7343L88.3886 98.7082L91.8869 99.0607L91.9257 97.6719C90.8346 97.5873 88.3498 97.2877 86.9104 96.4629Z" fill="black"/>
<path d="M87.0476 96.7344C87.0476 96.7344 87.2271 104.637 85.2527 105.716C83.2783 106.794 82.511 112.413 82.511 112.413C82.511 112.413 88.4942 116.353 89.828 118.088C91.1619 119.822 94.2239 123.953 93.5939 124.94C92.9639 125.927 95.1214 130.421 95.1214 130.421C95.1214 130.421 91.1725 138.507 92.07 141.563C92.9674 144.619 93.0554 152.701 93.0554 152.701H94.7624C94.7624 152.701 94.2239 146.053 94.2239 143.357C94.2239 140.66 96.0153 131.048 96.0153 131.048C96.0153 131.048 96.8248 121.616 96.0153 121.348C95.2058 121.08 90.4545 117.305 90.0955 115.596C89.7365 113.886 92.6084 97.9716 92.6084 97.9716C92.6084 97.9716 88.9306 97.813 87.0476 96.7344Z" fill="#F86D70"/>
<path opacity="0.1" d="M74.1276 125.842C74.2913 126.941 74.6912 127.992 75.2996 128.922L78.6149 128.358C78.6149 128.358 88.5716 126.109 90.627 125.926C91.8721 125.762 93.0864 125.415 94.2309 124.897C93.4421 122.097 91.9022 119.568 89.7788 117.583L88.5153 116.409C86.6534 114.678 84.4956 113.297 82.145 112.331C82.2928 112.454 92.7387 121.386 90.451 123.138C88.1633 124.89 82.0042 120.625 82.0042 120.625L75.0004 114.597L74.747 114.379L74.3423 115.01C74.5482 115.095 74.7491 115.191 74.9441 115.299C77.3311 116.611 79.1025 118.816 79.8714 121.432C81.3109 126.279 74.1276 125.842 74.1276 125.842Z" fill="black"/>
<path d="M71.9736 148.302C71.9736 148.302 78.6114 151.986 80.2233 149.92C80.5753 149.466 81.3179 149.268 82.2435 149.215C82.0922 148.75 82.0183 148.44 82.0183 148.44C82.0183 148.44 77.0734 146.614 72.4699 147.051C72.1672 147.812 71.9736 148.302 71.9736 148.302Z" fill="#444053"/>
<path d="M75.0286 114.386L82.2858 120.639C82.2858 120.639 84.6877 121.765 87 120C89.3123 118.234 82.423 112.342 82.423 112.342C84.7686 113.31 86.9242 114.687 88.7898 116.409L90.0533 117.583C93.3757 120.667 94.1254 120.667 94.238 125.2C94.2661 126.318 93.886 127.921 93.5939 128.21C92.5169 129.268 91.7638 136.948 91.9292 137.847C92.0946 138.746 89.3494 152.342 90.0533 154.5C90.7572 156.657 82.5 154.5 80.1389 153.5C77.5 153 71.9736 148.034 71.9736 148.034C71.9736 148.034 75.6515 138.598 76.549 137.971C77.4465 137.343 78.5234 132.49 76.549 130.244C74.5746 127.999 74.3986 125.842 74.3986 125.842C74.3986 125.842 81.5784 126.286 80.1389 121.439C79.7339 120.035 79.0313 118.734 78.079 117.625C77.1267 116.517 75.947 115.627 74.6203 115.017L75.0286 114.386Z" fill="#E8E8F0"/>
<path opacity="0.1" d="M84.7142 130.291C84.7142 130.291 81.9303 135.546 78.3298 136.911C78.2137 136.953 78.1011 136.992 77.9779 137.027C74.2191 138.172 84.9958 131.919 84.7142 130.291Z" fill="black"/>
<path d="M45.7816 83.7955C45.7816 83.7955 47.126 87.211 48.203 88.3777C49.28 89.5444 57.2622 101.226 57.2622 101.226L57.9379 102.636L58.5186 103.837L63.6325 103.298L63.9844 101.233L63.7873 100.993C63.2735 100.376 61.8727 98.7195 60.933 97.9969C59.7681 97.1016 57.4346 94.1372 57.4346 94.1372C57.4346 94.1372 50.1704 86.5871 49.6319 84.5216C49.0934 82.456 41.8257 70.0699 40.2137 72.213C38.6018 74.3561 45.7816 83.7955 45.7816 83.7955Z" fill="#FBBEBE"/>
<g opacity="0.1">
<path opacity="0.1" d="M60.6198 139.357C60.0059 139.304 59.3881 139.393 58.8143 139.618C57.5472 140.234 57.3079 141.902 56.604 143.125C55.7805 144.556 54.2108 145.44 52.5953 145.768C52.2742 145.831 51.9499 145.875 51.6239 145.902C52.6528 146.002 53.6907 145.957 54.707 145.768C56.3225 145.44 57.8921 144.556 58.7157 143.125C59.4196 141.902 59.6589 140.234 60.926 139.618C61.2586 139.468 61.6172 139.384 61.9818 139.371L60.6198 139.357Z" fill="black"/>
<path opacity="0.1" d="M73.121 112.318C73.121 109.515 74.9406 107.101 76.4399 104.736C77.9392 102.371 79.1992 99.3851 78.0131 96.8473C76.9995 94.6795 70.8896 91.7716 67.3631 92.3461C70.8157 92.7938 75.0708 95.0708 75.9014 96.8473C77.0875 99.3851 75.8275 102.371 74.3282 104.736C72.8289 107.101 71.0023 109.515 71.0093 112.318C71.0093 115.934 70.7665 118.662 69.774 122.155C69.4889 123.16 72.2376 124.679 71.8153 125.631C70.3863 128.803 71.0551 132.462 70.8263 135.93C70.8215 136.608 70.6563 137.275 70.3441 137.876C69.6402 139.036 68.1972 139.335 66.793 139.399H68.0213C69.6613 139.399 71.6076 139.272 72.4558 137.865C72.768 137.264 72.9332 136.597 72.938 135.92C73.1667 132.451 72.498 128.789 73.927 125.62C74.3563 124.668 71.6006 123.153 71.8857 122.145C72.8782 118.676 73.128 115.934 73.121 112.318Z" fill="black"/>
</g>
<path opacity="0.1" d="M57.9379 102.628L58.5186 103.83L63.6325 103.291L63.9844 101.225L63.7873 100.985C63.2418 101.253 59.1556 103.224 57.9379 102.628Z" fill="black"/>
<path opacity="0.1" d="M76.82 116.138C76.82 116.138 75.5635 114.164 74.8455 114.7C74.1276 115.236 73.8495 113.082 73.4378 113.442C73.026 113.801 71.8258 114.802 71.3261 113.403C70.9354 112.289 66.6839 105.243 64.9593 102.409C64.5158 101.676 64.2378 101.225 64.2378 101.225C64.2378 101.225 59.395 103.65 58.23 102.842V104.548L59.2155 104.64L64.4947 114.51C64.4947 114.51 66.1559 117.157 66.0433 118.08C65.9307 119.004 68.1726 123.047 68.5316 123.315C68.8906 123.582 72.755 128.077 72.755 128.077C72.755 128.077 74.7294 137.78 73.0225 140.477C71.3155 143.173 68.3591 145.147 68.3591 145.147C68.3591 145.147 67.4687 147.752 67.5989 148.023C67.7291 148.295 66.5642 149.461 67.1027 149.821C67.6412 150.18 68.3591 152.694 68.3591 152.694C68.3591 152.694 70.872 148.651 72.2306 148.023C73.5891 147.396 75.3277 139.127 75.3277 139.127C75.3277 139.127 75.824 134.255 75.8627 131.111C75.9014 127.967 75.743 116.138 76.82 116.138Z" fill="black"/>
<path d="M76.549 116.138C76.549 116.138 75.2961 114.164 74.5781 114.7C73.8601 115.236 73.5786 113.082 73.1703 113.442C72.762 113.801 71.5619 114.802 71.0586 113.403C70.6644 112.289 66.4129 105.243 64.6918 102.409L63.9703 101.225C63.9703 101.225 59.1275 103.65 57.959 102.842V104.548L58.948 104.64L64.2273 114.51C64.2273 114.51 65.892 117.157 65.7758 118.08C65.6597 119.004 67.8875 123.047 68.2641 123.315C68.6407 123.582 72.4875 128.077 72.4875 128.077C72.4875 128.077 74.462 137.78 72.7585 140.477C71.8587 141.831 70.764 143.045 69.51 144.079C68.4567 144.949 67.7153 146.14 67.3983 147.47C67.3372 147.651 67.3156 147.844 67.335 148.034C67.4652 148.302 66.3002 149.472 66.8387 149.832C67.3772 150.191 68.1022 152.715 68.1022 152.715C68.1022 152.715 70.6151 148.672 71.9737 148.044C73.3322 147.417 75.0743 139.148 75.0743 139.148C75.0743 139.148 75.5671 134.277 75.6093 131.132C75.6515 127.988 75.4932 116.138 76.549 116.138Z" fill="#F86D70"/>
<path opacity="0.1" d="M64.2589 157.019C64.2589 157.019 68.0283 157.724 69.5382 158.813C71.0481 159.902 63.7979 157.107 63.7979 157.107L64.2589 157.019Z" fill="black"/>
<path opacity="0.1" d="M73.3216 166.585C73.3216 166.585 77.2529 169.867 76.549 172.831C75.8451 175.795 74.029 183.254 74.029 183.254L73.3216 166.585Z" fill="black"/>
<path opacity="0.1" d="M38.9397 160.276C38.9397 160.276 33.4 160.883 33.759 161.602C34.118 162.321 38.9397 160.939 38.9397 160.939V160.276Z" fill="black"/>
<path opacity="0.1" d="M81.4763 187.565C81.4763 187.565 81.8282 188.012 79.7729 187.565C77.7175 187.117 79.2344 185.735 79.2344 185.735L81.4763 187.565Z" fill="black"/>
<path opacity="0.1" d="M80.7724 193.764C80.7724 193.764 77.9568 194.212 76.4469 193.764C74.9371 193.317 80.7724 193.764 80.7724 193.764Z" fill="black"/>
<path opacity="0.1" d="M74.9793 218.023C74.9793 218.023 74.4866 217.484 72.0194 218.471C69.5522 219.458 68.5668 219.503 67.8488 219.176C67.1308 218.848 74.9793 218.023 74.9793 218.023Z" fill="black"/>
<path opacity="0.1" d="M77.7175 159.511L74.2191 164.386C74.2191 164.386 76.102 160.117 77.7175 159.511Z" fill="black"/>
<path opacity="0.1" d="M70.9178 114.7C70.9178 114.7 70.7665 116.318 68.5105 116.949C66.2545 117.58 65.8251 118.091 65.8251 118.091" fill="black"/>
<path opacity="0.1" d="M65.0543 102.974C65.0543 102.974 62.0768 105.088 58.9691 104.641L65.0543 102.974Z" fill="black"/>
<path opacity="0.1" d="M67.3209 148.257C67.3209 148.257 68.1902 148.803 70.2773 146.413L67.3209 148.257Z" fill="black"/>
<path opacity="0.1" d="M88.9974 122.917C89.0819 122.48 88.7792 122.074 88.4942 121.733L87.9099 121.028C87.7957 120.883 87.6672 120.751 87.5263 120.633C87.1743 120.361 86.7238 120.28 86.3578 120.037" fill="black"/>
<path opacity="0.1" d="M277.966 0.0386433C277.966 0.0386433 248.335 -1.75195 251.82 19.0443C251.82 19.0443 251.116 22.7207 254.452 24.3879C254.452 24.3879 254.505 22.8476 257.493 23.3728C258.557 23.5494 259.638 23.6014 260.714 23.5279C262.167 23.4274 263.548 22.8558 264.648 21.8994C264.648 21.8994 272.979 18.4522 276.217 4.81827C276.217 4.81827 278.614 1.84334 278.519 1.07846L273.517 3.21801C273.517 3.21801 275.228 6.83093 273.869 9.83405C273.869 9.83405 273.708 3.34843 272.747 3.48942C272.553 3.52114 270.149 4.74072 270.149 4.74072C270.149 4.74072 273.088 11.0325 270.871 15.6077C270.871 15.6077 271.712 7.85312 269.231 5.19542L265.711 7.2539C265.711 7.2539 269.146 13.7536 266.816 19.0584C266.816 19.0584 267.415 10.9232 264.969 7.75442L261.78 10.2465C261.78 10.2465 265.007 16.6545 263.04 21.0535C263.04 21.0535 262.783 11.5824 261.09 10.8668C261.09 10.8668 258.299 13.3342 257.873 14.3423C257.873 14.3423 260.084 18.995 258.711 21.4483C258.711 21.4483 257.87 15.1389 257.18 15.1036C257.18 15.1036 254.4 19.284 254.111 22.1532C254.111 22.1532 254.231 17.8917 256.508 14.7088C256.508 14.7088 253.819 15.1706 252.249 16.9154C252.249 16.9154 252.682 13.9616 257.194 13.7043C257.194 13.7043 259.492 10.532 260.105 10.3381C260.105 10.3381 255.621 9.96447 252.9 11.1699C252.9 11.1699 255.294 8.38183 260.928 9.65076L264.078 7.07414C264.078 7.07414 258.172 6.26696 255.667 7.15873C255.667 7.15873 258.549 4.69137 264.926 6.48902L268.354 4.43759C268.354 4.43759 263.318 3.35195 260.319 3.73263C260.319 3.73263 263.487 2.02311 269.361 3.87715L271.825 2.77389C271.825 2.77389 268.136 2.04778 267.056 1.93146C265.975 1.81514 265.919 1.51906 265.919 1.51906C268.256 1.12881 270.655 1.39605 272.849 2.29099C272.849 2.29099 278.058 0.366449 277.966 0.0386433Z" fill="#68AE29"/>
<path opacity="0.1" d="M241.42 5.32908C241.42 5.32908 228.046 4.51838 229.612 13.9155C229.612 13.9155 229.299 15.5792 230.798 16.3335C230.798 16.3335 230.823 15.6285 232.174 15.8717C232.654 15.9527 233.142 15.9763 233.628 15.9422C234.284 15.8975 234.909 15.6388 235.405 15.2056C235.405 15.2056 239.171 13.6511 240.635 7.48978C240.635 7.48978 241.715 6.14331 241.673 5.79788L239.414 6.76367C239.414 6.76367 240.188 8.39917 239.579 9.75622C239.579 9.75622 239.505 6.82359 239.072 6.89409C238.984 6.89409 237.897 7.45805 237.897 7.45805C237.897 7.45805 239.227 10.3026 238.224 12.3716C238.224 12.3716 238.604 8.86797 237.481 7.66602L235.891 8.59657C235.891 8.59657 237.446 11.5327 236.39 13.9296C236.39 13.9296 236.661 10.2532 235.556 8.82215L234.117 9.96066C234.117 9.96066 235.574 12.858 234.687 14.8425C234.687 14.8425 234.571 10.5634 233.804 10.2426C233.804 10.2426 232.544 11.3565 232.35 11.8147C232.35 11.8147 233.35 13.9296 232.73 15.0223C232.73 15.0223 232.35 12.1707 232.026 12.1601C232.026 12.1601 230.773 14.0494 230.639 15.3324C230.702 14.135 231.076 12.9748 231.724 11.9663C230.998 12.1038 230.329 12.4505 229.798 12.9638C229.798 12.9638 229.995 11.6314 232.033 11.5116C232.033 11.5116 233.089 10.0805 233.35 9.99238C233.35 9.99238 231.322 9.82319 230.094 10.3695C230.094 10.3695 231.174 9.10766 233.723 9.66458L235.13 8.50139C235.13 8.50139 232.463 8.14891 231.329 8.54017C231.329 8.54017 232.632 7.42633 235.514 8.23703L237.063 7.31001C237.063 7.31001 234.789 6.81654 233.43 6.99631C233.43 6.99631 234.863 6.22085 237.517 7.05975L238.625 6.56276C238.625 6.56276 236.957 6.23143 236.468 6.18208C235.979 6.13273 235.954 5.99526 235.954 5.99526C237.01 5.81924 238.095 5.94129 239.086 6.34774C239.086 6.34774 241.462 5.47712 241.42 5.32908Z" fill="#68AE29"/>
<path d="M288.137 229.38C295.953 229.38 302.289 228.307 302.289 226.983C302.289 225.659 295.953 224.586 288.137 224.586C280.322 224.586 273.986 225.659 273.986 226.983C273.986 228.307 280.322 229.38 288.137 229.38Z" fill="#68AE29"/>
<path d="M293.99 223.063C294.637 222.536 295.107 221.824 295.338 221.022C295.514 220.215 295.169 219.26 294.395 218.946C293.529 218.615 292.604 219.218 291.903 219.824C291.203 220.43 290.397 221.124 289.482 220.994C289.954 220.565 290.306 220.021 290.506 219.415C290.706 218.809 290.746 218.162 290.622 217.536C290.582 217.277 290.473 217.033 290.306 216.831C289.823 216.317 288.954 216.535 288.377 216.94C286.547 218.231 286.036 220.723 286.026 222.961C285.843 222.154 285.998 221.311 285.994 220.493C285.991 219.676 285.762 218.731 285.061 218.298C284.63 218.065 284.144 217.951 283.654 217.966C282.834 217.934 281.915 218.019 281.355 218.622C280.652 219.369 280.838 220.624 281.443 221.442C282.049 222.259 282.974 222.785 283.826 223.352C284.507 223.759 285.088 224.314 285.526 224.977C285.579 225.07 285.621 225.168 285.653 225.27H290.812C291.966 224.681 293.035 223.939 293.99 223.063Z" fill="#68AE29"/>
<defs>
<linearGradient id="paint0_linear" x1="250.24" y1="177.978" x2="250.24" y2="36.1756" gradientUnits="userSpaceOnUse">
<stop stop-color="#808080" stop-opacity="0.25"/>
<stop offset="0.54" stop-color="#808080" stop-opacity="0.12"/>
<stop offset="1" stop-color="#808080" stop-opacity="0.1"/>
</linearGradient>
<linearGradient id="paint1_linear" x1="13991.4" y1="88326" x2="31374.7" y2="88326" gradientUnits="userSpaceOnUse">
<stop stop-color="#808080" stop-opacity="0.25"/>
<stop offset="0.54" stop-color="#808080" stop-opacity="0.12"/>
<stop offset="1" stop-color="#808080" stop-opacity="0.1"/>
</linearGradient>
</defs>
</svg>
