<svg width="126" height="126" viewBox="0 0 126 126" fill="none" xmlns="http://www.w3.org/2000/svg">
<path d="M40.71 0.895508C34.8801 0.895508 30.1371 5.63847 30.1371 11.4682C30.1371 17.2981 34.8801 22.0411 40.71 22.0411C46.5398 22.0411 51.283 17.2981 51.283 11.4682C51.283 5.63847 46.54 0.895508 40.71 0.895508ZM40.71 17.119C37.594 17.119 35.059 14.584 35.059 11.4679C35.059 8.3519 37.594 5.81714 40.71 5.81714C43.8261 5.81714 46.3611 8.35215 46.3611 11.4679C46.3611 14.5837 43.8261 17.119 40.71 17.119Z" fill="white"/>
<path d="M88.6531 0.895508C82.8231 0.895508 78.0801 5.63847 78.0801 11.4682C78.0801 17.2981 82.8233 22.0411 88.6531 22.0411C94.4828 22.0411 99.226 17.2981 99.226 11.4682C99.226 5.63847 94.483 0.895508 88.6531 0.895508ZM88.6531 17.119C85.537 17.119 83.002 14.584 83.002 11.4679C83.002 8.3519 85.537 5.81714 88.6531 5.81714C91.7691 5.81714 94.3041 8.35215 94.3041 11.4679C94.3041 14.5837 91.7691 17.119 88.6531 17.119Z" fill="white"/>
<path d="M123.539 120.182H110.927L110.814 67.4662C110.811 66.1087 109.71 65.0104 108.353 65.0104C108.351 65.0104 108.349 65.0104 108.348 65.0104C106.989 65.0134 105.889 66.1176 105.892 67.4765L106.005 120.182H90.7266L90.6139 62.5876C90.6137 62.44 90.5982 62.296 90.5728 62.1555V59.3712C90.5728 56.9317 90.2042 54.5416 89.478 52.2396C92.0843 50.8 95.0146 50.041 98.0558 50.0344C98.0693 50.0344 98.0819 50.0344 98.0954 50.0344C102.747 50.0344 107.12 51.7829 110.41 54.9602C113.689 58.1269 115.501 62.3369 115.51 66.8182L115.55 77.809C115.555 79.1652 116.655 80.2611 118.01 80.2611C118.014 80.2611 118.016 80.2611 118.019 80.2611C119.378 80.2562 120.476 79.1505 120.472 77.7913L120.432 66.8042C120.42 60.9831 118.075 55.5193 113.829 51.4197C111.526 49.1955 108.81 47.5228 105.854 46.4591C107.985 44.2556 109.156 41.3633 109.149 38.2913C109.135 31.8375 103.88 26.5969 97.4297 26.5969C97.4214 26.5969 97.4128 26.5969 97.4044 26.5969C90.9425 26.6109 85.6965 31.8793 85.71 38.3412C85.7167 41.4718 86.942 44.4121 89.1603 46.6211C89.2331 46.6937 89.3089 46.7621 89.3832 46.8325C88.749 47.0946 88.1267 47.3862 87.5171 47.7063C84.514 42.3383 79.6113 38.3474 73.8114 36.3914C76.2937 34.0289 77.8458 30.6973 77.8458 27.0079C77.8458 19.8611 72.0316 14.0469 64.8851 14.0469C57.7385 14.0469 51.9243 19.8611 51.9243 27.0079C51.9243 30.8863 53.6388 34.3695 56.3471 36.7468C50.9997 38.7997 46.4886 42.6134 43.6531 47.6429C42.7915 47.1969 41.9041 46.8081 40.9955 46.4781C43.0492 44.3661 44.3175 41.4866 44.3175 38.3149C44.3175 31.8527 39.0602 26.5954 32.5981 26.5954C26.1359 26.5954 20.8786 31.8527 20.8786 38.3149C20.8786 41.6576 22.2875 44.6755 24.54 46.8123C16.5094 50.1104 10.8586 57.8511 10.8586 66.852V77.8427C10.8586 79.2019 11.9606 80.3037 13.3196 80.3037C14.6785 80.3037 15.7805 79.2019 15.7805 77.8427V66.852C15.7805 57.5786 23.5945 50.0344 33.1993 50.0344C36.1987 50.0344 39.0952 50.7675 41.6794 52.1653C40.9375 54.4902 40.5607 56.9053 40.5607 59.3712V78.5933V80.2801V120.182H25.7202V67.4933C25.7202 66.1341 24.6182 65.0323 23.2593 65.0323C21.9004 65.0323 20.7984 66.1341 20.7984 67.4933V120.182H2.46094C1.10201 120.182 0 121.284 0 122.643C0 124.003 1.10201 125.104 2.46094 125.104H23.2596H123.539C124.898 125.104 126 124.003 126 122.643C126 121.284 124.898 120.182 123.539 120.182ZM97.415 31.5188C97.4202 31.5188 97.4246 31.5188 97.4295 31.5188C101.171 31.5188 104.219 34.5588 104.227 38.3019C104.231 40.1176 103.527 41.8259 102.247 43.1128C100.965 44.3993 99.2597 45.1101 97.444 45.114C97.4389 45.114 97.4342 45.114 97.429 45.114C95.619 45.114 93.9163 44.4109 92.6331 43.1334C91.3463 41.8523 90.6358 40.1468 90.6319 38.3312C90.624 34.5829 93.6667 31.5269 97.415 31.5188ZM32.5981 45.1128C28.8501 45.1128 25.8005 42.0634 25.8005 38.3152C25.8005 34.5669 28.8498 31.5176 32.5981 31.5176C36.3461 31.5176 39.3957 34.5669 39.3957 38.3152C39.3957 42.0634 36.3461 45.1128 32.5981 45.1128ZM64.8851 18.969C69.3177 18.969 72.924 22.5753 72.924 27.0081C72.924 31.441 69.3177 35.0473 64.8851 35.0473C60.4524 35.0473 56.8462 31.441 56.8462 27.0081C56.8462 22.5753 60.4524 18.969 64.8851 18.969ZM51.8335 120.182H45.4826V89.8787C47.282 91.1997 49.4636 92.048 51.8335 92.241V120.182ZM77.2035 57.6377C75.8446 57.6377 74.7426 58.7395 74.7426 60.0986V120.182H67.6645V90.4681C67.6645 89.1089 66.5625 88.0071 65.2035 88.0071C63.8446 88.0071 62.7426 89.1089 62.7426 90.4681V120.182H56.7556V60.0984C56.7556 58.7392 55.6536 57.6375 54.2947 57.6375C52.9358 57.6375 51.8337 58.7392 51.8337 60.0984V87.294C48.2499 86.8109 45.4828 83.8506 45.4828 80.2803V78.5936V59.3714C45.4828 56.8527 45.9765 54.4006 46.9493 52.0834C46.9512 52.0787 46.953 52.074 46.9549 52.0691C50.0493 44.7183 57.3541 39.9689 65.567 39.9689C73.82 39.9689 81.1391 44.7505 84.2135 52.1503C85.1676 54.4471 85.6515 56.8765 85.6515 59.3712V80.2801C85.6515 83.7286 83.0699 86.6079 79.6645 87.2359V60.0986C79.6645 58.7397 78.5625 57.6377 77.2035 57.6377ZM79.6642 120.182V92.207C81.9352 91.9557 84.0199 91.0991 85.7455 89.8064L85.805 120.182H79.6642Z" fill="white"/>
<path d="M118.012 89.9395C119.371 89.9395 120.473 88.8377 120.473 87.4785C120.473 86.1194 119.371 85.0176 118.012 85.0176C116.653 85.0176 115.551 86.1194 115.551 87.4785C115.551 88.8377 116.653 89.9395 118.012 89.9395Z" fill="white"/>
<path d="M13.3186 89.9395C14.6777 89.9395 15.7795 88.8377 15.7795 87.4785C15.7795 86.1194 14.6777 85.0176 13.3186 85.0176C11.9595 85.0176 10.8577 86.1194 10.8577 87.4785C10.8577 88.8377 11.9595 89.9395 13.3186 89.9395Z" fill="white"/>
</svg>
