<svg width="126" height="126" viewBox="0 0 126 126" fill="none" xmlns="http://www.w3.org/2000/svg">
<g clip-path="url(#clip0)">
<path d="M109.757 81.7032H82.6874V69.3984C82.6874 65.3275 79.3755 62.0156 75.3046 62.0156H50.6954C46.6246 62.0156 43.3127 65.3275 43.3127 69.3984V71.8595H16.2426C12.1717 71.8595 8.8598 75.1714 8.8598 79.2423V123.539C8.8598 124.898 9.96156 126 11.3207 126H114.679C116.038 126 117.14 124.898 117.14 123.539V89.086C117.14 85.0151 113.828 81.7032 109.757 81.7032ZM77.7655 121.078H48.2345V114.925C48.2345 113.566 47.1327 112.464 45.7736 112.464C44.4144 112.464 43.3127 113.566 43.3127 114.925V121.078H13.7816V79.2421C13.7816 77.8851 14.8856 76.7811 16.2426 76.7811H43.3127V92.7766C43.3127 94.1358 44.4144 95.2375 45.7736 95.2375C47.1327 95.2375 48.2345 94.1358 48.2345 92.7766V69.3981C48.2345 68.0412 49.3385 66.9372 50.6954 66.9372H75.3046C76.6616 66.9372 77.7655 68.0412 77.7655 69.3981V121.078ZM112.218 121.078H82.6874V86.625H109.757C111.114 86.625 112.218 87.729 112.218 89.086V121.078Z" fill="white"/>
<path d="M103.611 98.9297C103.611 94.8588 100.309 91.5469 96.2508 91.5469C94.0984 91.5469 92.0605 92.4882 90.6593 94.1291C89.7768 95.1627 89.8993 96.7161 90.9327 97.5988C91.9665 98.4813 93.5196 98.359 94.4023 97.3254C94.867 96.7813 95.5408 96.469 96.2508 96.469C97.5952 96.469 98.689 97.573 98.689 98.9299C98.689 99.5986 98.4275 100.224 97.953 100.691C97.4281 101.208 97.1623 101.933 97.2287 102.667C97.2952 103.4 97.6865 104.066 98.2955 104.48C99.309 105.169 99.9139 106.314 99.9139 107.543C99.9139 109.579 98.2707 111.235 96.251 111.235C95.4409 111.235 94.6735 110.974 94.0317 110.48C92.9546 109.651 91.4096 109.853 90.5805 110.93C89.7517 112.007 89.9532 113.552 91.0304 114.381C92.5404 115.543 94.3455 116.157 96.251 116.157C100.985 116.157 104.836 112.293 104.836 107.543C104.836 105.533 104.139 103.617 102.903 102.099C103.367 101.122 103.611 100.045 103.611 98.9297Z" fill="white"/>
<path d="M33.4686 101.39H27.5385C28.0806 100.892 28.7598 100.359 29.5525 99.7468C32.3671 97.5753 35.8695 94.8727 35.9293 89.782C35.9731 86.0431 33.5818 82.8144 30.1141 81.9299C26.799 81.0848 23.5665 82.5936 21.8793 85.7744C21.2424 86.9751 21.6997 88.4647 22.9003 89.1016C24.1013 89.7385 25.5906 89.2812 26.2275 88.0805C27.0657 86.5001 28.2605 86.537 28.8979 86.6992C29.9627 86.9709 31.0281 88.0116 31.0079 89.7244C30.9784 92.2498 29.3025 93.7234 26.5462 95.8502C24.0238 97.7965 21.1646 100.003 21.1646 103.851C21.1646 105.211 22.2664 106.312 23.6256 106.312H33.4686C34.8278 106.312 35.9295 105.211 35.9295 103.851C35.9295 102.492 34.8278 101.39 33.4686 101.39Z" fill="white"/>
<path d="M65.7285 91.5466H65.461V74.3203C65.461 73.441 64.9919 72.6286 64.2305 72.1891C63.4694 71.7493 62.5312 71.7496 61.7696 72.1891L59.0411 73.7644C57.8641 74.4438 57.4607 75.9489 58.1404 77.126C58.6435 77.9972 59.5993 78.4438 60.5391 78.3424V91.5466H60.2716C58.9124 91.5466 57.8107 92.6484 57.8107 94.0075C57.8107 95.3667 58.9124 96.4685 60.2716 96.4685H65.7285C67.0877 96.4685 68.1894 95.3667 68.1894 94.0075C68.1894 92.6484 67.0877 91.5466 65.7285 91.5466Z" fill="white"/>
<path d="M46.4272 36.2023L45.1935 45.6084C44.9354 46.9661 45.1187 48.3393 45.7258 49.586C46.8288 51.851 49.1044 53.1705 51.4691 53.1705C52.4045 53.1705 53.3544 52.9638 54.2502 52.5275L62.9006 48.3169L71.7887 52.5511C72.9084 53.0856 74.159 53.2769 75.4052 53.1046C77.091 52.8715 78.5848 51.9959 79.6119 50.639C80.6389 49.282 81.0759 47.6067 80.8424 45.9177L79.5093 36.3785L86.0763 29.452C87.0634 28.507 87.7086 27.2965 87.9441 25.9461C88.237 24.2683 87.859 22.5769 86.8798 21.1833C85.9006 19.7897 84.4371 18.8609 82.7654 18.5691L73.2857 16.8897L68.586 8.24476C68.586 8.24427 68.5858 8.24402 68.5855 8.24353C67.9895 7.14842 67.0923 6.25929 65.9908 5.67162C64.4908 4.87183 62.7692 4.70375 61.1427 5.19864C59.5166 5.69353 58.1803 6.79233 57.3798 8.29324L52.8536 16.7896L43.3311 18.559C42.0396 18.763 40.8589 19.3501 39.9131 20.2597C38.6871 21.439 37.9939 23.0253 37.9609 24.7263C37.9279 26.4273 38.5594 28.0392 39.7406 29.2672L46.4272 36.2023ZM43.3254 23.8071C43.6003 23.5426 43.904 23.45 44.11 23.419C44.138 23.4148 44.1658 23.4102 44.1937 23.405L54.9181 21.4122C55.6544 21.2753 56.2883 20.8107 56.6405 20.1497L61.7233 10.6085C61.9044 10.2686 62.2073 10.0196 62.576 9.90736C62.7148 9.86503 62.8568 9.84411 62.9978 9.84411C63.2313 9.84411 63.4629 9.90145 63.6745 10.0144C63.9248 10.1478 64.1281 10.3491 64.2627 10.5964L69.5278 20.2814C69.8854 20.9394 70.5233 21.3986 71.2608 21.5293L81.9136 23.4163C82.2963 23.483 82.63 23.6949 82.8535 24.0128C83.0769 24.3308 83.163 24.7167 83.0964 25.0998C83.027 25.4968 82.8195 25.7601 82.6578 25.911C82.6211 25.9452 82.5855 25.9806 82.5508 26.017L75.1227 33.8518C74.6074 34.3952 74.3677 35.1438 74.4713 35.8855L75.9678 46.595C76.0207 46.9784 75.9215 47.3593 75.6878 47.6679C75.4542 47.9763 75.1146 48.1756 74.7314 48.2285C74.4423 48.2686 74.1573 48.2271 73.9073 48.1079L63.9477 43.3633C63.2714 43.0412 62.4857 43.0446 61.8124 43.3724L52.0962 48.1018C51.3749 48.4535 50.5022 48.1522 50.151 47.4307C49.9719 47.0628 49.9884 46.7232 50.0337 46.5029C50.0457 46.4444 50.0556 46.3855 50.0634 46.3262L51.4615 35.6668C51.5589 34.9243 51.3128 34.1779 50.7931 33.6387L43.2861 25.8526C43.0183 25.5741 42.8748 25.2079 42.8822 24.8213C42.8896 24.4354 43.0469 24.0749 43.3254 23.8071Z" fill="white"/>
<path d="M24.4868 4.59254L34.2011 10.201C34.5887 10.425 35.0118 10.5313 35.4294 10.5313C36.2799 10.5313 37.107 10.0898 37.5628 9.30031C38.2425 8.12325 37.8391 6.61814 36.6621 5.93867L26.9478 0.330197C25.7709 -0.349514 24.2656 0.0538336 23.5861 1.2309C22.9064 2.40797 23.3098 3.91308 24.4868 4.59254Z" fill="white"/>
<path d="M17.3853 34.0961C17.5032 34.0961 17.6225 34.0875 17.7429 34.0703L28.8429 32.4552C30.1879 32.2595 31.1196 31.0104 30.9239 29.6655C30.728 28.3206 29.4798 27.3891 28.1342 27.5845L17.0341 29.1996C15.6892 29.3952 14.7575 30.6444 14.9532 31.9893C15.1316 33.2141 16.1831 34.0961 17.3853 34.0961Z" fill="white"/>
<path d="M34.294 49.0695L26.3623 57.0011C25.4014 57.9621 25.4014 59.5203 26.3623 60.4816C26.843 60.9622 27.4727 61.2024 28.1025 61.2024C28.7322 61.2024 29.3622 60.9622 29.8426 60.4816L37.7742 52.55C38.7352 51.589 38.7352 50.0307 37.7742 49.0695C36.8132 48.1082 35.2549 48.1085 34.294 49.0695Z" fill="white"/>
<path d="M90.5712 10.5313C90.9885 10.5313 91.4118 10.4248 91.7994 10.2011L101.514 4.59259C102.691 3.91313 103.094 2.40802 102.414 1.23095C101.735 0.0536411 100.23 -0.34946 99.0528 0.330251L89.3385 5.93873C88.1614 6.61819 87.7581 8.1233 88.4378 9.30037C88.8933 10.0898 89.7207 10.5313 90.5712 10.5313Z" fill="white"/>
<path d="M95.0764 29.6646C94.8807 31.0095 95.8124 32.2587 97.1573 32.4543L108.257 34.0694C108.377 34.0869 108.497 34.0953 108.615 34.0953C109.817 34.0953 110.869 33.2133 111.047 31.9882C111.243 30.6433 110.311 29.3942 108.966 29.1985L97.8661 27.5834C96.5222 27.3885 95.272 28.3197 95.0764 29.6646Z" fill="white"/>
<path d="M88.2257 49.0704C87.2647 50.0314 87.2647 51.5896 88.2257 52.5509L96.1573 60.4825C96.6379 60.9631 97.2676 61.2033 97.8974 61.2033C98.5271 61.2033 99.1571 60.9631 99.6375 60.4825C100.599 59.5215 100.599 57.9632 99.6375 57.002L91.7059 49.0704C90.7452 48.1094 89.1869 48.1094 88.2257 49.0704Z" fill="white"/>
<path d="M45.7736 101.39C44.4144 101.39 43.3127 102.492 43.3127 103.851C43.3127 105.21 44.4144 106.312 45.7736 106.312C47.1328 106.312 48.2345 105.21 48.2345 103.851V103.85C48.2345 102.491 47.1328 101.39 45.7736 101.39Z" fill="white"/>
</g>
<defs>
<clipPath id="clip0">
<rect width="126" height="126" fill="white"/>
</clipPath>
</defs>
</svg>
