<svg width="126" height="126" viewBox="0 0 126 126" fill="none" xmlns="http://www.w3.org/2000/svg">
<g clip-path="url(#clip0)">
<path d="M120.357 52.2573L98.075 30.0051C97.6135 29.5436 96.9877 29.2851 96.336 29.2851H91.0075L97.3415 22.951C98.3028 21.9897 98.3028 20.4315 97.3415 19.4711L78.5913 0.720975C77.63 -0.240325 76.0717 -0.240325 75.1104 0.720975L67.3249 8.50751L46.5204 29.311C46.4099 29.2956 46.2984 29.2851 46.184 29.2851H29.6217C28.968 29.2851 28.3422 29.5446 27.8808 30.007L5.64303 52.2582V52.2592C5.19795 52.7043 4.92206 53.3195 4.92206 53.9991V123.539C4.92206 124.898 6.02371 126 7.38299 126H118.618C119.977 126 121.079 124.898 121.079 123.539V98.6131C121.079 97.2538 119.977 96.1522 118.618 96.1522C117.259 96.1522 116.157 97.2538 116.157 98.6131V121.078H9.84392V56.4601H116.157V78.9247C116.157 80.284 117.259 81.3856 118.618 81.3856C119.977 81.3856 121.079 80.284 121.079 78.9247V53.9991C121.079 53.3185 120.802 52.7033 120.357 52.2573ZM70.8048 11.9874L76.8514 5.94084L92.1207 21.2111L72.9206 40.4112H52.6564L47.5182 35.274L70.8048 11.9874ZM13.3209 51.5382L30.6407 34.2069H41.8225C41.3813 35.123 41.538 36.2545 42.2974 37.0139L45.6956 40.4112H37.937C36.5777 40.4112 35.476 41.5138 35.476 42.8721C35.476 44.2314 36.5777 45.333 37.937 45.333H88.063C89.4223 45.333 90.5239 44.2314 90.5239 42.8721C90.5239 41.5138 89.4223 40.4112 88.063 40.4112H79.8804L86.0856 34.2069H95.317L112.67 51.5382H13.3209Z" fill="white"/>
<path d="M41.3438 88.7686C41.3438 100.71 51.0587 110.426 63.0001 110.426C74.9414 110.426 84.6563 100.71 84.6563 88.7686C84.6563 76.8282 74.9414 67.1123 63.0001 67.1123C51.0587 67.1123 41.3438 76.8272 41.3438 88.7686ZM79.7344 88.7686C79.7344 97.9961 72.2276 105.504 63.0001 105.504C53.7735 105.504 46.2657 97.9961 46.2657 88.7686C46.2657 79.542 53.7735 72.0342 63.0001 72.0342C72.2276 72.0342 79.7344 79.541 79.7344 88.7686Z" fill="white"/>
<path d="M57.1082 85.8932C56.1469 84.9319 54.5886 84.9319 53.6273 85.8932C52.667 86.8545 52.667 88.4128 53.6273 89.3731L59.027 94.7718C59.5076 95.2525 60.1373 95.4928 60.7669 95.4928C61.3966 95.4928 62.0262 95.2525 62.5069 94.7718L72.3728 84.906C73.3341 83.9456 73.3341 82.3874 72.3728 81.4261C71.4115 80.4648 69.8532 80.4648 68.8928 81.4261L60.7669 89.552L57.1082 85.8932Z" fill="white"/>
<path d="M118.618 86.3066C117.97 86.3066 117.336 86.57 116.878 87.0286C116.42 87.4862 116.157 88.1206 116.157 88.7676C116.157 89.4174 116.42 90.0499 116.878 90.5104C117.336 90.968 117.97 91.2285 118.618 91.2285C119.265 91.2285 119.899 90.968 120.358 90.5104C120.816 90.0499 121.079 89.4155 121.079 88.7676C121.079 88.1206 120.816 87.4881 120.358 87.0286C119.899 86.57 119.265 86.3066 118.618 86.3066Z" fill="white"/>
</g>
<defs>
<clipPath id="clip0">
<rect width="126" height="126" fill="white"/>
</clipPath>
</defs>
</svg>
