<svg width="126" height="126" viewBox="0 0 126 126" fill="none" xmlns="http://www.w3.org/2000/svg">
<g clip-path="url(#clip0)">
<path d="M22.9003 66.5342C21.8809 66.5342 21.0546 67.3606 21.0546 68.3799V72.1247C21.0546 73.144 21.8809 73.9704 22.9003 73.9704C23.9196 73.9704 24.746 73.144 24.746 72.1247V68.3799C24.746 67.3606 23.9196 66.5342 22.9003 66.5342Z" fill="white"/>
<path d="M42.7526 66.5342C41.7333 66.5342 40.9069 67.3606 40.9069 68.3799V72.1247C40.9069 73.144 41.7333 73.9704 42.7526 73.9704C43.772 73.9704 44.5983 73.144 44.5983 72.1247V68.3799C44.5983 67.3606 43.772 66.5342 42.7526 66.5342Z" fill="white"/>
<path d="M37.1454 76.6357C36.1261 76.6357 35.2997 77.4621 35.2997 78.4814C35.2997 79.8451 34.1903 80.9544 32.8264 80.9544C31.4628 80.9544 30.3535 79.8451 30.3535 78.4814C30.3535 77.4621 29.5271 76.6357 28.5078 76.6357C27.4884 76.6357 26.662 77.4621 26.662 78.4814C26.662 81.8805 29.4274 84.6459 32.8264 84.6459C36.2257 84.6459 38.9911 81.8805 38.9911 78.4814C38.9911 77.4621 38.1647 76.6357 37.1454 76.6357Z" fill="white"/>
<path d="M79.0685 22.1133C70.4338 22.1133 63.4088 29.1383 63.4088 37.773C63.4088 46.4077 70.4338 53.4326 79.0685 53.4326C87.7031 53.4326 94.7281 46.4077 94.7281 37.773C94.7281 29.1383 87.7034 22.1133 79.0685 22.1133ZM79.0685 49.7415C72.4692 49.7415 67.1002 44.3725 67.1002 37.7732C67.1002 31.174 72.4692 25.8049 79.0685 25.8049C85.6677 25.8049 91.0367 31.174 91.0367 37.7732C91.0367 44.3725 85.6679 49.7415 79.0685 49.7415Z" fill="white"/>
<path d="M96.8723 89.5723C90.8416 89.5723 85.9352 94.4786 85.9352 100.509C85.9352 106.54 90.8416 111.447 96.8723 111.447C102.903 111.447 107.809 106.54 107.809 100.509C107.81 94.4786 102.903 89.5723 96.8723 89.5723ZM96.8723 107.755C92.877 107.755 89.6266 104.505 89.6266 100.509C89.6266 96.5141 92.877 93.2637 96.8723 93.2637C100.868 93.2637 104.118 96.5141 104.118 100.509C104.118 104.505 100.868 107.755 96.8723 107.755Z" fill="white"/>
<path d="M118.716 93.5959H116.171C115.947 92.9696 115.691 92.3536 115.406 91.751L117.206 89.9505C118.632 88.5252 118.632 86.218 117.206 84.7927L112.588 80.1747C111.163 78.7493 108.856 78.7491 107.431 80.1747L105.63 81.9751C105.027 81.6899 104.411 81.4342 103.785 81.2098V78.6647C103.785 76.6536 102.149 75.0176 100.138 75.0176H93.6072C91.5961 75.0176 89.9598 76.6536 89.9598 78.6647V81.2098C89.3335 81.4345 88.7175 81.6899 88.1148 81.9751L86.3144 80.1747C84.8891 78.7493 82.5819 78.7491 81.1565 80.1747L76.5386 84.7927C75.1132 86.218 75.113 88.5252 76.5386 89.9505L78.339 91.751C78.0538 92.3536 77.7981 92.9696 77.5737 93.5959H75.0286C73.0175 93.5959 71.3812 95.232 71.3812 97.2433V103.774C71.3812 105.785 73.0172 107.421 75.0286 107.421H77.5737C77.7984 108.048 78.0538 108.664 78.339 109.266L76.5386 111.067C75.1132 112.492 75.113 114.799 76.5386 116.224L81.1565 120.842C82.5819 122.268 84.8891 122.268 86.3144 120.842L88.1148 119.042C88.7175 119.327 89.3335 119.583 89.9598 119.807V122.352C89.9598 124.363 91.5958 126 93.6072 126H100.138C102.149 126 103.785 124.364 103.785 122.352V119.807C104.411 119.583 105.027 119.327 105.63 119.042L107.431 120.842C108.853 122.265 111.167 122.264 112.588 120.842L117.206 116.224C118.629 114.803 118.629 112.489 117.206 111.067L115.406 109.266C115.691 108.664 115.947 108.048 116.171 107.421H118.716C120.727 107.421 122.364 105.785 122.364 103.774V97.2433C122.364 95.2322 120.727 93.5959 118.716 93.5959ZM118.672 103.73H114.825C113.999 103.73 113.273 104.279 113.049 105.075C112.693 106.339 112.185 107.563 111.538 108.715C111.134 109.436 111.258 110.339 111.843 110.923L114.565 113.646L110.01 118.201L107.287 115.479C106.702 114.894 105.8 114.77 105.079 115.174C103.927 115.82 102.703 116.329 101.439 116.685C100.643 116.909 100.094 117.635 100.094 118.461V122.308H93.6512V118.461C93.6512 117.635 93.1017 116.909 92.3061 116.685C91.0424 116.329 89.8176 115.821 88.6659 115.174C87.9446 114.77 87.0426 114.894 86.4577 115.479L83.7354 118.201L79.1799 113.646L81.9022 110.923C82.4869 110.339 82.6115 109.436 82.2069 108.715C81.5609 107.563 81.0527 106.339 80.6966 105.075C80.4724 104.279 79.7467 103.73 78.9201 103.73H75.0729V97.2873H78.9201C79.7467 97.2873 80.4724 96.7378 80.6966 95.9422C81.0527 94.6785 81.5609 93.4537 82.2069 92.3017C82.6115 91.5807 82.4869 90.6782 81.9022 90.0938L79.1799 87.3715L83.7354 82.816L86.4577 85.5381C87.0424 86.1228 87.9443 86.2471 88.6659 85.8427C89.8178 85.1965 91.0424 84.6886 92.3061 84.3327C93.1017 84.1085 93.6515 83.3828 93.6515 82.5562V78.709H100.094V82.5562C100.094 83.3828 100.643 84.1088 101.439 84.3327C102.703 84.6886 103.928 85.1967 105.08 85.8427C105.801 86.2473 106.703 86.123 107.288 85.5381L110.01 82.816L114.565 87.3715L111.843 90.0938C111.258 90.6785 111.134 91.5807 111.539 92.3017C112.185 93.4537 112.693 94.6785 113.049 95.9422C113.273 96.7378 113.999 97.2873 114.825 97.2873H118.673V103.73H118.672Z" fill="white"/>
<path d="M84.0299 75.5476C86.5571 75.5476 88.6132 73.4917 88.6132 70.9643V66.4148C89.9667 65.9635 91.2902 65.4144 92.5699 64.7731L95.789 67.9923C97.5801 69.7831 100.479 69.7836 102.27 67.9923L109.287 60.9756C111.078 59.1846 111.079 56.2853 109.287 54.4943L106.068 51.2751C106.709 49.9954 107.258 48.6722 107.71 47.3184H112.259C114.786 47.3184 116.843 45.2626 116.843 42.7352V32.8122C116.843 30.285 114.787 28.2289 112.259 28.2289H107.71C107.258 26.8754 106.709 25.5522 106.068 24.2722L109.287 21.0531C110.153 20.1873 110.63 19.0363 110.63 17.8125C110.63 16.6839 110.216 15.5994 109.465 14.7595C108.785 13.9995 107.618 13.9346 106.859 14.614C106.099 15.2935 106.034 16.4605 106.713 17.2202C107.021 17.564 107.018 18.1022 106.677 18.443L102.494 22.6266C101.909 23.2113 101.784 24.1135 102.189 24.8346C103.208 26.651 104.009 28.5823 104.57 30.5752C104.794 31.3708 105.52 31.9203 106.347 31.9203H112.259C112.751 31.9203 113.151 32.3202 113.151 32.8122V42.7352C113.151 43.2269 112.751 43.627 112.259 43.627H106.347C105.52 43.627 104.794 44.1765 104.57 44.9722C104.009 46.9653 103.208 48.8966 102.189 50.7128C101.784 51.4341 101.909 52.3363 102.494 52.921L106.677 57.1046C107.023 57.4503 107.028 58.0146 106.677 58.3656L99.6608 65.3822C99.3129 65.7302 98.7483 65.7307 98.3996 65.3822L94.216 61.1986C93.6315 60.6139 92.7289 60.4894 92.0081 60.8939C90.1914 61.9128 88.26 62.714 86.2674 63.2754C85.4718 63.4996 84.9223 64.2253 84.9223 65.0519V70.9646C84.9223 71.4563 84.5224 71.8564 84.0304 71.8564H74.1074C73.6158 71.8564 73.2156 71.4565 73.2156 70.9646V65.0519C73.2156 64.2253 72.6661 63.4996 71.8705 63.2754C69.8778 62.714 67.9465 61.9128 66.1301 60.8939C65.409 60.4894 64.5063 60.6136 63.9219 61.1986L60.7391 64.3813C60.4214 63.8252 60.0424 63.2978 59.5992 62.8164C59.7631 62.5391 59.8564 62.1992 59.8564 61.8781V49.627C59.8564 42.7258 54.4906 37.0066 47.7545 36.4147C47.0214 35.4515 46.0685 34.5668 44.9862 33.8891V32.8122C44.9862 32.3205 45.3861 31.9203 45.8778 31.9203H51.7907C52.6173 31.9203 53.3433 31.3708 53.5672 30.5749C54.1286 28.5823 54.9296 26.651 55.9484 24.8346C56.353 24.1133 56.2285 23.2111 55.6438 22.6264L51.4602 18.443C51.1124 18.095 51.1115 17.5302 51.4602 17.1818L58.477 10.1651C58.8228 9.81939 59.3871 9.81446 59.738 10.1651L63.9216 14.3487C64.5063 14.9335 65.4085 15.0577 66.1298 14.6534C67.946 13.6346 69.8773 12.8333 71.8702 12.2722C72.6658 12.048 73.2154 11.3223 73.2154 10.4957V4.583C73.2154 4.09131 73.6153 3.69141 74.1072 3.69141H84.0302C84.5219 3.69141 84.922 4.09131 84.922 4.583V10.4959C84.922 11.3225 85.4716 12.0483 86.2672 12.2724C88.26 12.8338 90.1914 13.6351 92.0078 14.6537C92.7291 15.0582 93.6313 14.9337 94.2158 14.349L98.3994 10.1654C98.7473 9.81742 99.3119 9.81693 99.6606 10.1654L100.696 11.2012C101.417 11.922 102.586 11.922 103.306 11.2012C104.027 10.4804 104.027 9.3117 103.306 8.59113L102.271 7.55532C100.479 5.76401 97.5806 5.76401 95.7893 7.55532L92.5701 10.7742C91.2904 10.1332 89.9669 9.58412 88.6134 9.13278V4.583C88.6129 2.05587 86.5571 0 84.0299 0H74.1069C71.5798 0 69.5237 2.05587 69.5237 4.583V9.13278C68.1702 9.58412 66.8467 10.1332 65.567 10.7742L62.3479 7.55532C60.5568 5.76425 57.6576 5.76376 55.8665 7.55532L48.8499 14.5719C47.0588 16.3628 47.0585 19.2618 48.8499 21.0533L52.069 24.2725C51.4279 25.5522 50.8789 26.8757 50.4276 28.2292H45.8778C43.4661 28.2292 41.4882 30.1029 41.312 32.4706C40.7027 32.3613 40.0783 32.304 39.4442 32.304H22.9027C13.4704 32.304 5.79674 39.9777 5.79674 49.41V61.8781C5.79674 62.2376 5.90108 62.5718 6.07876 62.8555C4.5643 64.4967 3.7394 66.654 3.7394 68.7763C3.7394 73.1794 7.00851 76.8334 11.2465 77.4393C12.7056 83.5688 16.7715 88.9339 22.5547 91.9544V94.4048L16.8089 97.5265H14.6098C8.5589 97.5265 3.63628 102.449 3.63628 108.5V124.154C3.63628 125.174 4.46267 126 5.48199 126H9.09809C10.1174 126 10.9438 125.174 10.9438 124.154C10.9438 123.135 10.1174 122.309 9.09809 122.309H7.32769V108.5C7.32769 104.485 10.5943 101.218 14.6098 101.218H16.6657L26.2235 108.342C26.5466 108.582 26.9473 108.706 27.3221 108.707C27.3233 108.707 27.3245 108.707 27.326 108.707C27.3405 108.707 27.355 108.706 27.3696 108.705C27.3755 108.705 27.3814 108.705 27.3873 108.705L28.1812 111.816L26.1204 122.309H17.7114C16.692 122.309 15.8657 123.135 15.8657 124.154C15.8657 125.174 16.692 126 17.7114 126H38.0134H60.2334C61.2527 126 62.0791 125.174 62.0791 124.154V108.5C62.0791 102.449 57.1565 97.5265 51.1056 97.5265H48.8442L43.0984 94.4048V91.9542C48.8639 88.943 52.9429 83.588 54.4067 77.4393C58.6451 76.8337 61.9137 73.1797 61.9137 68.7763C61.9137 68.6446 61.9105 68.5127 61.9046 68.3806C62.0604 68.2607 62.2093 68.1315 62.3483 67.9925L65.5675 64.7734C66.8472 65.4144 68.1707 65.9637 69.5242 66.415V70.9646C69.5242 73.4917 71.5801 75.5478 74.1074 75.5478H84.0299V75.5476ZM9.48815 49.4097C9.48815 42.0129 15.5059 35.9952 22.9027 35.9952H39.4442C41.8507 35.9952 43.9846 37.2583 45.1872 39.1872C45.5195 39.72 46.0998 40.0473 46.7273 40.0559C51.931 40.1293 56.1645 44.4229 56.1645 49.6268V60.0321C54.0392 60.0321 52.7103 60.0321 50.5307 60.0321C49.6649 59.9991 48.826 59.8884 48.0279 59.5783C47.08 59.1838 46.2691 58.5504 45.6607 57.7863C44.9968 56.952 43.769 56.8582 42.9847 57.5613C41.2072 59.1545 38.9138 60.0321 36.5267 60.0321C33.8726 60.0321 13.2177 60.0321 9.4879 60.0321V49.4097H9.48815ZM27.122 104.407L20.6945 99.6165L24.3032 97.6559L29.97 101.434L27.122 104.407ZM32.8264 98.9014L26.2464 94.5148V93.4824C28.3805 94.1476 30.6569 94.4774 32.8267 94.4774C35.0147 94.4774 37.2886 94.1427 39.4067 93.4824V94.5145L32.8264 98.9014ZM35.1036 106.166L34.146 109.918H31.5069L30.5493 106.165C32.5983 104.026 32.2496 104.39 32.8262 103.788L35.0236 106.082L35.1036 106.166ZM29.8824 122.309L31.5913 113.609H34.0606L35.7697 122.309H29.8824ZM48.9869 101.218H51.1053C55.1208 101.218 58.3875 104.485 58.3875 108.5V122.309H39.5315L37.4707 111.818L38.2651 108.705C38.2732 108.705 38.2811 108.705 38.2892 108.706C38.7135 108.715 39.1191 108.573 39.4289 108.342L48.9869 101.218ZM44.9584 99.6165L38.5309 104.407L35.6829 101.434L41.3497 97.6559L44.9584 99.6165ZM52.9549 73.8301C52.0284 73.7934 51.2143 74.453 51.061 75.3699C49.5579 84.3582 41.8295 90.7852 32.8274 90.7859C32.8272 90.7859 32.8269 90.7859 32.8267 90.7859C23.9823 90.7859 16.1201 84.5059 14.5921 75.3699C14.4428 74.4776 13.6703 73.8286 12.7725 73.8286C9.42244 73.8286 7.4308 71.3871 7.4308 68.7761C7.4308 66.3267 9.30259 63.7235 12.7715 63.7235H36.527C39.2192 63.7235 41.8517 62.8993 44.0328 61.4176C45.0841 62.3434 46.1908 62.9025 47.2881 63.2397C48.2496 63.5564 49.267 63.7235 50.3102 63.7235H52.8811C56.3008 63.7235 58.2218 66.2115 58.2218 68.7761C58.2221 71.6113 55.865 73.9467 52.9549 73.8301Z" fill="white"/>
</g>
<defs>
<clipPath id="clip0">
<rect width="126" height="126" fill="white"/>
</clipPath>
</defs>
</svg>
