<svg width="126" height="126" viewBox="0 0 126 126" fill="none" xmlns="http://www.w3.org/2000/svg">
<g clip-path="url(#clip0)">
<path d="M85.3548 89.4193H81.2903V74.7321C81.2903 68.0687 76.7564 62.3679 70.2637 60.8705L54.871 57.318V53.316C56.4358 52.0607 57.7546 50.5177 58.7688 48.7742H63C68.6026 48.7742 73.1613 44.2155 73.1613 38.6129C73.1613 35.3065 71.5498 32.3921 69.0968 30.5365V24.3871C69.0968 10.9393 58.1575 0 44.7097 0C31.2618 0 20.3226 10.9393 20.3226 24.3871V30.5365C17.8696 32.3921 16.2581 35.3065 16.2581 38.6129C16.2581 44.2155 20.8167 48.7742 26.4194 48.7742H30.6506C31.6627 50.5177 32.9835 52.0607 34.5484 53.316V57.318L19.1556 60.8705C12.6629 62.3679 8.12903 68.0687 8.12903 74.7321V89.4193H4.06452C1.82288 89.4193 0 91.2422 0 93.4839V97.5484C0 99.79 1.82288 101.613 4.06452 101.613V126H85.3548V101.613C87.5965 101.613 89.4193 99.79 89.4193 97.5484V93.4839C89.4193 91.2422 87.5965 89.4193 85.3548 89.4193ZM36.1192 61.1285L41.0738 64.8437L36.0646 67.8494L34.987 61.3885L36.1192 61.1285ZM53.3001 61.1285L54.733 61.4599L53.444 67.902L48.3475 64.8437L53.3001 61.1285ZM63 44.7097H60.4329C60.7703 43.4068 60.9677 42.0513 60.9677 40.6452V32.5161H63C66.361 32.5161 69.0968 35.2519 69.0968 38.6129C69.0968 41.9739 66.361 44.7097 63 44.7097ZM24.3871 24.3871C24.3871 13.1809 33.5035 4.06452 44.7097 4.06452C55.9159 4.06452 65.0322 13.1809 65.0322 24.3871V28.657C64.3753 28.5231 63.6946 28.4516 63 28.4516H60.9677V24.3871H56.9032V25.5213C55.4931 26.7488 53.8042 27.622 51.9972 28.0775C52.0766 28.0001 52.1639 27.9336 52.2433 27.8562L49.3696 24.9825C47.8533 26.4987 45.9332 27.5575 43.8682 28.0775C43.9476 28.0001 44.0349 27.9336 44.1143 27.8562L41.2405 24.9825C39.0356 27.1874 35.9833 28.4516 32.8654 28.4516H32.5161V24.3871H28.4516V28.4516H26.4194C25.7247 28.4516 25.044 28.5231 24.3871 28.657V24.3871ZM26.4194 44.7097C23.0584 44.7097 20.3226 41.9739 20.3226 38.6129C20.3226 35.2519 23.0584 32.5161 26.4194 32.5161H28.4516V40.6452C28.4516 42.0513 28.6491 43.4068 28.9865 44.7097H26.4194ZM32.5161 40.6452V32.5161H32.8654C34.8391 32.5161 36.788 32.1261 38.6129 31.4166V32.5161H40.9945C42.9682 32.5161 44.9171 32.1261 46.7419 31.4166V32.5161H49.1235C51.8533 32.5161 54.5395 31.7828 56.9032 30.461V40.6452C56.9032 42.0721 56.6432 43.4355 56.1917 44.7097H46.7419C45.6195 44.7097 44.7097 45.6195 44.7097 46.7419C44.7097 47.8643 45.6195 48.7742 46.7419 48.7742H53.7735C51.5398 51.2619 48.3108 52.8387 44.7097 52.8387C37.9848 52.8387 32.5161 47.3701 32.5161 40.6452ZM44.7097 56.9032C46.866 56.9032 48.923 56.4726 50.8064 55.7065V57.9194L44.7097 62.4919L38.6129 57.9194V55.7065C40.4963 56.4726 42.5534 56.9032 44.7097 56.9032ZM12.1935 74.7321C12.1935 69.971 15.4334 65.8995 20.0685 64.8308L31.0187 62.3054L33.0341 74.4066L44.7097 67.4019L56.2979 74.356L58.6934 62.3738L69.3508 64.8328C73.9859 65.9025 77.2258 69.973 77.2258 74.7321V89.4193H67.0645V75.1935H63V89.4193H26.4194V75.1935H22.3548V89.4193H12.1935V74.7321ZM26.4194 121.935H22.3548V111.774C22.3548 110.653 23.2658 109.742 24.3871 109.742C25.5084 109.742 26.4194 110.653 26.4194 111.774V121.935ZM46.7419 121.935H42.6774V111.774C42.6774 110.653 43.5884 109.742 44.7097 109.742C45.831 109.742 46.7419 110.653 46.7419 111.774V121.935ZM67.0645 121.935H63V111.774C63 110.653 63.9109 109.742 65.0322 109.742C66.1536 109.742 67.0645 110.653 67.0645 111.774V121.935ZM81.2903 121.935H71.129V111.774C71.129 108.413 68.3932 105.677 65.0322 105.677C61.6713 105.677 58.9355 108.413 58.9355 111.774V121.935H50.8064V111.774C50.8064 108.413 48.0706 105.677 44.7097 105.677C41.3487 105.677 38.6129 108.413 38.6129 111.774V121.935H30.4839V111.774C30.4839 108.413 27.7481 105.677 24.3871 105.677C21.0261 105.677 18.2903 108.413 18.2903 111.774V121.935H8.12903V101.613H81.2903V121.935ZM4.06452 97.5484V93.4839H85.3548L85.3588 97.5484H4.06452Z" fill="white"/>
<path d="M119.903 0H83.3226C79.9616 0 77.2258 2.73581 77.2258 6.09677V30.4839C77.2258 33.8448 79.9616 36.5806 83.3226 36.5806H90.9981V48.9488L106.393 36.5806H119.903C123.264 36.5806 126 33.8448 126 30.4839V6.09677C126 2.73581 123.264 0 119.903 0ZM121.935 30.4839C121.935 31.6052 121.025 32.5161 119.903 32.5161H104.962L95.0626 40.4705V32.5161H83.3226C82.2013 32.5161 81.2903 31.6052 81.2903 30.4839V6.09677C81.2903 4.97546 82.2013 4.06452 83.3226 4.06452H119.903C121.025 4.06452 121.935 4.97546 121.935 6.09677V30.4839Z" fill="white"/>
<path d="M85.3549 10.1612C85.3549 9.03878 86.2647 8.12891 87.3871 8.12891C88.5095 8.12891 89.4194 9.03878 89.4194 10.1612C89.4194 11.2835 88.5095 12.1934 87.3871 12.1934C86.2647 12.1934 85.3549 11.2835 85.3549 10.1612Z" fill="white"/>
<path d="M93.4839 10.1612C93.4839 9.03878 94.3938 8.12891 95.5161 8.12891H115.839C116.961 8.12891 117.871 9.03878 117.871 10.1612C117.871 11.2835 116.961 12.1934 115.839 12.1934H95.5161C94.3938 12.1934 93.4839 11.2835 93.4839 10.1612Z" fill="white"/>
<path d="M85.3549 18.2901C85.3549 17.1677 86.2647 16.2578 87.3871 16.2578H115.839C116.961 16.2578 117.871 17.1677 117.871 18.2901C117.871 19.4125 116.961 20.3223 115.839 20.3223H87.3871C86.2647 20.3223 85.3549 19.4125 85.3549 18.2901Z" fill="white"/>
<path d="M85.3549 26.419C85.3549 25.2966 86.2647 24.3867 87.3871 24.3867H115.839C116.961 24.3867 117.871 25.2966 117.871 26.419C117.871 27.5414 116.961 28.4512 115.839 28.4512H87.3871C86.2647 28.4512 85.3549 27.5414 85.3549 26.419Z" fill="white"/>
</g>
<defs>
<clipPath id="clip0">
<rect width="126" height="126" fill="white"/>
</clipPath>
</defs>
</svg>
