<svg width="126" height="126" viewBox="0 0 126 126" fill="none" xmlns="http://www.w3.org/2000/svg">
<g clip-path="url(#clip0)">
<path d="M60.5708 113.557C59.5355 113.355 58.578 114.056 58.4002 115.008C58.1608 116.157 59.0683 117.215 60.2093 117.215C61.1995 117.215 62.055 116.411 62.055 115.369C62.055 114.534 61.4888 113.751 60.5708 113.557Z" fill="white"/>
<path d="M66.8145 109.944C66.8145 109.108 66.2434 108.326 65.3283 108.135C64.1968 107.911 63.123 108.772 63.123 109.944C63.123 110.991 63.9796 111.79 64.9688 111.79C66.0012 111.79 66.8145 110.943 66.8145 109.944Z" fill="white"/>
<path d="M66.9106 118.295C67.9113 118.295 68.7572 117.48 68.7572 116.449C68.7572 115.571 68.1468 114.82 67.2701 114.638C66.1358 114.413 65.0649 115.282 65.0649 116.449C65.0649 117.478 65.9079 118.295 66.9106 118.295Z" fill="white"/>
<path d="M71.671 112.87C72.7034 112.87 73.5167 112.025 73.5167 111.027C73.5167 109.869 72.4563 108.99 71.3095 109.215C70.3915 109.405 69.8224 110.196 69.8224 111.027C69.8224 112.029 70.6395 112.87 71.671 112.87Z" fill="white"/>
<path d="M71.5729 104.522C71.5729 103.683 71.0009 102.9 70.0886 102.711C68.9726 102.487 67.8805 103.338 67.8805 104.522C67.8805 105.527 68.7005 106.368 69.7262 106.368C70.7298 106.368 71.5729 105.557 71.5729 104.522Z" fill="white"/>
<path d="M104.776 93.7635L102.078 94.4143C101.087 94.6537 100.477 95.6515 100.717 96.6426C100.956 97.6327 101.954 98.2432 102.944 98.0038L105.643 97.352C108.147 96.7474 110.705 98.1144 111.596 100.53C112.606 103.269 111.043 106.269 108.226 107.015L98.5289 109.58C95.3287 110.428 91.9315 109.018 90.2703 106.154L86.4068 99.49C88.8995 100.081 91.3556 100.298 94.1117 99.9754C95.1239 99.8572 95.8488 98.9392 95.7296 97.9269C95.6113 96.9146 94.6942 96.1917 93.681 96.309C91.5998 96.5532 89.5109 96.4321 87.472 95.9485L83.8555 95.092L65.2226 62.9576L69.6186 55.3758C70.503 55.5411 71.3797 55.4902 72.2017 55.2498C72.2017 55.2489 72.2017 55.2489 72.2017 55.2489C73.5158 54.8624 74.701 53.9732 75.4307 52.7139C76.5535 50.7778 99.3902 11.3951 101.175 8.31609C102.712 5.66866 101.811 2.28199 99.1624 0.745826C96.5198 -0.785531 93.1244 0.117133 91.5921 2.75976L65.8484 47.1566C64.6497 49.2225 64.9207 51.7584 66.4252 53.5233L63.0885 59.2767L59.7537 53.5262C61.2303 51.7882 61.537 49.2388 60.3296 47.1566L34.5849 2.7588C33.0535 0.117133 29.6572 -0.785531 27.0146 0.745826C24.373 2.27814 23.4703 5.67347 25.0017 8.31609C26.7974 11.4125 49.6341 50.7961 50.7463 52.7139C51.9028 54.7067 54.1993 55.817 56.5584 55.3758L60.9544 62.9576L42.3215 95.092L38.706 95.9485C33.5919 97.1598 30.7579 96.0226 21.4016 93.7635C17.0776 92.7186 12.6566 95.0795 11.1175 99.2525C9.35836 104.024 12.0933 109.283 17.0084 110.584C27.602 113.388 27.6683 113.515 29.5188 113.515C33.3929 113.515 37.0929 111.47 39.1011 108.005C39.8211 106.763 63.0895 66.6374 63.0895 66.6374C63.0895 66.6374 86.3501 106.752 87.0769 108.005C89.086 111.47 92.7841 113.515 96.6591 113.515C98.5106 113.515 98.5779 113.387 109.17 110.583C114.075 109.286 116.823 104.032 115.06 99.2525C113.521 95.0795 109.099 92.7195 104.776 93.7635ZM94.7865 4.61123C95.297 3.72971 96.4304 3.42882 97.3109 3.93928C98.1934 4.45165 98.4943 5.58022 97.9819 6.46366L76.8938 42.8327L73.6744 41.0196L94.7865 4.61123ZM69.0419 49.0081L71.8219 44.2141L75.0414 46.0261L72.2372 50.8615C71.7335 51.7305 70.6107 52.0535 69.7128 51.5334C68.8304 51.0201 68.5295 49.8915 69.0419 49.0081ZM49.2842 42.8327L28.1951 6.46366C27.6847 5.58311 27.9855 4.45069 28.8671 3.93928C29.7476 3.42882 30.881 3.72971 31.3914 4.61123L52.5036 41.0196L49.2842 42.8327ZM56.4642 51.5325C55.5653 52.0535 54.4435 51.7295 53.9398 50.8615L51.1366 46.0261L54.3551 44.2141L57.1352 49.0081C57.6466 49.8896 57.3447 51.022 56.4642 51.5325ZM35.9067 106.154C34.2455 109.018 30.8512 110.427 27.6481 109.58L17.9524 107.015C15.13 106.267 13.5727 103.265 14.5811 100.53C15.4732 98.1096 18.0351 96.7493 20.5345 97.352C30.0081 99.6399 33.4006 101.002 39.7702 99.49L35.9067 106.154Z" fill="white"/>
<path d="M78.9096 105.723C79.8911 105.448 80.464 104.429 80.1881 103.447C76.5265 90.3804 60.0959 86.143 50.5415 95.6974C43.6192 102.621 43.6192 113.885 50.5415 120.808C54.0032 124.269 58.5492 126.001 63.0971 126C71.1557 125.999 78.0675 120.626 80.1881 113.059C80.464 112.076 79.8911 111.058 78.9096 110.782C77.9262 110.507 76.9082 111.08 76.6332 112.062C73.7397 122.388 60.7323 125.777 53.1524 118.197C47.6691 112.714 47.6691 103.792 53.1524 98.3083C60.7333 90.7274 73.7407 94.1189 76.6332 104.443C76.9091 105.426 77.9291 105.998 78.9096 105.723Z" fill="white"/>
</g>
<defs>
<clipPath id="clip0">
<rect width="126" height="126" fill="white"/>
</clipPath>
</defs>
</svg>
