<svg width="32" height="32" viewBox="0 0 32 32" fill="none" xmlns="http://www.w3.org/2000/svg">
<ellipse cx="15.4386" cy="9.70372" rx="6.37071" ry="6.37071" stroke="white" stroke-width="2" stroke-linecap="round" stroke-linejoin="round"/>
<path fill-rule="evenodd" clip-rule="evenodd" d="M5.33352 24.9344C5.33181 24.4866 5.43197 24.0442 5.62642 23.6408C6.23665 22.4203 7.95747 21.7735 9.38539 21.4806C10.4152 21.2608 11.4592 21.114 12.5097 21.0412C14.4546 20.8704 16.4107 20.8704 18.3556 21.0412C19.406 21.1148 20.45 21.2616 21.48 21.4806C22.9079 21.7735 24.6287 22.3593 25.2389 23.6408C25.63 24.4632 25.63 25.4179 25.2389 26.2403C24.6287 27.5218 22.9079 28.1076 21.48 28.3883C20.4514 28.6171 19.407 28.7681 18.3556 28.8398C16.7727 28.974 15.1823 28.9985 13.5959 28.9131C13.2298 28.9131 12.8759 28.9131 12.5097 28.8398C11.4623 28.769 10.4219 28.618 9.39759 28.3883C7.95747 28.1076 6.24885 27.5218 5.62642 26.2403C5.43296 25.8322 5.3329 25.3861 5.33352 24.9344Z" stroke="white" stroke-width="2" stroke-linecap="round" stroke-linejoin="round"/>
</svg>
