<svg width="127" height="127" viewBox="0 0 127 127" fill="none" xmlns="http://www.w3.org/2000/svg">
<path opacity="0.4" d="M86.4672 10.5822H40.5885C22.6497 10.5822 10.5847 23.1764 10.5847 41.9089V85.1418C10.5847 103.821 22.6497 116.416 40.5885 116.416H86.4672C104.406 116.416 116.418 103.821 116.418 85.1418V41.9089C116.418 23.1764 104.406 10.5822 86.4672 10.5822Z" fill="#68AE29"/>
<path d="M57.2212 80.6867C56.0359 80.6867 54.8506 80.2369 53.9457 79.332L41.3886 66.7749C39.5788 64.9652 39.5788 62.0336 41.3886 60.2291C43.1983 58.4194 46.1246 58.4141 47.9344 60.2238L57.2212 69.5107L79.0652 47.6667C80.875 45.8569 83.8013 45.8569 85.611 47.6667C87.4208 49.4764 87.4208 52.408 85.611 54.2178L60.4968 79.332C59.5919 80.2369 58.4066 80.6867 57.2212 80.6867Z" fill="#68AE29"/>
</svg>
