<svg width="40" height="40" viewBox="0 0 40 40" fill="none" xmlns="http://www.w3.org/2000/svg">
<path d="M20 26.5083C16.416 26.5083 13.4912 23.5835 13.4912 19.9995C13.4912 16.4155 16.416 13.4907 20 13.4907C23.584 13.4907 26.5088 16.4155 26.5088 19.9995C26.5088 23.5835 23.584 26.5083 20 26.5083ZM39.5215 19.9995C39.5215 22.6948 39.5459 25.3657 39.3946 28.0562C39.2432 31.1812 38.5303 33.9546 36.2451 36.2398C33.9551 38.5298 31.1865 39.2378 28.0615 39.3892C25.3662 39.5405 22.6953 39.5161 20.0049 39.5161C17.3096 39.5161 14.6387 39.5405 11.9483 39.3892C8.82326 39.2378 6.04982 38.5249 3.76467 36.2398C1.47463 33.9497 0.76662 31.1812 0.615252 28.0562C0.463885 25.3609 0.488299 22.69 0.488299 19.9995C0.488299 17.3091 0.463885 14.6333 0.615252 11.9429C0.76662 8.81789 1.47951 6.04445 3.76467 3.7593C6.05471 1.46926 8.82326 0.76125 11.9483 0.609882C14.6436 0.458515 17.3145 0.482929 20.0049 0.482929C22.7002 0.482929 25.3711 0.458515 28.0615 0.609882C31.1865 0.76125 33.96 1.47414 36.2451 3.7593C38.5352 6.04934 39.2432 8.81789 39.3946 11.9429C39.5508 14.6333 39.5215 17.3042 39.5215 19.9995ZM20 9.98488C14.458 9.98488 9.98537 14.4575 9.98537 19.9995C9.98537 25.5415 14.458 30.0142 20 30.0142C25.542 30.0142 30.0147 25.5415 30.0147 19.9995C30.0147 14.4575 25.542 9.98488 20 9.98488ZM30.4248 28.0855C29.1309 28.0855 28.086 29.1304 28.086 30.4243C28.086 31.7183 29.1309 32.7632 30.4248 32.7632C31.7188 32.7632 32.7637 31.7183 32.7637 30.4243C32.7641 30.1171 32.7038 29.8128 32.5864 29.5288C32.469 29.2449 32.2968 28.9869 32.0795 28.7696C31.8623 28.5524 31.6043 28.3801 31.3203 28.2627C31.0364 28.1453 30.7321 28.0851 30.4248 28.0855Z" fill="url(#paint0_linear)"/>
<defs>
<linearGradient id="paint0_linear" x1="32.5" y1="37" x2="6" y2="4.5" gradientUnits="userSpaceOnUse">
<stop stop-color="#C13584"/>
<stop offset="1" stop-color="#405DE6"/>
</linearGradient>
</defs>
</svg>
