<svg width="44" height="44" viewBox="0 0 44 44" fill="none" xmlns="http://www.w3.org/2000/svg">
<path fill-rule="evenodd" clip-rule="evenodd" d="M0.125 22C0.125 27.8016 2.42968 33.3656 6.53204 37.468C10.6344 41.5703 16.1984 43.875 22 43.875C27.8016 43.875 33.3656 41.5703 37.468 37.468C41.5703 33.3656 43.875 27.8016 43.875 22C43.875 16.1984 41.5703 10.6344 37.468 6.53204C33.3656 2.42968 27.8016 0.125 22 0.125C16.1984 0.125 10.6344 2.42968 6.53204 6.53204C2.42968 10.6344 0.125 16.1984 0.125 22ZM40.125 22C40.125 26.807 38.2154 31.4172 34.8163 34.8163C31.4172 38.2154 26.807 40.125 22 40.125C17.193 40.125 12.5828 38.2154 9.18369 34.8163C5.78459 31.4172 3.875 26.807 3.875 22C3.875 17.193 5.78459 12.5828 9.18369 9.18369C12.5828 5.78459 17.193 3.875 22 3.875C26.807 3.875 31.4172 5.78459 34.8163 9.18369C38.2154 12.5828 40.125 17.193 40.125 22Z" fill="black"/>
<path fill-rule="evenodd" clip-rule="evenodd" d="M12.625 22C12.625 33.305 16.3525 42.625 22 42.625C27.6475 42.625 31.375 33.305 31.375 22C31.375 10.695 27.6475 1.375 22 1.375C16.3525 1.375 12.625 10.695 12.625 22ZM27.625 22C27.625 31.405 24.6375 38.875 22 38.875C19.3625 38.875 16.375 31.405 16.375 22C16.375 12.595 19.3625 5.125 22 5.125C24.6375 5.125 27.625 12.595 27.625 22Z" fill="black"/>
<path d="M6.00497 10.6677L8.51997 7.8877C8.76997 8.1127 9.04247 8.3377 9.33247 8.5552C12.51 10.9352 17.5825 12.4052 23.12 12.4052C27.8475 12.4052 32.25 11.3377 35.4475 9.5102C36.2175 9.0702 36.9025 8.5927 37.495 8.0852L39.93 10.9377C39.155 11.6002 38.2775 12.2127 37.31 12.7627C33.52 14.9327 28.475 16.1527 23.12 16.1527C16.815 16.1527 10.9575 14.4577 7.08247 11.5552C6.70987 11.2761 6.35032 10.9799 6.00497 10.6677Z" fill="black"/>
<path d="M6.00497 33.3727L8.51997 36.1527C8.76997 35.9252 9.04247 35.7027 9.33247 35.4852C12.51 33.1052 17.5825 31.6352 23.12 31.6352C27.8475 31.6352 32.25 32.7027 35.4475 34.5302C36.2175 34.9702 36.9025 35.4477 37.495 35.9552L39.93 33.1027C39.1155 32.414 38.2383 31.803 37.31 31.2777C33.52 29.1077 28.475 27.8877 23.12 27.8877C16.815 27.8877 10.9575 29.5827 7.08247 32.4852C6.70986 32.7643 6.35031 33.0605 6.00497 33.3727Z" fill="black"/>
<path d="M1.375 23.875V20.125H42.625V23.875H1.375Z" fill="black"/>
</svg>
