<svg width="50" height="34" viewBox="0 0 50 34" fill="none" xmlns="http://www.w3.org/2000/svg">
<path d="M48.9583 5.55649C48.6752 4.54656 48.1237 3.63221 47.3625 2.91066C46.5798 2.16691 45.6204 1.6349 44.575 1.36482C40.6625 0.333573 24.9875 0.333573 24.9875 0.333573C18.4528 0.259225 11.9196 0.586228 5.425 1.31274C4.37957 1.60277 3.42201 2.14667 2.6375 2.89607C1.86667 3.63774 1.30834 4.55232 1.01667 5.55441C0.316031 9.32887 -0.0243876 13.1614 4.0601e-06 17.0002C-0.0249959 20.8357 0.314587 24.6669 1.01667 28.4461C1.30209 29.444 1.85834 30.3544 2.63125 31.0898C3.40417 31.8252 4.36667 32.3565 5.425 32.6377C9.38959 33.6669 24.9875 33.6669 24.9875 33.6669C31.5306 33.7414 38.072 33.4144 44.575 32.6877C45.6204 32.4177 46.5798 31.8857 47.3625 31.1419C48.1333 30.4065 48.6813 29.4919 48.9563 28.4961C49.6752 24.7231 50.0248 20.889 50 17.0482C50.0541 13.1911 49.705 9.33892 48.9583 5.55441V5.55649ZM20.0042 24.1336V9.86899L33.0458 17.0023L20.0042 24.1336Z" fill="#FF0000"/>
</svg>
